<?xml version="1.0" encoding="UTF-8" ?><!DOCTYPE svg PUBLIC "-//W3C//DTD SVG 1.1//EN"
    "http://www.w3.org/Graphics/SVG/1.1/DTD/svg11.dtd">
<svg width="512pt" height="512pt" viewBox="0 0 512 512" version="1.1"
    xmlns="http://www.w3.org/2000/svg">
    <g id="#ff4d69ff">
        <path fill="#ff4d69" opacity="1.00"
            d=" M 66.06 5.21 C 73.93 2.73 82.93 8.74 83.64 16.95 C 84.76 24.53 78.56 32.13 70.89 32.50 C 63.61 33.26 56.53 27.32 55.97 20.04 C 55.14 13.49 59.70 6.87 66.06 5.21 Z" />
        <path fill="#ff4d69" opacity="1.00"
            d=" M 243.40 135.59 C 249.86 132.81 257.50 139.29 255.79 146.10 C 254.78 152.83 245.64 156.03 240.66 151.34 C 235.29 147.18 236.97 137.71 243.40 135.59 Z" />
    </g>
    <g id="#00c99fff">
        <path fill="#00c99f" opacity="1.00"
            d=" M 488.46 5.59 C 495.46 2.75 504.16 6.77 506.50 13.95 C 509.34 21.27 504.62 30.23 497.00 32.06 C 489.75 34.23 481.46 29.30 479.86 21.93 C 478.07 15.32 482.02 7.88 488.46 5.59 Z" />
        <path fill="#00c99f" opacity="1.00"
            d=" M 41.36 452.52 C 48.48 449.45 57.48 453.63 59.75 461.02 C 62.43 468.35 57.64 477.23 50.02 478.93 C 42.92 480.97 34.84 476.23 33.11 469.08 C 31.15 462.49 34.97 454.96 41.36 452.52 Z" />
    </g>
    <g id="#e7efffff">
        <path fill="#e7efff" opacity="1.00"
            d=" M 184.51 29.39 C 220.06 21.03 257.58 21.28 293.04 30.00 C 325.92 37.93 356.70 53.55 383.21 74.47 C 285.98 74.50 188.75 74.44 91.52 74.49 C 118.80 53.02 150.59 37.08 184.51 29.39 Z" />
        <path fill="#e7efff" opacity="1.00"
            d=" M 91.88 437.55 C 137.60 437.51 183.31 437.54 229.03 437.53 C 280.20 437.63 331.38 437.32 382.55 437.69 C 352.43 462.24 315.74 478.58 277.48 485.25 C 232.66 493.12 185.56 487.47 143.91 469.11 C 125.28 460.94 107.73 450.29 91.88 437.55 Z" />
    </g>
    <g id="#4e6affff">
        <path fill="#4e6aff" opacity="1.00"
            d=" M 383.21 74.47 C 410.81 74.46 438.41 74.48 466.01 74.46 C 471.42 74.30 477.03 74.68 481.96 77.13 C 491.80 81.60 498.33 92.19 498.03 102.98 C 498.04 203.98 498.02 304.97 498.05 405.97 C 498.17 410.98 497.81 416.13 495.69 420.75 C 491.56 430.50 481.48 437.31 470.89 437.49 C 441.44 437.69 411.99 437.30 382.55 437.69 C 331.38 437.32 280.20 437.63 229.03 437.53 C 183.31 437.54 137.60 437.51 91.88 437.55 C 82.74 430.86 74.61 422.65 66.77 414.44 C 132.85 414.04 198.94 414.38 265.02 414.27 C 331.67 414.24 398.32 414.32 464.97 414.22 C 470.54 414.62 475.23 409.52 474.75 404.05 C 474.76 305.34 474.76 206.64 474.75 107.93 C 475.26 102.46 470.54 97.40 465.00 97.78 C 366.00 97.67 267.00 97.76 168.01 97.73 C 134.25 97.62 100.49 97.95 66.74 97.57 C 74.46 89.32 82.68 81.53 91.52 74.49 C 188.75 74.44 285.98 74.50 383.21 74.47 Z" />
        <path fill="#4e6aff" opacity="1.00"
            d=" M 344.46 125.88 C 344.16 120.77 348.81 116.16 353.91 116.38 C 384.62 116.29 415.33 116.36 446.04 116.35 C 451.41 115.90 456.49 120.54 456.12 126.02 C 456.23 153.35 456.10 180.69 456.18 208.03 C 456.17 209.84 456.00 211.65 455.82 213.47 C 447.85 203.63 440.27 193.50 432.51 183.50 C 430.62 181.09 428.40 178.42 425.13 178.10 C 421.57 177.38 418.05 179.16 415.91 181.95 C 407.47 192.52 399.53 203.50 390.92 213.93 C 385.21 209.72 379.95 204.92 374.18 200.80 C 370.59 198.12 365.08 198.79 362.20 202.22 C 356.15 209.15 350.53 216.46 344.38 223.32 C 344.52 190.84 344.37 158.36 344.46 125.88 M 388.37 144.56 C 381.30 145.75 376.03 153.04 377.19 160.14 C 378.01 167.60 385.67 173.36 393.08 172.01 C 400.57 171.08 406.20 163.27 404.70 155.87 C 403.62 148.41 395.73 142.97 388.37 144.56 Z" />
        <path fill="#4e6aff" opacity="1.00"
            d=" M 63.36 144.53 C 83.91 143.94 104.52 144.40 125.09 144.29 C 128.73 143.60 131.49 147.84 129.88 151.01 C 129.21 152.97 126.95 153.65 125.08 153.60 C 105.72 153.66 86.36 153.57 67.00 153.64 C 65.19 153.58 63.09 153.67 61.74 152.24 C 59.74 149.95 60.34 145.64 63.36 144.53 Z" />
        <path fill="#4e6aff" opacity="1.00"
            d=" M 21.45 169.00 C 21.88 168.80 22.74 168.39 23.18 168.19 C 23.32 226.76 23.37 285.34 23.15 343.91 C 22.72 343.66 21.86 343.16 21.42 342.91 C 15.47 328.82 11.39 313.98 8.48 298.98 C 8.15 297.25 7.73 295.46 8.10 293.70 C 8.59 292.08 8.09 290.45 7.27 289.03 C 5.63 284.94 6.16 280.36 5.30 276.08 C 4.86 266.43 4.02 256.76 4.76 247.10 C 5.21 239.05 5.17 230.75 7.28 222.96 C 8.09 221.54 8.59 219.91 8.09 218.29 C 7.71 216.55 8.15 214.77 8.47 213.06 C 11.39 198.02 15.48 183.13 21.45 169.00 Z" />
        <path fill="#4e6aff" opacity="1.00"
            d=" M 63.38 172.50 C 65.90 172.01 68.49 172.21 71.05 172.19 C 88.70 172.23 106.36 172.19 124.01 172.19 C 125.60 172.33 127.47 172.06 128.75 173.23 C 131.28 175.38 130.70 180.31 127.32 181.28 C 124.91 181.80 122.43 181.54 119.99 181.58 C 102.32 181.56 84.66 181.54 66.99 181.59 C 65.41 181.51 63.64 181.66 62.30 180.63 C 59.59 178.69 60.10 173.56 63.38 172.50 Z" />
        <path fill="#4e6aff" opacity="1.00"
            d=" M 63.35 200.46 C 66.52 199.87 69.77 200.18 72.98 200.13 C 89.64 200.13 106.30 200.17 122.96 200.10 C 124.52 200.15 126.12 200.09 127.65 200.50 C 130.53 201.68 131.14 205.88 129.15 208.10 C 127.77 209.38 125.78 209.38 124.03 209.45 C 105.01 209.42 85.99 209.42 66.98 209.46 C 65.41 209.36 63.71 209.48 62.32 208.62 C 59.64 206.64 60.06 201.56 63.35 200.46 Z" />
        <path fill="#4e6aff" opacity="1.00"
            d=" M 63.30 228.41 C 65.16 227.97 67.10 228.07 69.00 228.04 C 88.03 228.17 107.08 227.92 126.11 228.16 C 129.69 227.99 131.56 232.83 129.43 235.45 C 128.06 237.65 125.21 237.34 122.97 237.41 C 103.68 237.30 84.38 237.49 65.09 237.30 C 60.11 237.83 58.89 229.96 63.30 228.41 Z" />
        <path fill="#4e6aff" opacity="1.00"
            d=" M 44.67 286.62 C 47.03 284.03 50.73 283.87 53.99 283.89 C 82.34 283.99 110.70 283.86 139.05 283.95 C 144.55 283.51 149.38 288.47 148.92 293.94 C 148.98 315.35 148.92 336.77 148.94 358.19 C 140.33 350.09 132.23 341.47 123.76 333.23 C 120.89 330.20 116.05 329.25 112.40 331.40 C 109.58 333.17 107.67 336.00 105.50 338.46 C 99.89 345.03 94.27 351.58 88.67 358.16 C 83.88 354.38 80.20 349.41 75.44 345.61 C 71.98 342.71 66.51 343.16 63.36 346.31 C 56.07 353.18 49.40 360.71 41.88 367.35 C 41.90 343.23 41.90 319.11 41.87 294.98 C 41.84 291.99 42.33 288.73 44.67 286.62 M 85.18 298.31 C 78.33 299.81 73.42 307.04 74.68 313.97 C 75.59 321.16 82.86 326.70 90.04 325.68 C 97.90 325.01 103.91 316.72 102.06 309.04 C 100.74 301.53 92.54 296.32 85.18 298.31 Z" />
    </g>
    <g id="#8fa2ffff">
        <path fill="#8fa2ff" opacity="1.00"
            d=" M 51.19 116.23 C 55.90 109.64 61.18 103.45 66.74 97.57 C 100.49 97.95 134.25 97.62 168.01 97.73 C 267.00 97.76 366.00 97.67 465.00 97.78 C 470.54 97.40 475.26 102.46 474.75 107.93 C 474.76 206.64 474.76 305.34 474.75 404.05 C 475.23 409.52 470.54 414.62 464.97 414.22 C 398.32 414.32 331.67 414.24 265.02 414.27 C 198.94 414.38 132.85 414.04 66.77 414.44 C 61.21 408.60 55.99 402.41 51.27 395.88 C 80.54 395.66 109.81 395.89 139.09 395.76 C 143.96 395.98 148.83 392.09 148.90 387.06 C 149.10 377.44 148.94 367.81 148.94 358.19 C 148.92 336.77 148.98 315.35 148.92 293.94 C 149.38 288.47 144.55 283.51 139.05 283.95 C 110.70 283.86 82.34 283.99 53.99 283.89 C 50.73 283.87 47.03 284.03 44.67 286.62 C 42.33 288.73 41.84 291.99 41.87 294.98 C 41.90 319.11 41.90 343.23 41.88 367.35 C 41.85 372.39 41.76 377.43 41.85 382.48 C 33.75 370.03 26.68 356.82 21.42 342.91 C 21.86 343.16 22.72 343.66 23.15 343.91 C 23.37 285.34 23.32 226.76 23.18 168.19 C 22.74 168.39 21.88 168.80 21.45 169.00 C 26.74 155.12 33.73 141.87 41.91 129.47 C 41.83 170.66 41.95 211.84 41.85 253.03 C 41.87 256.10 41.86 259.54 44.08 261.96 C 46.18 264.68 49.75 265.43 53.02 265.35 C 81.66 265.29 110.30 265.38 138.94 265.31 C 144.14 265.70 149.04 261.29 148.89 256.02 C 149.03 213.01 148.90 169.99 148.95 126.97 C 149.06 123.86 148.15 120.56 145.62 118.56 C 142.44 115.75 137.95 116.41 134.05 116.31 C 106.43 116.30 78.81 116.45 51.19 116.23 M 175.43 116.52 C 170.88 117.09 167.33 121.45 167.58 126.01 C 167.52 211.01 167.59 296.01 167.55 381.01 C 167.65 384.57 167.01 388.58 169.25 391.64 C 171.16 394.48 174.64 395.81 177.98 395.66 C 223.66 395.68 269.34 395.66 315.03 395.67 C 321.03 396.44 326.58 391.11 325.82 385.05 C 325.79 298.69 325.86 212.32 325.79 125.96 C 326.14 120.22 320.60 115.66 315.05 116.33 C 268.51 116.46 221.95 116.08 175.43 116.52 M 344.46 125.88 C 344.37 158.36 344.52 190.84 344.38 223.32 C 344.19 234.56 344.32 245.81 344.32 257.05 C 344.51 259.40 343.98 262.30 345.94 264.08 C 347.84 265.78 350.62 265.23 352.97 265.43 C 384.97 265.46 416.97 265.52 448.97 265.41 C 451.93 265.70 456.03 264.67 456.05 261.02 C 456.42 245.69 456.14 230.34 456.21 215.00 C 456.11 214.62 455.92 213.85 455.82 213.47 C 456.00 211.65 456.17 209.84 456.18 208.03 C 456.10 180.69 456.23 153.35 456.12 126.02 C 456.49 120.54 451.41 115.90 446.04 116.35 C 415.33 116.36 384.62 116.29 353.91 116.38 C 348.81 116.16 344.16 120.77 344.46 125.88 M 351.12 284.32 C 346.93 285.44 344.15 289.72 344.44 293.99 C 344.45 324.68 344.40 355.38 344.47 386.08 C 344.19 391.23 348.81 395.83 353.95 395.62 C 384.29 395.74 414.65 395.62 444.99 395.68 C 448.37 395.85 452.06 394.90 454.15 392.05 C 456.27 389.54 456.17 386.10 456.17 383.01 C 456.07 353.02 456.23 323.02 456.09 293.03 C 456.18 287.79 451.21 283.47 446.06 283.94 C 415.70 283.93 385.35 283.95 354.99 283.93 C 353.68 283.91 352.39 284.04 351.12 284.32 Z" />
    </g>
    <g id="#323fd4ff">
        <path fill="#323fd4" opacity="1.00"
            d=" M 50.91 116.22 L 51.19 116.23 C 78.81 116.45 106.43 116.30 134.05 116.31 C 137.95 116.41 142.44 115.75 145.62 118.56 C 148.15 120.56 149.06 123.86 148.95 126.97 C 148.90 169.99 149.03 213.01 148.89 256.02 C 149.04 261.29 144.14 265.70 138.94 265.31 C 110.30 265.38 81.66 265.29 53.02 265.35 C 49.75 265.43 46.18 264.68 44.08 261.96 C 41.86 259.54 41.87 256.10 41.85 253.03 C 41.95 211.84 41.83 170.66 41.91 129.47 L 41.92 128.91 C 44.95 124.70 47.80 120.37 50.91 116.22 M 63.36 144.53 C 60.34 145.64 59.74 149.95 61.74 152.24 C 63.09 153.67 65.19 153.58 67.00 153.64 C 86.36 153.57 105.72 153.66 125.08 153.60 C 126.95 153.65 129.21 152.97 129.88 151.01 C 131.49 147.84 128.73 143.60 125.09 144.29 C 104.52 144.40 83.91 143.94 63.36 144.53 M 63.38 172.50 C 60.10 173.56 59.59 178.69 62.30 180.63 C 63.64 181.66 65.41 181.51 66.99 181.59 C 84.66 181.54 102.32 181.56 119.99 181.58 C 122.43 181.54 124.91 181.80 127.32 181.28 C 130.70 180.31 131.28 175.38 128.75 173.23 C 127.47 172.06 125.60 172.33 124.01 172.19 C 106.36 172.19 88.70 172.23 71.05 172.19 C 68.49 172.21 65.90 172.01 63.38 172.50 M 63.35 200.46 C 60.06 201.56 59.64 206.64 62.32 208.62 C 63.71 209.48 65.41 209.36 66.98 209.46 C 85.99 209.42 105.01 209.42 124.03 209.45 C 125.78 209.38 127.77 209.38 129.15 208.10 C 131.14 205.88 130.53 201.68 127.65 200.50 C 126.12 200.09 124.52 200.15 122.96 200.10 C 106.30 200.17 89.64 200.13 72.98 200.13 C 69.77 200.18 66.52 199.87 63.35 200.46 M 63.30 228.41 C 58.89 229.96 60.11 237.83 65.09 237.30 C 84.38 237.49 103.68 237.30 122.97 237.41 C 125.21 237.34 128.06 237.65 129.43 235.45 C 131.56 232.83 129.69 227.99 126.11 228.16 C 107.08 227.92 88.03 228.17 69.00 228.04 C 67.10 228.07 65.16 227.97 63.30 228.41 Z" />
        <path fill="#323fd4" opacity="1.00"
            d=" M 415.91 181.95 C 418.05 179.16 421.57 177.38 425.13 178.10 C 428.40 178.42 430.62 181.09 432.51 183.50 C 440.27 193.50 447.85 203.63 455.82 213.47 C 455.92 213.85 456.11 214.62 456.21 215.00 C 456.14 230.34 456.42 245.69 456.05 261.02 C 456.03 264.67 451.93 265.70 448.97 265.41 C 416.97 265.52 384.97 265.46 352.97 265.43 C 350.62 265.23 347.84 265.78 345.94 264.08 C 343.98 262.30 344.51 259.40 344.32 257.05 C 344.32 245.81 344.19 234.56 344.38 223.32 C 350.53 216.46 356.15 209.15 362.20 202.22 C 365.08 198.79 370.59 198.12 374.18 200.80 C 379.95 204.92 385.21 209.72 390.92 213.93 C 399.53 203.50 407.47 192.52 415.91 181.95 Z" />
        <path fill="#323fd4" opacity="1.00"
            d=" M 112.40 331.40 C 116.05 329.25 120.89 330.20 123.76 333.23 C 132.23 341.47 140.33 350.09 148.94 358.19 C 148.94 367.81 149.10 377.44 148.90 387.06 C 148.83 392.09 143.96 395.98 139.09 395.76 C 109.81 395.89 80.54 395.66 51.27 395.88 L 50.98 395.88 C 47.85 391.49 44.34 387.24 41.85 382.48 C 41.76 377.43 41.85 372.39 41.88 367.35 C 49.40 360.71 56.07 353.18 63.36 346.31 C 66.51 343.16 71.98 342.71 75.44 345.61 C 80.20 349.41 83.88 354.38 88.67 358.16 C 94.27 351.58 99.89 345.03 105.50 338.46 C 107.67 336.00 109.58 333.17 112.40 331.40 Z" />
    </g>
    <g id="#ffffffff">
        <path fill="#ffffff" opacity="1.00"
            d=" M 175.43 116.52 C 221.95 116.08 268.51 116.46 315.05 116.33 C 320.60 115.66 326.14 120.22 325.79 125.96 C 325.86 212.32 325.79 298.69 325.82 385.05 C 326.58 391.11 321.03 396.44 315.03 395.67 C 269.34 395.66 223.66 395.68 177.98 395.66 C 174.64 395.81 171.16 394.48 169.25 391.64 C 167.01 388.58 167.65 384.57 167.55 381.01 C 167.59 296.01 167.52 211.01 167.58 126.01 C 167.33 121.45 170.88 117.09 175.43 116.52 M 243.40 135.59 C 236.97 137.71 235.29 147.18 240.66 151.34 C 245.64 156.03 254.78 152.83 255.79 146.10 C 257.50 139.29 249.86 132.81 243.40 135.59 M 189.29 172.46 C 185.97 173.30 185.21 178.14 187.61 180.33 C 188.74 181.56 190.52 181.45 192.04 181.53 C 228.35 181.54 264.67 181.51 300.99 181.55 C 303.18 181.66 305.91 181.23 306.78 178.88 C 308.38 175.72 305.63 171.71 302.09 172.23 C 267.05 172.15 232.01 172.23 196.97 172.19 C 194.41 172.21 191.82 172.02 189.29 172.46 M 189.21 200.40 C 185.92 201.32 185.24 206.15 187.65 208.32 C 188.80 209.44 190.50 209.39 191.99 209.47 C 228.32 209.48 264.65 209.45 300.98 209.48 C 303.17 209.58 305.84 209.16 306.76 206.87 C 308.38 203.71 305.67 199.61 302.09 200.16 C 267.05 200.08 232.01 200.17 196.96 200.12 C 194.38 200.15 191.76 199.94 189.21 200.40 M 189.22 228.33 C 184.35 229.69 185.83 238.11 191.07 237.36 C 227.69 237.47 264.32 237.36 300.95 237.41 C 303.14 237.51 305.84 237.13 306.76 234.80 C 308.39 231.64 305.66 227.52 302.06 228.09 C 267.05 228.02 232.03 228.10 197.01 228.05 C 194.41 228.08 191.79 227.87 189.22 228.33 M 189.16 256.26 C 185.88 257.23 185.24 262.08 187.70 264.22 C 188.83 265.29 190.49 265.24 191.94 265.33 C 228.28 265.34 264.63 265.32 300.97 265.34 C 303.13 265.42 305.77 265.07 306.72 262.80 C 308.41 259.69 305.74 255.47 302.14 256.03 C 267.08 255.95 232.02 256.03 196.96 255.99 C 194.36 256.02 191.73 255.81 189.16 256.26 M 188.39 284.52 C 184.43 286.69 186.24 293.84 191.02 293.21 C 227.67 293.34 264.33 293.22 300.99 293.28 C 303.41 293.48 306.44 292.69 307.00 289.94 C 308.08 286.83 305.29 283.42 302.01 283.95 C 265.68 283.90 229.35 283.98 193.02 283.91 C 191.48 284.02 189.80 283.78 188.39 284.52 M 188.34 312.48 C 184.47 314.63 186.22 321.72 190.93 321.10 C 227.62 321.19 264.31 321.08 301.00 321.15 C 303.11 321.22 305.72 320.97 306.68 318.74 C 308.45 315.59 305.74 311.27 302.06 311.89 C 265.71 311.82 229.36 311.92 193.01 311.84 C 191.46 311.94 189.76 311.72 188.34 312.48 M 188.35 340.40 C 184.44 342.55 186.25 349.69 190.98 349.02 C 228.01 349.11 265.04 349.06 302.07 349.05 C 304.52 349.35 306.98 347.57 307.16 345.05 C 307.69 342.09 304.99 339.36 302.03 339.82 C 265.68 339.76 229.34 339.85 192.99 339.78 C 191.44 339.86 189.77 339.66 188.35 340.40 M 188.33 368.35 C 184.48 370.51 186.22 377.54 190.91 376.96 C 227.61 377.06 264.33 376.95 301.04 377.02 C 303.35 377.22 306.22 376.58 306.91 374.02 C 308.22 370.88 305.45 367.18 302.05 367.75 C 265.70 367.70 229.36 367.78 193.02 367.71 C 191.46 367.81 189.74 367.55 188.33 368.35 Z" />
        <path fill="#ffffff" opacity="1.00"
            d=" M 388.37 144.56 C 395.73 142.97 403.62 148.41 404.70 155.87 C 406.20 163.27 400.57 171.08 393.08 172.01 C 385.67 173.36 378.01 167.60 377.19 160.14 C 376.03 153.04 381.30 145.75 388.37 144.56 Z" />
        <path fill="#ffffff" opacity="1.00"
            d=" M 351.12 284.32 C 352.39 284.04 353.68 283.91 354.99 283.93 C 385.35 283.95 415.70 283.93 446.06 283.94 C 451.21 283.47 456.18 287.79 456.09 293.03 C 456.23 323.02 456.07 353.02 456.17 383.01 C 456.17 386.10 456.27 389.54 454.15 392.05 C 452.06 394.90 448.37 395.85 444.99 395.68 C 414.65 395.62 384.29 395.74 353.95 395.62 C 348.81 395.83 344.19 391.23 344.47 386.08 C 344.40 355.38 344.45 324.68 344.44 293.99 C 344.15 289.72 346.93 285.44 351.12 284.32 M 366.28 307.41 C 362.81 308.17 362.03 313.27 364.61 315.44 C 366.08 316.75 368.18 316.43 369.99 316.55 C 390.68 316.50 411.37 316.56 432.05 316.52 C 434.75 316.83 437.61 314.93 437.52 312.01 C 437.80 308.97 434.85 306.75 431.99 307.20 C 410.09 307.33 388.16 306.92 366.28 307.41 M 366.28 335.34 C 361.71 336.29 362.21 344.19 366.99 344.33 C 387.98 344.68 409.00 344.34 430.00 344.50 C 432.24 344.40 435.11 344.79 436.60 342.68 C 438.84 339.92 436.84 334.95 433.09 335.19 C 410.83 335.19 388.53 334.89 366.28 335.34 M 366.15 363.30 C 361.67 364.40 362.28 372.21 367.06 372.24 C 388.04 372.48 409.03 372.23 430.02 372.36 C 432.25 372.27 435.13 372.71 436.61 370.59 C 438.85 367.80 436.79 362.82 433.02 363.12 C 410.74 363.15 388.41 362.78 366.15 363.30 Z" />
        <path fill="#ffffff" opacity="1.00"
            d=" M 85.18 298.31 C 92.54 296.32 100.74 301.53 102.06 309.04 C 103.91 316.72 97.90 325.01 90.04 325.68 C 82.86 326.70 75.59 321.16 74.68 313.97 C 73.42 307.04 78.33 299.81 85.18 298.31 Z" />
    </g>
    <g id="#a5bcedff">
        <path fill="#a5bced" opacity="1.00"
            d=" M 189.29 172.46 C 191.82 172.02 194.41 172.21 196.97 172.19 C 232.01 172.23 267.05 172.15 302.09 172.23 C 305.63 171.71 308.38 175.72 306.78 178.88 C 305.91 181.23 303.18 181.66 300.99 181.55 C 264.67 181.51 228.35 181.54 192.04 181.53 C 190.52 181.45 188.74 181.56 187.61 180.33 C 185.21 178.14 185.97 173.30 189.29 172.46 Z" />
        <path fill="#a5bced" opacity="1.00"
            d=" M 189.21 200.40 C 191.76 199.94 194.38 200.15 196.96 200.12 C 232.01 200.17 267.05 200.08 302.09 200.16 C 305.67 199.61 308.38 203.71 306.76 206.87 C 305.84 209.16 303.17 209.58 300.98 209.48 C 264.65 209.45 228.32 209.48 191.99 209.47 C 190.50 209.39 188.80 209.44 187.65 208.32 C 185.24 206.15 185.92 201.32 189.21 200.40 Z" />
        <path fill="#a5bced" opacity="1.00"
            d=" M 189.22 228.33 C 191.79 227.87 194.41 228.08 197.01 228.05 C 232.03 228.10 267.05 228.02 302.06 228.09 C 305.66 227.52 308.39 231.64 306.76 234.80 C 305.84 237.13 303.14 237.51 300.95 237.41 C 264.32 237.36 227.69 237.47 191.07 237.36 C 185.83 238.11 184.35 229.69 189.22 228.33 Z" />
        <path fill="#a5bced" opacity="1.00"
            d=" M 189.16 256.26 C 191.73 255.81 194.36 256.02 196.96 255.99 C 232.02 256.03 267.08 255.95 302.14 256.03 C 305.74 255.47 308.41 259.69 306.72 262.80 C 305.77 265.07 303.13 265.42 300.97 265.34 C 264.63 265.32 228.28 265.34 191.94 265.33 C 190.49 265.24 188.83 265.29 187.70 264.22 C 185.24 262.08 185.88 257.23 189.16 256.26 Z" />
        <path fill="#a5bced" opacity="1.00"
            d=" M 188.39 284.52 C 189.80 283.78 191.48 284.02 193.02 283.91 C 229.35 283.98 265.68 283.90 302.01 283.95 C 305.29 283.42 308.08 286.83 307.00 289.94 C 306.44 292.69 303.41 293.48 300.99 293.28 C 264.33 293.22 227.67 293.34 191.02 293.21 C 186.24 293.84 184.43 286.69 188.39 284.52 Z" />
        <path fill="#a5bced" opacity="1.00"
            d=" M 366.28 307.41 C 388.16 306.92 410.09 307.33 431.99 307.20 C 434.85 306.75 437.80 308.97 437.52 312.01 C 437.61 314.93 434.75 316.83 432.05 316.52 C 411.37 316.56 390.68 316.50 369.99 316.55 C 368.18 316.43 366.08 316.75 364.61 315.44 C 362.03 313.27 362.81 308.17 366.28 307.41 Z" />
        <path fill="#a5bced" opacity="1.00"
            d=" M 188.34 312.48 C 189.76 311.72 191.46 311.94 193.01 311.84 C 229.36 311.92 265.71 311.82 302.06 311.89 C 305.74 311.27 308.45 315.59 306.68 318.74 C 305.72 320.97 303.11 321.22 301.00 321.15 C 264.31 321.08 227.62 321.19 190.93 321.10 C 186.22 321.72 184.47 314.63 188.34 312.48 Z" />
        <path fill="#a5bced" opacity="1.00"
            d=" M 366.28 335.34 C 388.53 334.89 410.83 335.19 433.09 335.19 C 436.84 334.95 438.84 339.92 436.60 342.68 C 435.11 344.79 432.24 344.40 430.00 344.50 C 409.00 344.34 387.98 344.68 366.99 344.33 C 362.21 344.19 361.71 336.29 366.28 335.34 Z" />
        <path fill="#a5bced" opacity="1.00"
            d=" M 188.35 340.40 C 189.77 339.66 191.44 339.86 192.99 339.78 C 229.34 339.85 265.68 339.76 302.03 339.82 C 304.99 339.36 307.69 342.09 307.16 345.05 C 306.98 347.57 304.52 349.35 302.07 349.05 C 265.04 349.06 228.01 349.11 190.98 349.02 C 186.25 349.69 184.44 342.55 188.35 340.40 Z" />
        <path fill="#a5bced" opacity="1.00"
            d=" M 366.15 363.30 C 388.41 362.78 410.74 363.15 433.02 363.12 C 436.79 362.82 438.85 367.80 436.61 370.59 C 435.13 372.71 432.25 372.27 430.02 372.36 C 409.03 372.23 388.04 372.48 367.06 372.24 C 362.28 372.21 361.67 364.40 366.15 363.30 Z" />
        <path fill="#a5bced" opacity="1.00"
            d=" M 188.33 368.35 C 189.74 367.55 191.46 367.81 193.02 367.71 C 229.36 367.78 265.70 367.70 302.05 367.75 C 305.45 367.18 308.22 370.88 306.91 374.02 C 306.22 376.58 303.35 377.22 301.04 377.02 C 264.33 376.95 227.61 377.06 190.91 376.96 C 186.22 377.54 184.48 370.51 188.33 368.35 Z" />
    </g>
    <g id="#6374c6c6">
        <path fill="#6374c6" opacity="0.78"
            d=" M 7.28 222.96 C 6.55 221.75 6.26 218.30 8.09 218.29 C 8.59 219.91 8.09 221.54 7.28 222.96 Z" />
    </g>
    <g id="#6374c5c6">
        <path fill="#6374c5" opacity="0.78"
            d=" M 7.27 289.03 C 8.09 290.45 8.59 292.08 8.10 293.70 L 7.63 293.82 C 6.47 292.61 6.51 290.43 7.27 289.03 Z" />
    </g>
    <g id="#ffa100ff">
        <path fill="#ffa100" opacity="1.00"
            d=" M 422.47 480.68 C 429.36 477.36 438.44 480.98 441.11 488.15 C 444.28 495.32 439.97 504.47 432.46 506.65 C 425.59 509.01 417.43 504.98 415.12 498.11 C 412.55 491.52 416.00 483.47 422.47 480.68 Z" />
    </g>
</svg>
