<?xml version="1.0" encoding="UTF-8" ?><!DOCTYPE svg PUBLIC "-//W3C//DTD SVG 1.1//EN"
    "http://www.w3.org/Graphics/SVG/1.1/DTD/svg11.dtd">
<svg width="512pt" height="512pt" viewBox="0 0 512 512" version="1.1"
    xmlns="http://www.w3.org/2000/svg">
    <g id="#00c99fff">
        <path fill="#00c99f" opacity="1.00"
            d=" M 32.40 5.56 C 38.82 3.03 46.72 6.16 49.69 12.37 C 53.23 19.03 50.12 28.14 43.21 31.19 C 36.01 34.91 26.29 30.72 24.02 22.97 C 21.54 16.13 25.55 7.92 32.40 5.56 Z" />
        <path fill="#00c99f" opacity="1.00"
            d=" M 475.06 480.16 C 482.05 477.64 490.46 481.87 492.61 488.97 C 495.14 495.88 491.01 504.29 484.00 506.52 C 479.35 508.22 473.90 507.08 470.21 503.82 C 466.09 500.26 464.41 494.18 466.19 489.02 C 467.51 484.88 470.93 481.49 475.06 480.16 Z" />
    </g>
    <g id="#8fa2ffff">
        <path fill="#8fa2ff" opacity="1.00"
            d=" M 102.47 59.01 C 102.99 49.61 111.63 41.68 121.04 41.89 C 147.24 41.87 173.45 41.82 199.65 41.91 C 206.70 44.41 213.06 50.13 213.90 57.92 C 214.33 65.00 214.13 72.12 213.97 79.22 C 194.65 79.45 175.31 78.97 155.98 79.16 C 138.12 78.91 120.28 79.72 102.43 79.31 C 102.41 72.54 102.33 65.77 102.47 59.01 M 193.37 56.36 C 190.59 57.65 189.96 61.76 192.23 63.82 C 194.47 66.24 198.99 65.16 199.89 61.98 C 201.40 58.26 196.84 54.33 193.37 56.36 Z" />
        <path fill="#8fa2ff" opacity="1.00"
            d=" M 191.36 191.48 C 198.91 188.91 207.77 194.13 209.11 201.99 C 211.10 210.04 204.30 218.63 196.08 218.71 C 188.88 219.23 182.00 213.15 181.63 205.94 C 180.94 199.61 185.29 193.28 191.36 191.48 Z" />
    </g>
    <g id="#4e6affff">
        <path fill="#4e6aff" opacity="1.00"
            d=" M 199.65 41.91 C 263.44 41.79 327.24 41.88 391.04 41.89 C 399.98 41.75 408.27 48.93 409.39 57.80 C 410.10 64.90 408.99 72.28 409.97 79.25 C 400.97 79.13 391.83 79.22 382.96 79.23 C 326.68 79.09 270.29 79.12 213.97 79.22 C 214.13 72.12 214.33 65.00 213.90 57.92 C 213.06 50.13 206.70 44.41 199.65 41.91 M 342.34 56.35 C 339.24 57.74 338.90 62.54 341.80 64.33 C 344.48 66.39 348.77 64.40 349.06 61.07 C 349.65 57.56 345.46 54.57 342.34 56.35 M 365.36 56.48 C 362.32 58.08 362.33 62.96 365.39 64.54 C 368.45 66.53 372.89 63.62 372.33 60.03 C 372.15 56.79 368.10 54.72 365.36 56.48 M 389.15 56.23 C 386.04 57.38 385.33 62.02 387.97 64.04 C 390.62 66.57 395.52 64.50 395.62 60.86 C 396.01 57.55 392.19 54.75 389.15 56.23 Z" />
        <path fill="#4e6aff" opacity="1.00"
            d=" M 130.35 171.94 C 130.36 166.95 134.99 162.60 139.98 162.93 C 177.01 162.93 214.03 162.93 251.06 162.93 C 256.05 162.64 260.64 166.99 260.63 171.99 C 260.77 195.37 260.48 218.76 260.77 242.13 C 253.94 235.34 247.14 228.52 240.33 221.70 C 236.55 216.73 228.66 216.95 224.91 221.85 C 215.78 231.09 206.53 240.20 197.39 249.42 C 196.60 250.09 195.59 251.61 194.45 250.58 C 187.34 246.08 180.50 241.16 173.42 236.63 C 170.29 234.50 165.82 234.63 162.82 236.91 C 151.94 246.26 141.35 255.96 130.30 265.11 C 130.38 234.05 130.27 203.00 130.35 171.94 M 191.36 191.48 C 185.29 193.28 180.94 199.61 181.63 205.94 C 182.00 213.15 188.88 219.23 196.08 218.71 C 204.30 218.63 211.10 210.04 209.11 201.99 C 207.77 194.13 198.91 188.91 191.36 191.48 Z" />
    </g>
    <g id="#ffffffff">
        <path fill="#ffffff" opacity="1.00"
            d=" M 193.37 56.36 C 196.84 54.33 201.40 58.26 199.89 61.98 C 198.99 65.16 194.47 66.24 192.23 63.82 C 189.96 61.76 190.59 57.65 193.37 56.36 Z" />
        <path fill="#ffffff" opacity="1.00"
            d=" M 342.34 56.35 C 345.46 54.57 349.65 57.56 349.06 61.07 C 348.77 64.40 344.48 66.39 341.80 64.33 C 338.90 62.54 339.24 57.74 342.34 56.35 Z" />
        <path fill="#ffffff" opacity="1.00"
            d=" M 365.36 56.48 C 368.10 54.72 372.15 56.79 372.33 60.03 C 372.89 63.62 368.45 66.53 365.39 64.54 C 362.33 62.96 362.32 58.08 365.36 56.48 Z" />
        <path fill="#ffffff" opacity="1.00"
            d=" M 389.15 56.23 C 392.19 54.75 396.01 57.55 395.62 60.86 C 395.52 64.50 390.62 66.57 387.97 64.04 C 385.33 62.02 386.04 57.38 389.15 56.23 Z" />
        <path fill="#ffffff" opacity="1.00"
            d=" M 102.43 79.31 C 120.28 79.72 138.12 78.91 155.98 79.16 C 175.31 78.97 194.65 79.45 213.97 79.22 C 270.29 79.12 326.68 79.09 382.96 79.23 C 383.19 79.35 383.66 79.59 383.89 79.71 C 388.11 78.27 392.59 80.33 396.90 79.40 C 401.22 78.78 405.53 79.74 409.85 79.61 C 409.31 85.04 409.74 90.55 409.60 96.01 C 409.74 97.54 409.13 99.31 410.30 100.57 C 409.61 104.68 409.70 108.85 409.74 113.00 C 409.72 159.09 409.85 205.19 409.67 251.28 C 409.53 271.47 409.61 291.66 409.63 311.86 C 315.74 311.89 221.84 311.83 127.95 311.89 C 124.06 311.80 120.33 314.44 119.15 318.16 C 113.39 336.47 108.01 354.91 102.21 373.21 C 102.64 345.48 102.28 317.73 102.40 290.00 C 102.36 266.24 102.47 242.49 102.34 218.73 C 102.15 184.81 102.30 150.88 102.24 116.96 C 102.15 111.51 102.72 106.00 101.64 100.61 C 101.84 100.27 102.23 99.59 102.42 99.26 C 102.39 92.61 102.37 85.95 102.43 79.31 M 138.16 107.20 C 133.86 107.77 130.39 111.75 130.36 116.08 C 130.30 122.40 130.32 128.72 130.35 135.04 C 130.24 140.11 134.91 144.57 139.97 144.26 C 217.31 144.27 294.66 144.27 372.00 144.26 C 377.06 144.59 381.72 140.14 381.65 135.08 C 381.68 128.71 381.70 122.34 381.64 115.98 C 381.57 111.02 376.97 106.79 372.03 107.07 C 294.08 107.15 216.11 106.90 138.16 107.20 M 130.35 171.94 C 130.27 203.00 130.38 234.05 130.30 265.11 C 129.97 271.38 130.23 277.73 130.17 284.03 C 130.16 289.21 134.89 293.61 140.05 293.41 C 177.01 293.43 213.97 293.43 250.93 293.41 C 256.08 293.60 260.76 289.25 260.82 284.09 C 260.82 270.11 260.91 256.11 260.77 242.13 C 260.48 218.76 260.77 195.37 260.63 171.99 C 260.64 166.99 256.05 162.64 251.06 162.93 C 214.03 162.93 177.01 162.93 139.98 162.93 C 134.99 162.60 130.36 166.95 130.35 171.94 M 282.07 163.25 C 277.53 164.79 278.99 172.81 283.98 172.18 C 315.00 172.21 346.02 172.22 377.04 172.18 C 380.69 172.55 382.86 167.98 381.01 165.09 C 380.14 163.28 377.92 162.81 376.10 162.93 C 346.39 162.93 316.69 162.95 286.98 162.92 C 285.35 162.98 283.66 162.76 282.07 163.25 M 281.29 182.24 C 277.55 184.50 279.43 191.27 283.98 190.83 C 315.03 190.89 346.09 190.90 377.14 190.82 C 382.50 191.19 383.30 182.17 377.95 181.63 C 347.30 181.41 316.63 181.62 285.97 181.53 C 284.40 181.59 282.67 181.33 281.29 182.24 M 282.33 200.38 C 277.50 201.75 278.84 210.09 284.07 209.44 C 315.04 209.48 346.01 209.48 376.98 209.43 C 382.45 209.99 383.34 200.93 378.02 200.26 C 347.67 199.96 317.30 200.23 286.94 200.12 C 285.40 200.16 283.83 200.02 282.33 200.38 M 281.28 219.47 C 277.63 221.74 279.39 228.55 283.96 228.03 C 313.67 228.12 343.37 228.03 373.07 228.07 C 375.57 227.91 378.72 228.70 380.58 226.53 C 383.11 223.73 380.98 218.38 376.98 218.77 C 346.65 218.67 316.32 218.77 285.98 218.72 C 284.40 218.76 282.69 218.62 281.28 219.47 M 282.47 237.56 C 278.02 238.60 278.39 246.18 283.02 246.59 C 313.67 246.78 344.34 246.60 375.01 246.68 C 376.81 246.62 379.01 246.96 380.34 245.40 C 383.20 242.75 381.13 236.97 377.04 237.41 C 345.52 237.49 313.98 237.19 282.47 237.56 M 282.15 256.31 C 277.48 257.81 279.00 265.92 284.06 265.30 C 314.39 265.38 344.73 265.30 375.07 265.34 C 377.26 265.42 380.12 265.28 381.12 262.93 C 382.81 259.97 380.56 255.71 377.00 256.03 C 347.01 255.96 317.01 256.03 287.02 255.99 C 285.39 256.05 283.72 255.83 282.15 256.31 M 281.29 275.34 C 277.60 277.59 279.43 284.32 283.93 283.91 C 305.66 283.95 327.38 283.96 349.10 283.91 C 351.75 284.07 354.02 281.60 353.72 278.98 C 353.81 276.49 351.38 274.43 348.96 274.62 C 327.96 274.56 306.96 274.63 285.96 274.59 C 284.40 274.65 282.67 274.42 281.29 275.34 Z" />
    </g>
    <g id="#ffa100ff">
        <path fill="#ffa100" opacity="1.00"
            d=" M 488.36 75.44 C 495.73 72.34 505.01 77.04 506.82 84.83 C 509.22 92.67 503.16 101.60 494.99 102.24 C 487.62 103.34 480.13 97.40 479.56 89.96 C 478.72 83.85 482.60 77.57 488.36 75.44 Z" />
    </g>
    <g id="#e7efffff">
        <path fill="#e7efff" opacity="1.00"
            d=" M 29.79 219.95 C 40.74 174.07 66.19 131.72 101.64 100.61 C 102.72 106.00 102.15 111.51 102.24 116.96 C 102.30 150.88 102.15 184.81 102.34 218.73 C 96.25 218.95 90.07 218.21 84.03 219.29 C 76.02 221.11 69.82 228.77 69.84 237.01 C 69.79 293.69 69.82 350.36 69.82 407.03 C 69.75 409.31 70.10 411.65 69.39 413.87 C 52.92 391.26 39.95 365.98 32.36 339.00 C 21.21 300.44 20.31 258.97 29.79 219.95 Z" />
        <path fill="#e7efff" opacity="1.00"
            d=" M 410.30 100.57 C 433.00 120.38 451.52 144.97 464.88 171.98 C 484.59 211.94 492.43 257.67 487.07 301.91 C 483.75 330.93 474.72 359.23 460.94 384.97 C 461.19 380.01 462.54 375.20 463.40 370.33 C 466.41 354.59 469.56 338.87 472.56 323.12 C 473.91 317.81 469.50 312.00 464.03 311.95 C 456.75 311.71 449.46 311.95 442.17 311.85 C 442.19 297.91 442.20 283.96 442.17 270.02 C 442.37 261.13 435.35 252.83 426.55 251.59 C 420.94 251.01 415.29 251.54 409.67 251.28 C 409.85 205.19 409.72 159.09 409.74 113.00 C 409.70 108.85 409.61 104.68 410.30 100.57 Z" />
        <path fill="#e7efff" opacity="1.00"
            d=" M 147.31 480.32 C 148.85 480.00 150.41 479.82 151.99 479.78 C 218.68 479.81 285.36 479.78 352.05 479.79 C 356.28 479.81 360.53 479.55 364.73 480.24 C 340.93 493.22 314.34 501.52 287.40 505.21 C 239.64 511.75 189.84 503.05 147.31 480.32 Z" />
    </g>
    <g id="#ff4d69ff">
        <path fill="#ff4d69" opacity="1.00"
            d=" M 138.16 107.20 C 216.11 106.90 294.08 107.15 372.03 107.07 C 376.97 106.79 381.57 111.02 381.64 115.98 C 381.70 122.34 381.68 128.71 381.65 135.08 C 381.72 140.14 377.06 144.59 372.00 144.26 C 294.66 144.27 217.31 144.27 139.97 144.26 C 134.91 144.57 130.24 140.11 130.35 135.04 C 130.32 128.72 130.30 122.40 130.36 116.08 C 130.39 111.75 133.86 107.77 138.16 107.20 Z" />
        <path fill="#ff4d69" opacity="1.00"
            d=" M 14.40 447.54 C 22.35 444.67 31.76 450.76 32.43 459.17 C 33.33 465.50 29.16 472.10 23.04 473.99 C 16.68 476.30 9.00 473.08 6.14 466.96 C 2.24 459.71 6.49 449.78 14.40 447.54 Z" />
    </g>
    <g id="#a5bcedff">
        <path fill="#a5bced" opacity="1.00"
            d=" M 282.07 163.25 C 283.66 162.76 285.35 162.98 286.98 162.92 C 316.69 162.95 346.39 162.93 376.10 162.93 C 377.92 162.81 380.14 163.28 381.01 165.09 C 382.86 167.98 380.69 172.55 377.04 172.18 C 346.02 172.22 315.00 172.21 283.98 172.18 C 278.99 172.81 277.53 164.79 282.07 163.25 Z" />
        <path fill="#a5bced" opacity="1.00"
            d=" M 281.29 182.24 C 282.67 181.33 284.40 181.59 285.97 181.53 C 316.63 181.62 347.30 181.41 377.95 181.63 C 383.30 182.17 382.50 191.19 377.14 190.82 C 346.09 190.90 315.03 190.89 283.98 190.83 C 279.43 191.27 277.55 184.50 281.29 182.24 Z" />
        <path fill="#a5bced" opacity="1.00"
            d=" M 282.33 200.38 C 283.83 200.02 285.40 200.16 286.94 200.12 C 317.30 200.23 347.67 199.96 378.02 200.26 C 383.34 200.93 382.45 209.99 376.98 209.43 C 346.01 209.48 315.04 209.48 284.07 209.44 C 278.84 210.09 277.50 201.75 282.33 200.38 Z" />
        <path fill="#a5bced" opacity="1.00"
            d=" M 281.28 219.47 C 282.69 218.62 284.40 218.76 285.98 218.72 C 316.32 218.77 346.65 218.67 376.98 218.77 C 380.98 218.38 383.11 223.73 380.58 226.53 C 378.72 228.70 375.57 227.91 373.07 228.07 C 343.37 228.03 313.67 228.12 283.96 228.03 C 279.39 228.55 277.63 221.74 281.28 219.47 Z" />
        <path fill="#a5bced" opacity="1.00"
            d=" M 282.47 237.56 C 313.98 237.19 345.52 237.49 377.04 237.41 C 381.13 236.97 383.20 242.75 380.34 245.40 C 379.01 246.96 376.81 246.62 375.01 246.68 C 344.34 246.60 313.67 246.78 283.02 246.59 C 278.39 246.18 278.02 238.60 282.47 237.56 Z" />
        <path fill="#a5bced" opacity="1.00"
            d=" M 282.15 256.31 C 283.72 255.83 285.39 256.05 287.02 255.99 C 317.01 256.03 347.01 255.96 377.00 256.03 C 380.56 255.71 382.81 259.97 381.12 262.93 C 380.12 265.28 377.26 265.42 375.07 265.34 C 344.73 265.30 314.39 265.38 284.06 265.30 C 279.00 265.92 277.48 257.81 282.15 256.31 Z" />
        <path fill="#a5bced" opacity="1.00"
            d=" M 281.29 275.34 C 282.67 274.42 284.40 274.65 285.96 274.59 C 306.96 274.63 327.96 274.56 348.96 274.62 C 351.38 274.43 353.81 276.49 353.72 278.98 C 354.02 281.60 351.75 284.07 349.10 283.91 C 327.38 283.96 305.66 283.95 283.93 283.91 C 279.43 284.32 277.60 277.59 281.29 275.34 Z" />
        <path fill="#a5bced" opacity="1.00"
            d=" M 119.15 318.16 C 120.33 314.44 124.06 311.80 127.95 311.89 C 221.84 311.83 315.74 311.89 409.63 311.86 C 420.47 311.89 431.32 311.86 442.17 311.85 C 449.46 311.95 456.75 311.71 464.03 311.95 C 469.50 312.00 473.91 317.81 472.56 323.12 C 469.56 338.87 466.41 354.59 463.40 370.33 C 462.54 375.20 461.19 380.01 460.94 384.97 C 443.46 418.20 417.16 446.93 386.01 467.93 C 379.07 472.28 372.28 477.22 364.73 480.24 C 360.53 479.55 356.28 479.81 352.05 479.79 C 285.36 479.78 218.68 479.81 151.99 479.78 C 150.41 479.82 148.85 480.00 147.31 480.32 C 138.51 476.40 130.43 470.84 122.42 465.45 C 108.47 455.64 95.52 444.32 84.03 431.67 L 84.10 431.50 C 85.81 427.82 86.81 423.87 87.96 419.99 C 92.74 404.41 97.58 388.84 102.21 373.21 C 108.01 354.91 113.39 336.47 119.15 318.16 Z" />
    </g>
    <g id="#323fd4ff">
        <path fill="#323fd4" opacity="1.00"
            d=" M 224.91 221.85 C 228.66 216.95 236.55 216.73 240.33 221.70 C 247.14 228.52 253.94 235.34 260.77 242.13 C 260.91 256.11 260.82 270.11 260.82 284.09 C 260.76 289.25 256.08 293.60 250.93 293.41 C 213.97 293.43 177.01 293.43 140.05 293.41 C 134.89 293.61 130.16 289.21 130.17 284.03 C 130.23 277.73 129.97 271.38 130.30 265.11 C 141.35 255.96 151.94 246.26 162.82 236.91 C 165.82 234.63 170.29 234.50 173.42 236.63 C 180.50 241.16 187.34 246.08 194.45 250.58 C 195.59 251.61 196.60 250.09 197.39 249.42 C 206.53 240.20 215.78 231.09 224.91 221.85 Z" />
    </g>
    <g id="#7f96d1ff">
        <path fill="#7f96d1" opacity="1.00"
            d=" M 69.84 237.01 C 69.82 228.77 76.02 221.11 84.03 219.29 C 90.07 218.21 96.25 218.95 102.34 218.73 C 102.47 242.49 102.36 266.24 102.40 290.00 C 102.28 317.73 102.64 345.48 102.21 373.21 C 97.58 388.84 92.74 404.41 87.96 419.99 C 86.81 423.87 85.81 427.82 84.10 431.50 C 78.71 426.11 73.95 420.01 69.39 413.88 L 69.39 413.87 C 70.10 411.65 69.75 409.31 69.82 407.03 C 69.82 350.36 69.79 293.69 69.84 237.01 Z" />
        <path fill="#7f96d1" opacity="1.00"
            d=" M 409.67 251.28 C 415.29 251.54 420.94 251.01 426.55 251.59 C 435.35 252.83 442.37 261.13 442.17 270.02 C 442.20 283.96 442.19 297.91 442.17 311.85 C 431.32 311.86 420.47 311.89 409.63 311.86 C 409.61 291.66 409.53 271.47 409.67 251.28 Z" />
    </g>
</svg>
