<?xml version="1.0" encoding="UTF-8" ?><!DOCTYPE svg PUBLIC "-//W3C//DTD SVG 1.1//EN"
    "http://www.w3.org/Graphics/SVG/1.1/DTD/svg11.dtd">
<svg width="512pt" height="512pt" viewBox="0 0 512 512" version="1.1"
    xmlns="http://www.w3.org/2000/svg">
    <g id="#ffa100ff">
        <path fill="#ffa100" opacity="1.00"
            d=" M 465.36 5.53 C 473.35 2.30 483.15 8.31 483.91 16.88 C 485.05 24.18 479.32 31.63 471.97 32.40 C 465.37 33.47 458.47 28.96 456.75 22.51 C 454.55 15.72 458.63 7.80 465.36 5.53 Z" />
        <path fill="#ffa100" opacity="1.00"
            d=" M 325.87 363.05 C 338.24 350.64 350.63 338.25 363.04 325.89 C 363.06 338.27 363.07 350.66 363.04 363.05 C 350.65 363.08 338.26 363.07 325.87 363.05 Z" />
    </g>
    <g id="#e7efffff">
        <path fill="#e7efff" opacity="1.00"
            d=" M 182.97 35.07 C 223.41 21.60 267.61 19.64 309.10 29.41 C 340.37 36.57 369.89 50.66 395.65 69.71 C 381.77 69.94 367.89 69.70 354.01 69.83 C 349.00 69.59 344.40 73.93 344.48 78.97 C 344.34 89.88 344.52 100.81 344.40 111.73 C 335.12 111.73 325.84 111.73 316.57 111.73 C 316.54 107.85 316.33 103.96 316.63 100.09 C 319.37 97.64 322.40 95.25 323.87 91.75 C 326.89 85.56 326.02 77.74 321.75 72.35 C 317.87 67.32 311.28 64.50 304.97 65.35 C 298.35 66.12 292.36 70.78 290.00 77.02 C 287.50 83.22 288.73 90.78 293.18 95.79 C 294.57 97.39 296.36 98.58 297.81 100.14 C 298.04 104.00 297.83 107.86 297.91 111.73 C 287.04 111.73 276.16 111.74 265.29 111.72 C 265.42 98.58 265.17 85.42 265.40 72.28 C 267.69 69.93 270.55 68.03 272.06 65.01 C 275.62 58.87 275.18 50.69 270.96 44.98 C 267.20 39.66 260.47 36.61 253.99 37.40 C 247.10 38.11 240.87 43.05 238.61 49.59 C 236.26 55.95 237.79 63.59 242.52 68.47 C 243.80 69.83 245.37 70.88 246.60 72.29 C 246.83 85.43 246.56 98.58 246.72 111.72 C 235.85 111.74 224.97 111.73 214.09 111.73 C 214.16 107.85 213.95 103.97 214.20 100.11 C 216.72 97.71 219.70 95.61 221.18 92.34 C 224.48 86.13 223.81 78.08 219.48 72.54 C 215.72 67.51 209.29 64.64 203.04 65.29 C 195.86 65.93 189.33 71.20 187.22 78.10 C 185.25 83.97 186.56 90.78 190.53 95.52 C 191.95 97.23 193.78 98.53 195.36 100.09 C 195.68 103.96 195.45 107.85 195.43 111.73 C 186.16 111.73 176.88 111.73 167.60 111.73 C 167.47 100.82 167.66 89.92 167.52 79.01 C 167.66 73.05 161.59 68.90 155.98 69.79 C 142.75 69.77 129.52 69.89 116.29 69.72 C 136.62 54.93 159.00 42.79 182.97 35.07 Z" />
        <path fill="#e7efff" opacity="1.00"
            d=" M 94.80 88.22 L 94.80 88.22 C 112.79 88.82 130.82 88.27 148.83 88.50 C 149.11 96.23 148.84 103.98 148.95 111.73 C 142.29 111.77 135.63 111.66 128.97 111.78 C 120.36 112.19 112.76 119.41 111.87 127.98 C 111.51 134.96 111.82 141.96 111.70 148.95 C 103.96 148.84 96.21 149.13 88.48 148.82 C 88.39 132.56 88.44 116.30 88.46 100.05 C 88.49 98.33 88.31 96.64 87.91 94.97 C 90.27 92.79 92.42 90.38 94.80 88.22 Z" />
        <path fill="#e7efff" opacity="1.00"
            d=" M 363.17 88.50 C 381.26 88.38 399.36 88.58 417.45 88.41 C 419.74 90.54 421.84 92.89 424.13 95.02 C 423.69 96.66 423.50 98.33 423.54 100.03 C 423.55 116.29 423.62 132.56 423.51 148.83 C 415.78 149.12 408.03 148.84 400.30 148.96 C 400.23 142.30 400.39 135.64 400.22 128.98 C 399.79 120.01 391.97 112.18 383.00 111.77 C 376.35 111.67 369.69 111.77 363.05 111.73 C 363.16 103.98 362.88 96.23 363.17 88.50 Z" />
        <path fill="#e7efff" opacity="1.00"
            d=" M 40.31 168.56 C 47.74 149.93 57.93 132.52 69.72 116.32 C 69.95 130.21 69.71 144.11 69.84 158.00 C 69.59 163.04 74.01 167.64 79.06 167.50 C 89.94 167.61 100.83 167.44 111.71 167.58 C 111.71 176.86 111.71 186.14 111.71 195.42 C 107.84 195.42 103.95 195.67 100.09 195.35 C 97.53 192.44 94.99 189.27 91.26 187.81 C 83.13 184.02 72.56 187.23 67.96 194.94 C 63.15 202.31 64.67 212.98 71.38 218.67 C 77.45 224.30 87.35 224.91 94.12 220.19 C 96.56 218.65 98.11 216.17 100.15 214.22 C 104.00 213.99 107.85 214.20 111.70 214.12 C 111.72 224.98 111.72 235.84 111.70 246.71 C 98.58 246.55 85.44 246.81 72.32 246.59 C 68.20 241.28 62.12 236.88 55.06 237.43 C 44.61 237.53 35.85 247.75 37.32 258.09 C 38.20 268.39 48.84 276.38 58.98 274.30 C 64.62 273.57 68.83 269.53 72.32 265.40 C 85.44 265.20 98.57 265.44 111.70 265.29 C 111.72 276.16 111.72 287.02 111.70 297.88 C 107.85 297.80 104.00 298.01 100.16 297.78 C 97.70 295.26 95.62 292.18 92.28 290.71 C 85.21 286.89 75.75 288.45 70.29 294.35 C 64.29 300.39 63.42 310.66 68.33 317.62 C 73.10 324.94 83.34 327.87 91.27 324.19 C 94.99 322.73 97.51 319.56 100.07 316.66 C 103.94 316.34 107.83 316.57 111.71 316.58 C 111.71 325.86 111.72 335.15 111.71 344.43 C 100.80 344.55 89.90 344.40 79.00 344.49 C 73.98 344.36 69.60 348.97 69.85 353.96 C 69.69 367.84 69.98 381.72 69.70 395.60 C 48.42 366.85 33.42 333.36 27.14 298.10 C 19.09 254.84 23.71 209.31 40.31 168.56 Z" />
        <path fill="#e7efff" opacity="1.00"
            d=" M 442.27 116.34 C 463.57 145.13 478.59 178.66 484.87 213.98 C 493.58 260.83 487.36 310.35 467.27 353.57 C 460.51 368.45 451.86 382.40 442.28 395.62 C 442.04 381.73 442.30 367.83 442.15 353.94 C 442.38 348.96 438.03 344.38 433.02 344.50 C 422.11 344.39 411.20 344.56 400.29 344.42 C 400.28 335.14 400.28 325.86 400.29 316.57 C 404.16 316.59 408.04 316.33 411.91 316.65 C 414.47 319.57 417.03 322.74 420.79 324.20 C 428.02 327.52 437.27 325.44 442.36 319.31 C 447.86 313.14 448.35 303.27 443.53 296.57 C 438.50 289.03 427.66 286.37 419.70 290.71 C 416.39 292.21 414.29 295.23 411.88 297.78 C 408.02 297.99 404.15 297.82 400.30 297.88 C 400.28 287.01 400.28 276.15 400.30 265.29 C 413.41 265.44 426.53 265.21 439.64 265.39 C 442.85 268.93 446.23 272.78 451.14 273.87 C 460.64 276.84 471.63 270.66 474.09 261.04 C 476.26 253.72 473.30 245.27 467.04 240.90 C 460.69 236.21 451.34 236.29 445.08 241.11 C 442.95 242.59 441.60 244.87 439.70 246.58 C 426.57 246.82 413.43 246.55 400.30 246.71 C 400.28 235.85 400.28 224.98 400.30 214.12 C 404.14 214.20 407.99 214.00 411.84 214.21 C 414.43 216.92 416.73 220.14 420.35 221.59 C 428.67 225.77 439.75 222.36 444.29 214.23 C 449.03 206.56 446.99 195.67 439.81 190.23 C 433.78 185.33 424.63 184.89 418.17 189.20 C 415.62 190.72 413.92 193.21 411.95 195.34 C 408.07 195.65 404.17 195.43 400.29 195.42 C 400.28 186.14 400.28 176.86 400.29 167.58 C 411.17 167.44 422.05 167.61 432.93 167.50 C 437.99 167.64 442.43 163.01 442.16 157.97 C 442.29 144.09 442.06 130.21 442.27 116.34 Z" />
        <path fill="#e7efff" opacity="1.00"
            d=" M 224.70 181.67 C 232.28 173.07 243.52 167.77 255.01 167.61 C 266.92 167.24 278.86 172.31 286.85 181.15 C 293.77 188.64 297.75 198.73 297.86 208.92 C 297.92 216.86 297.91 224.79 297.87 232.73 C 291.67 232.73 285.46 232.74 279.26 232.72 C 279.27 224.82 279.31 216.93 279.25 209.04 C 279.18 201.77 275.43 194.67 269.48 190.50 C 262.49 185.38 252.54 184.77 244.98 188.98 C 237.68 192.80 232.80 200.77 232.75 209.02 C 232.70 216.92 232.72 224.82 232.74 232.72 C 226.54 232.74 220.33 232.73 214.13 232.73 C 214.09 224.81 214.08 216.88 214.13 208.96 C 214.22 198.98 218.03 189.09 224.70 181.67 Z" />
        <path fill="#e7efff" opacity="1.00"
            d=" M 252.24 266.12 C 257.79 263.37 265.08 267.77 265.23 273.95 C 265.42 283.28 265.28 292.62 265.31 301.95 C 265.48 305.70 263.34 309.45 259.87 310.99 C 255.85 312.93 250.59 311.40 248.22 307.62 C 246.66 305.42 246.65 302.62 246.67 300.03 C 246.71 291.69 246.64 283.35 246.70 275.01 C 246.53 271.26 248.80 267.61 252.24 266.12 Z" />
        <path fill="#e7efff" opacity="1.00"
            d=" M 88.48 363.18 C 96.21 362.87 103.96 363.17 111.70 363.04 C 111.77 369.69 111.62 376.34 111.77 382.98 C 112.18 391.96 120.00 399.79 128.97 400.22 C 135.63 400.34 142.29 400.22 148.95 400.28 C 148.84 408.01 149.12 415.77 148.82 423.50 C 130.76 423.62 112.69 423.42 94.62 423.60 C 92.32 421.48 90.19 419.20 87.97 417.00 C 88.31 415.33 88.48 413.65 88.46 411.96 C 88.45 395.70 88.38 379.44 88.48 363.18 Z" />
        <path fill="#e7efff" opacity="1.00"
            d=" M 400.30 363.04 C 408.03 363.16 415.78 362.88 423.51 363.17 C 423.65 381.24 423.49 399.32 423.59 417.39 C 421.52 419.60 419.39 421.75 417.18 423.81 C 399.20 423.14 381.17 423.75 363.17 423.50 C 362.89 415.76 363.15 408.01 363.05 400.27 C 369.70 400.22 376.34 400.34 382.99 400.22 C 391.97 399.80 399.79 391.98 400.22 383.01 C 400.38 376.35 400.23 369.70 400.30 363.04 Z" />
        <path fill="#e7efff" opacity="1.00"
            d=" M 167.60 400.27 C 176.88 400.27 186.16 400.27 195.44 400.27 C 195.44 404.15 195.69 408.04 195.36 411.92 C 191.09 415.23 187.23 419.56 186.48 425.13 C 184.63 434.52 191.29 444.46 200.64 446.40 C 208.07 448.19 216.37 444.82 220.42 438.33 C 224.72 431.87 224.25 422.72 219.34 416.72 C 217.88 414.84 215.84 413.56 214.19 411.88 C 213.95 408.01 214.16 404.14 214.09 400.27 C 224.97 400.27 235.85 400.26 246.72 400.28 C 246.57 413.41 246.82 426.54 246.61 439.67 C 244.52 441.90 241.79 443.58 240.26 446.32 C 236.81 451.72 236.47 458.94 239.44 464.63 C 242.48 470.72 249.12 474.85 255.94 474.78 C 262.82 474.88 269.55 470.78 272.57 464.59 C 275.88 458.25 275.01 450.04 270.46 444.54 C 269.00 442.69 266.96 441.43 265.39 439.70 C 265.18 426.56 265.42 413.42 265.28 400.28 C 276.16 400.26 287.03 400.27 297.90 400.27 C 297.84 404.13 298.04 408.00 297.81 411.86 C 295.45 414.14 292.61 416.05 291.07 419.05 C 287.11 425.76 288.05 434.91 293.33 440.65 C 298.56 446.71 307.90 448.62 315.09 445.09 C 323.56 441.35 327.99 430.74 324.72 422.08 C 323.39 417.78 320.00 414.69 316.64 411.92 C 316.32 408.04 316.55 404.15 316.57 400.27 C 325.84 400.27 335.12 400.27 344.40 400.27 C 344.53 411.16 344.35 422.06 344.48 432.96 C 344.37 438.00 348.97 442.40 354.00 442.16 C 367.87 442.30 381.74 442.06 395.62 442.28 C 366.56 463.85 332.60 478.90 296.90 485.10 C 254.22 492.75 209.39 488.18 169.20 471.88 C 150.32 464.49 132.74 454.12 116.33 442.28 C 130.24 442.06 144.15 442.30 158.05 442.16 C 163.05 442.38 167.58 438.00 167.52 433.01 C 167.66 422.10 167.47 411.18 167.60 400.27 Z" />
    </g>
    <g id="#a5bcedff">
        <path fill="#a5bced" opacity="1.00"
            d=" M 238.61 49.59 C 240.87 43.05 247.10 38.11 253.99 37.40 C 260.47 36.61 267.20 39.66 270.96 44.98 C 275.18 50.69 275.62 58.87 272.06 65.01 C 270.55 68.03 267.69 69.93 265.40 72.28 C 265.17 85.42 265.42 98.58 265.29 111.72 C 259.10 111.74 252.91 111.74 246.72 111.72 C 246.56 98.58 246.83 85.43 246.60 72.29 C 245.37 70.88 243.80 69.83 242.52 68.47 C 237.79 63.59 236.26 55.95 238.61 49.59 Z" />
        <path fill="#a5bced" opacity="1.00"
            d=" M 187.22 78.10 C 189.33 71.20 195.86 65.93 203.04 65.29 C 209.29 64.64 215.72 67.51 219.48 72.54 C 223.81 78.08 224.48 86.13 221.18 92.34 C 219.70 95.61 216.72 97.71 214.20 100.11 C 213.95 103.97 214.16 107.85 214.09 111.73 C 207.87 111.74 201.65 111.73 195.43 111.73 C 195.45 107.85 195.68 103.96 195.36 100.09 C 193.78 98.53 191.95 97.23 190.53 95.52 C 186.56 90.78 185.25 83.97 187.22 78.10 Z" />
        <path fill="#a5bced" opacity="1.00"
            d=" M 290.00 77.02 C 292.36 70.78 298.35 66.12 304.97 65.35 C 311.28 64.50 317.87 67.32 321.75 72.35 C 326.02 77.74 326.89 85.56 323.87 91.75 C 322.40 95.25 319.37 97.64 316.63 100.09 C 316.33 103.96 316.54 107.85 316.57 111.73 C 310.35 111.73 304.13 111.74 297.91 111.73 C 297.83 107.86 298.04 104.00 297.81 100.14 C 296.36 98.58 294.57 97.39 293.18 95.79 C 288.73 90.78 287.50 83.22 290.00 77.02 Z" />
        <path fill="#a5bced" opacity="1.00"
            d=" M 94.80 88.22 C 101.33 81.41 108.76 75.39 116.29 69.72 C 129.52 69.89 142.75 69.77 155.98 69.79 C 161.59 68.90 167.66 73.05 167.52 79.01 C 167.66 89.92 167.47 100.82 167.60 111.73 C 161.38 111.73 155.17 111.74 148.95 111.73 C 148.84 103.98 149.11 96.23 148.83 88.50 C 130.82 88.27 112.79 88.82 94.80 88.22 Z" />
        <path fill="#a5bced" opacity="1.00"
            d=" M 344.48 78.97 C 344.40 73.93 349.00 69.59 354.01 69.83 C 367.89 69.70 381.77 69.94 395.65 69.71 C 403.32 75.37 410.80 81.55 417.45 88.41 C 399.36 88.58 381.26 88.38 363.17 88.50 C 362.88 96.23 363.16 103.98 363.05 111.73 C 356.83 111.74 350.61 111.73 344.40 111.73 C 344.52 100.81 344.34 89.88 344.48 78.97 Z" />
        <path fill="#a5bced" opacity="1.00"
            d=" M 69.72 116.32 C 75.24 108.82 81.31 101.58 87.91 94.97 C 88.31 96.64 88.49 98.33 88.46 100.05 C 88.44 116.30 88.39 132.56 88.48 148.82 C 96.21 149.13 103.96 148.84 111.70 148.95 C 111.71 155.16 111.70 161.37 111.71 167.58 C 100.83 167.44 89.94 167.61 79.06 167.50 C 74.01 167.64 69.59 163.04 69.84 158.00 C 69.71 144.11 69.95 130.21 69.72 116.32 Z" />
        <path fill="#a5bced" opacity="1.00"
            d=" M 424.13 95.02 C 430.68 101.65 436.80 108.82 442.27 116.34 C 442.06 130.21 442.29 144.09 442.16 157.97 C 442.43 163.01 437.99 167.64 432.93 167.50 C 422.05 167.61 411.17 167.44 400.29 167.58 C 400.29 161.37 400.29 155.16 400.30 148.96 C 408.03 148.84 415.78 149.12 423.51 148.83 C 423.62 132.56 423.55 116.29 423.54 100.03 C 423.50 98.33 423.69 96.66 424.13 95.02 Z" />
        <path fill="#a5bced" opacity="1.00"
            d=" M 67.96 194.94 C 72.56 187.23 83.13 184.02 91.26 187.81 C 94.99 189.27 97.53 192.44 100.09 195.35 C 103.95 195.67 107.84 195.42 111.71 195.42 C 111.70 201.65 111.71 207.88 111.70 214.12 C 107.85 214.20 104.00 213.99 100.15 214.22 C 98.11 216.17 96.56 218.65 94.12 220.19 C 87.35 224.91 77.45 224.30 71.38 218.67 C 64.67 212.98 63.15 202.31 67.96 194.94 Z" />
        <path fill="#a5bced" opacity="1.00"
            d=" M 418.17 189.20 C 424.63 184.89 433.78 185.33 439.81 190.23 C 446.99 195.67 449.03 206.56 444.29 214.23 C 439.75 222.36 428.67 225.77 420.35 221.59 C 416.73 220.14 414.43 216.92 411.84 214.21 C 407.99 214.00 404.14 214.20 400.30 214.12 C 400.28 207.88 400.29 201.65 400.29 195.42 C 404.17 195.43 408.07 195.65 411.95 195.34 C 413.92 193.21 415.62 190.72 418.17 189.20 Z" />
        <path fill="#a5bced" opacity="1.00"
            d=" M 197.70 234.72 C 202.63 231.69 208.66 233.05 214.13 232.73 C 220.33 232.73 226.54 232.74 232.74 232.72 C 248.25 232.76 263.76 232.74 279.26 232.72 C 285.46 232.74 291.67 232.73 297.87 232.73 C 302.67 232.99 307.70 232.05 312.33 233.73 C 317.69 235.74 321.31 241.33 321.15 247.04 C 321.16 274.69 321.17 302.35 321.15 330.01 C 321.29 335.20 318.41 340.39 313.75 342.76 C 310.48 344.61 306.60 344.52 302.96 344.49 C 270.33 344.46 237.70 344.54 205.07 344.45 C 197.71 344.66 190.94 338.36 190.89 330.96 C 190.77 302.98 190.86 275.00 190.85 247.01 C 190.73 242.08 193.39 237.16 197.70 234.72 M 252.24 266.12 C 248.80 267.61 246.53 271.26 246.70 275.01 C 246.64 283.35 246.71 291.69 246.67 300.03 C 246.65 302.62 246.66 305.42 248.22 307.62 C 250.59 311.40 255.85 312.93 259.87 310.99 C 263.34 309.45 265.48 305.70 265.31 301.95 C 265.28 292.62 265.42 283.28 265.23 273.95 C 265.08 267.77 257.79 263.37 252.24 266.12 Z" />
        <path fill="#a5bced" opacity="1.00"
            d=" M 37.32 258.09 C 35.85 247.75 44.61 237.53 55.06 237.43 C 62.12 236.88 68.20 241.28 72.32 246.59 C 85.44 246.81 98.58 246.55 111.70 246.71 C 111.71 252.90 111.71 259.10 111.70 265.29 C 98.57 265.44 85.44 265.20 72.32 265.40 C 68.83 269.53 64.62 273.57 58.98 274.30 C 48.84 276.38 38.20 268.39 37.32 258.09 Z" />
        <path fill="#a5bced" opacity="1.00"
            d=" M 445.08 241.11 C 451.34 236.29 460.69 236.21 467.04 240.90 C 473.30 245.27 476.26 253.72 474.09 261.04 C 471.63 270.66 460.64 276.84 451.14 273.87 C 446.23 272.78 442.85 268.93 439.64 265.39 C 426.53 265.21 413.41 265.44 400.30 265.29 C 400.29 259.10 400.29 252.90 400.30 246.71 C 413.43 246.55 426.57 246.82 439.70 246.58 C 441.60 244.87 442.95 242.59 445.08 241.11 Z" />
        <path fill="#a5bced" opacity="1.00"
            d=" M 70.29 294.35 C 75.75 288.45 85.21 286.89 92.28 290.71 C 95.62 292.18 97.70 295.26 100.16 297.78 C 104.00 298.01 107.85 297.80 111.70 297.88 C 111.71 304.11 111.71 310.35 111.71 316.58 C 107.83 316.57 103.94 316.34 100.07 316.66 C 97.51 319.56 94.99 322.73 91.27 324.19 C 83.34 327.87 73.10 324.94 68.33 317.62 C 63.42 310.66 64.29 300.39 70.29 294.35 Z" />
        <path fill="#a5bced" opacity="1.00"
            d=" M 419.70 290.71 C 427.66 286.37 438.50 289.03 443.53 296.57 C 448.35 303.27 447.86 313.14 442.36 319.31 C 437.27 325.44 428.02 327.52 420.79 324.20 C 417.03 322.74 414.47 319.57 411.91 316.65 C 408.04 316.33 404.16 316.59 400.29 316.57 C 400.29 310.34 400.29 304.11 400.30 297.88 C 404.15 297.82 408.02 297.99 411.88 297.78 C 414.29 295.23 416.39 292.21 419.70 290.71 Z" />
        <path fill="#a5bced" opacity="1.00"
            d=" M 69.85 353.96 C 69.60 348.97 73.98 344.36 79.00 344.49 C 89.90 344.40 100.80 344.55 111.71 344.43 C 111.70 350.63 111.72 356.84 111.70 363.04 C 103.96 363.17 96.21 362.87 88.48 363.18 C 88.38 379.44 88.45 395.70 88.46 411.96 C 88.48 413.65 88.31 415.33 87.97 417.00 C 81.32 410.41 75.20 403.12 69.70 395.60 C 69.98 381.72 69.69 367.84 69.85 353.96 Z" />
        <path fill="#a5bced" opacity="1.00"
            d=" M 400.29 344.42 C 411.20 344.56 422.11 344.39 433.02 344.50 C 438.03 344.38 442.38 348.96 442.15 353.94 C 442.30 367.83 442.04 381.73 442.28 395.62 C 436.62 403.28 430.49 410.83 423.59 417.39 C 423.49 399.32 423.65 381.24 423.51 363.17 C 415.78 362.88 408.03 363.16 400.30 363.04 C 400.29 356.84 400.29 350.63 400.29 344.42 Z" />
        <path fill="#a5bced" opacity="1.00"
            d=" M 148.95 400.28 C 155.17 400.26 161.39 400.27 167.60 400.27 C 167.47 411.18 167.66 422.10 167.52 433.01 C 167.58 438.00 163.05 442.38 158.05 442.16 C 144.15 442.30 130.24 442.06 116.33 442.28 C 108.72 436.57 101.17 430.50 94.62 423.60 C 112.69 423.42 130.76 423.62 148.82 423.50 C 149.12 415.77 148.84 408.01 148.95 400.28 Z" />
        <path fill="#a5bced" opacity="1.00"
            d=" M 195.44 400.27 C 201.66 400.27 207.87 400.26 214.09 400.27 C 214.16 404.14 213.95 408.01 214.19 411.88 C 215.84 413.56 217.88 414.84 219.34 416.72 C 224.25 422.72 224.72 431.87 220.42 438.33 C 216.37 444.82 208.07 448.19 200.64 446.40 C 191.29 444.46 184.63 434.52 186.48 425.13 C 187.23 419.56 191.09 415.23 195.36 411.92 C 195.69 408.04 195.44 404.15 195.44 400.27 Z" />
        <path fill="#a5bced" opacity="1.00"
            d=" M 246.72 400.28 C 252.91 400.26 259.10 400.26 265.28 400.28 C 265.42 413.42 265.18 426.56 265.39 439.70 C 266.96 441.43 269.00 442.69 270.46 444.54 C 275.01 450.04 275.88 458.25 272.57 464.59 C 269.55 470.78 262.82 474.88 255.94 474.78 C 249.12 474.85 242.48 470.72 239.44 464.63 C 236.47 458.94 236.81 451.72 240.26 446.32 C 241.79 443.58 244.52 441.90 246.61 439.67 C 246.82 426.54 246.57 413.41 246.72 400.28 Z" />
        <path fill="#a5bced" opacity="1.00"
            d=" M 297.90 400.27 C 304.12 400.26 310.34 400.27 316.57 400.27 C 316.55 404.15 316.32 408.04 316.64 411.92 C 320.00 414.69 323.39 417.78 324.72 422.08 C 327.99 430.74 323.56 441.35 315.09 445.09 C 307.90 448.62 298.56 446.71 293.33 440.65 C 288.05 434.91 287.11 425.76 291.07 419.05 C 292.61 416.05 295.45 414.14 297.81 411.86 C 298.04 408.00 297.84 404.13 297.90 400.27 Z" />
        <path fill="#a5bced" opacity="1.00"
            d=" M 344.40 400.27 C 350.61 400.27 356.83 400.26 363.05 400.27 C 363.15 408.01 362.89 415.76 363.17 423.50 C 381.17 423.75 399.20 423.14 417.18 423.81 C 410.61 430.58 403.20 436.72 395.62 442.28 C 381.74 442.06 367.87 442.30 354.00 442.16 C 348.97 442.40 344.37 438.00 344.48 432.96 C 344.35 422.06 344.53 411.16 344.40 400.27 Z" />
    </g>
    <g id="#00c99fff">
        <path fill="#00c99f" opacity="1.00"
            d=" M 13.45 47.56 C 20.56 44.52 29.55 48.68 31.82 56.07 C 34.40 63.12 30.09 71.67 22.87 73.75 C 15.92 76.22 7.61 71.98 5.43 64.96 C 2.95 58.21 6.75 50.09 13.45 47.56 Z" />
        <path fill="#00c99f" opacity="1.00"
            d=" M 490.20 447.23 C 497.89 445.19 506.39 451.05 507.17 458.98 C 508.37 466.37 502.51 473.93 495.05 474.61 C 487.48 475.77 479.85 469.52 479.51 461.87 C 478.81 455.21 483.71 448.66 490.20 447.23 Z" />
    </g>
    <g id="#323fd4ff">
        <path fill="#323fd4" opacity="1.00"
            d=" M 111.87 127.98 C 112.76 119.41 120.36 112.19 128.97 111.78 C 135.63 111.66 142.29 111.77 148.95 111.73 C 155.17 111.74 161.38 111.73 167.60 111.73 C 176.88 111.73 186.16 111.73 195.43 111.73 C 201.65 111.73 207.87 111.74 214.09 111.73 C 224.97 111.73 235.85 111.74 246.72 111.72 C 252.91 111.74 259.10 111.74 265.29 111.72 C 276.16 111.74 287.04 111.73 297.91 111.73 C 304.13 111.74 310.35 111.73 316.57 111.73 C 325.84 111.73 335.12 111.73 344.40 111.73 C 350.61 111.73 356.83 111.74 363.05 111.73 C 369.69 111.77 376.35 111.67 383.00 111.77 C 391.97 112.18 399.79 120.01 400.22 128.98 C 400.39 135.64 400.23 142.30 400.30 148.96 C 400.29 155.16 400.29 161.37 400.29 167.58 C 400.28 176.86 400.28 186.14 400.29 195.42 C 400.29 201.65 400.28 207.88 400.30 214.12 C 400.28 224.98 400.28 235.85 400.30 246.71 C 400.29 252.90 400.29 259.10 400.30 265.29 C 400.28 276.15 400.28 287.01 400.30 297.88 C 400.29 304.11 400.29 310.34 400.29 316.57 C 400.28 325.86 400.28 335.14 400.29 344.42 C 400.29 350.63 400.29 356.84 400.30 363.04 C 400.23 369.70 400.38 376.35 400.22 383.01 C 399.79 391.98 391.97 399.80 382.99 400.22 C 376.34 400.34 369.70 400.22 363.05 400.27 C 356.83 400.26 350.61 400.27 344.40 400.27 C 335.12 400.27 325.84 400.27 316.57 400.27 C 310.34 400.27 304.12 400.26 297.90 400.27 C 287.03 400.27 276.16 400.26 265.28 400.28 C 259.10 400.26 252.91 400.26 246.72 400.28 C 235.85 400.26 224.97 400.27 214.09 400.27 C 207.87 400.26 201.66 400.27 195.44 400.27 C 186.16 400.27 176.88 400.27 167.60 400.27 C 161.39 400.27 155.17 400.26 148.95 400.28 C 142.29 400.22 135.63 400.34 128.97 400.22 C 120.00 399.79 112.18 391.96 111.77 382.98 C 111.62 376.34 111.77 369.69 111.70 363.04 C 111.72 356.84 111.70 350.63 111.71 344.43 C 111.72 335.15 111.71 325.86 111.71 316.58 C 111.71 310.35 111.71 304.11 111.70 297.88 C 111.72 287.02 111.72 276.16 111.70 265.29 C 111.71 259.10 111.71 252.90 111.70 246.71 C 111.72 235.84 111.72 224.98 111.70 214.12 C 111.71 207.88 111.70 201.65 111.71 195.42 C 111.71 186.14 111.71 176.86 111.71 167.58 C 111.70 161.37 111.71 155.16 111.70 148.95 C 111.82 141.96 111.51 134.96 111.87 127.98 M 172.22 135.13 C 159.74 147.35 147.38 159.73 135.15 172.19 C 134.74 186.09 135.10 200.04 134.97 213.96 C 135.00 266.64 134.93 319.32 135.01 372.00 C 134.73 374.71 137.15 377.23 139.89 376.97 C 217.28 377.02 294.67 377.02 372.06 376.97 C 375.31 377.31 377.52 374.03 377.03 371.04 C 377.00 294.01 377.07 216.98 376.99 139.96 C 377.30 136.71 374.03 134.43 371.01 134.99 C 304.75 135.10 238.47 134.81 172.22 135.13 Z" />
    </g>
    <g id="#4e6affff">
        <path fill="#4e6aff" opacity="1.00"
            d=" M 172.22 135.13 C 238.47 134.81 304.75 135.10 371.01 134.99 C 374.03 134.43 377.30 136.71 376.99 139.96 C 377.07 216.98 377.00 294.01 377.03 371.04 C 377.52 374.03 375.31 377.31 372.06 376.97 C 294.67 377.02 217.28 377.02 139.89 376.97 C 137.15 377.23 134.73 374.71 135.01 372.00 C 134.93 319.32 135.00 266.64 134.97 213.96 C 135.10 200.04 134.74 186.09 135.15 172.19 C 147.38 159.73 159.74 147.35 172.22 135.13 M 351.21 149.32 C 344.60 150.86 342.15 160.17 347.13 164.77 C 351.72 169.88 361.12 167.41 362.69 160.76 C 364.89 154.12 357.84 147.09 351.21 149.32 M 224.70 181.67 C 218.03 189.09 214.22 198.98 214.13 208.96 C 214.08 216.88 214.09 224.81 214.13 232.73 C 208.66 233.05 202.63 231.69 197.70 234.72 C 193.39 237.16 190.73 242.08 190.85 247.01 C 190.86 275.00 190.77 302.98 190.89 330.96 C 190.94 338.36 197.71 344.66 205.07 344.45 C 237.70 344.54 270.33 344.46 302.96 344.49 C 306.60 344.52 310.48 344.61 313.75 342.76 C 318.41 340.39 321.29 335.20 321.15 330.01 C 321.17 302.35 321.16 274.69 321.15 247.04 C 321.31 241.33 317.69 235.74 312.33 233.73 C 307.70 232.05 302.67 232.99 297.87 232.73 C 297.91 224.79 297.92 216.86 297.86 208.92 C 297.75 198.73 293.77 188.64 286.85 181.15 C 278.86 172.31 266.92 167.24 255.01 167.61 C 243.52 167.77 232.28 173.07 224.70 181.67 M 325.87 363.05 C 338.26 363.07 350.65 363.08 363.04 363.05 C 363.07 350.66 363.06 338.27 363.04 325.89 C 350.63 338.25 338.24 350.64 325.87 363.05 M 157.38 344.50 C 150.78 344.83 146.61 353.13 150.35 358.61 C 153.64 364.55 163.26 364.38 166.32 358.31 C 170.20 352.23 164.53 343.46 157.38 344.50 Z" />
        <path fill="#4e6aff" opacity="1.00"
            d=" M 244.98 188.98 C 252.54 184.77 262.49 185.38 269.48 190.50 C 275.43 194.67 279.18 201.77 279.25 209.04 C 279.31 216.93 279.27 224.82 279.26 232.72 C 263.76 232.74 248.25 232.76 232.74 232.72 C 232.72 224.82 232.70 216.92 232.75 209.02 C 232.80 200.77 237.68 192.80 244.98 188.98 Z" />
    </g>
    <g id="#8fa2ffff">
        <path fill="#8fa2ff" opacity="1.00"
            d=" M 351.21 149.32 C 357.84 147.09 364.89 154.12 362.69 160.76 C 361.12 167.41 351.72 169.88 347.13 164.77 C 342.15 160.17 344.60 150.86 351.21 149.32 Z" />
        <path fill="#8fa2ff" opacity="1.00"
            d=" M 157.38 344.50 C 164.53 343.46 170.20 352.23 166.32 358.31 C 163.26 364.38 153.64 364.55 150.35 358.61 C 146.61 353.13 150.78 344.83 157.38 344.50 Z" />
    </g>
    <g id="#ff4d69ff">
        <path fill="#ff4d69" opacity="1.00"
            d=" M 41.35 480.44 C 49.19 477.00 59.07 482.54 60.27 490.99 C 61.82 498.63 55.75 506.71 47.95 507.21 C 40.63 508.19 33.32 502.27 32.73 494.93 C 31.88 488.85 35.70 482.67 41.35 480.44 Z" />
    </g>
</svg>
