<?xml version="1.0" encoding="UTF-8" ?><!DOCTYPE svg PUBLIC "-//W3C//DTD SVG 1.1//EN"
    "http://www.w3.org/Graphics/SVG/1.1/DTD/svg11.dtd">
<svg width="512pt" height="512pt" viewBox="0 0 512 512" version="1.1"
    xmlns="http://www.w3.org/2000/svg">
    <g id="#00c99fff">
        <path fill="#00c99f" opacity="1.00"
            d=" M 479.37 5.49 C 487.11 2.46 496.58 7.92 497.77 16.15 C 499.42 23.98 493.04 32.23 485.01 32.45 C 477.74 33.17 470.65 27.22 470.23 19.91 C 469.48 13.74 473.57 7.54 479.37 5.49 Z" />
        <path fill="#00c99f" opacity="1.00"
            d=" M 37.33 480.26 C 45.14 477.30 54.66 482.86 55.64 491.21 C 57.08 498.87 50.84 506.87 43.04 507.25 C 35.47 508.09 28.08 501.63 28.02 493.99 C 27.60 487.98 31.65 482.14 37.33 480.26 Z" />
    </g>
    <g id="#a5bcedff">
        <path fill="#a5bced" opacity="1.00"
            d=" M 87.24 17.38 C 106.02 12.91 125.92 12.73 144.71 17.19 C 152.75 19.32 160.99 22.05 167.30 27.69 C 170.39 30.48 172.68 34.57 172.12 38.85 C 170.25 43.10 167.26 46.88 163.24 49.27 C 152.23 56.47 138.86 57.85 126.23 60.13 C 119.75 59.91 113.28 59.95 106.80 60.08 C 95.23 58.15 83.24 56.82 72.71 51.22 C 68.43 49.04 65.13 45.49 61.70 42.21 C 59.25 38.04 60.75 32.38 64.07 29.08 C 70.21 22.69 78.88 19.63 87.24 17.38 M 95.34 33.16 C 92.85 34.62 92.16 38.59 94.54 40.47 C 96.83 43.27 102.22 41.68 102.23 37.94 C 103.02 34.16 98.55 31.47 95.34 33.16 M 114.31 33.09 C 110.87 34.57 111.12 40.16 114.44 41.61 C 117.43 42.88 121.32 40.40 120.97 37.05 C 120.99 33.73 117.20 31.67 114.31 33.09 M 132.40 33.35 C 129.92 35.01 129.46 39.10 132.14 40.84 C 135.30 43.95 141.31 39.70 139.32 35.72 C 138.55 32.79 134.82 32.02 132.40 33.35 Z" />
        <path fill="#a5bced" opacity="1.00"
            d=" M 209.41 24.42 C 219.56 18.16 231.58 16.02 243.24 14.56 C 260.47 13.10 278.30 14.21 294.59 20.41 C 300.95 23.11 307.95 26.60 310.95 33.22 C 311.79 36.31 312.51 40.39 310.23 43.01 C 306.91 46.44 303.72 50.20 299.32 52.29 C 286.48 58.45 272.10 60.28 258.02 60.84 C 242.60 60.43 226.81 58.83 212.62 52.39 C 208.08 50.48 205.00 46.52 201.79 42.98 C 199.94 41.18 200.32 38.35 200.40 36.01 C 200.92 30.78 205.27 27.08 209.41 24.42 M 235.30 33.11 C 232.34 34.36 232.15 38.68 234.24 40.78 C 236.90 43.46 242.68 41.08 241.96 37.09 C 242.03 33.76 238.20 31.66 235.30 33.11 M 253.41 33.36 C 250.92 35.02 250.46 39.10 253.17 40.81 C 256.06 43.77 261.66 40.25 260.57 36.41 C 260.09 33.14 256.09 31.79 253.41 33.36 M 272.34 33.13 C 269.61 34.69 268.99 39.44 271.95 41.06 C 274.57 43.05 279.03 41.45 279.06 37.94 C 280.05 34.16 275.53 31.48 272.34 33.13 Z" />
        <path fill="#a5bced" opacity="1.00"
            d=" M 351.83 22.84 C 368.51 14.55 387.72 13.21 406.04 14.36 C 418.61 15.51 431.50 17.89 442.43 24.53 C 447.68 27.70 452.64 33.30 451.28 39.90 C 448.32 44.29 444.69 48.39 439.93 50.86 C 429.27 56.74 417.01 58.05 405.23 60.13 C 399.06 59.92 392.89 59.93 386.73 60.12 C 373.95 58.08 360.55 56.64 349.31 49.68 C 345.33 47.36 342.33 43.74 339.99 39.83 C 338.44 31.90 345.53 26.04 351.83 22.84 M 374.42 33.36 C 371.93 35.03 371.45 39.10 374.17 40.81 C 377.31 44.00 383.28 39.71 381.37 35.71 C 380.54 32.81 376.83 32.01 374.42 33.36 M 393.34 33.14 C 390.83 34.62 390.11 38.57 392.42 40.56 C 394.81 43.25 400.05 41.74 400.06 37.94 C 401.04 34.16 396.53 31.47 393.34 33.14 M 412.30 33.10 C 409.10 34.43 408.76 39.59 411.81 41.26 C 415.04 43.42 419.83 39.98 418.81 36.23 C 418.36 33.27 414.86 31.90 412.30 33.10 Z" />
        <path fill="#a5bced" opacity="1.00"
            d=" M 200.14 65.89 C 201.51 71.44 205.67 75.78 210.68 78.33 C 226.59 86.96 245.26 88.53 263.05 87.89 C 275.98 87.10 289.15 84.88 300.69 78.69 C 305.93 76.12 310.47 71.73 311.86 65.89 C 311.72 73.95 312.05 82.00 311.98 90.05 C 311.93 93.34 311.67 96.87 309.61 99.59 C 306.16 104.32 300.85 107.26 295.57 109.53 C 284.56 114.00 272.65 115.75 260.83 116.27 C 257.61 116.31 254.39 116.31 251.16 116.27 C 237.42 115.62 223.31 113.51 211.06 106.90 C 205.87 103.97 200.36 99.48 200.17 93.02 C 199.72 83.98 200.38 74.93 200.14 65.89 Z" />
        <path fill="#a5bced" opacity="1.00"
            d=" M 148.80 83.76 C 157.88 81.09 167.45 76.73 171.99 67.89 C 171.98 75.61 172.28 83.32 172.15 91.04 C 172.06 93.84 171.92 96.86 170.19 99.21 C 166.48 104.40 160.70 107.62 154.88 109.92 C 142.58 114.72 129.27 116.24 116.15 116.29 C 113.09 116.26 110.03 116.20 106.97 116.10 C 100.74 115.54 94.55 114.62 88.42 113.43 C 79.50 110.67 69.83 107.82 63.48 100.54 C 59.85 96.59 60.57 90.93 60.55 86.00 C 60.71 80.95 60.07 75.83 61.11 70.85 C 64.81 75.63 69.78 79.35 75.39 81.61 C 87.25 86.47 100.15 88.44 112.91 88.70 C 124.95 87.87 137.17 87.30 148.80 83.76 Z" />
        <path fill="#a5bced" opacity="1.00"
            d=" M 340.01 67.90 C 342.59 72.49 346.35 76.45 351.06 78.87 C 363.62 85.50 378.00 87.33 391.99 88.20 C 401.48 89.62 411.10 88.23 420.46 86.57 C 431.91 83.99 444.31 79.97 451.27 69.83 C 451.57 77.55 451.47 85.29 451.39 93.01 C 451.40 97.53 448.43 101.34 445.00 103.96 C 438.72 108.75 431.08 111.24 423.59 113.41 C 417.45 114.62 411.26 115.54 405.03 116.09 C 401.97 116.20 398.91 116.25 395.85 116.29 C 380.55 116.16 364.68 114.30 351.00 107.00 C 346.17 104.07 340.47 100.21 340.04 94.02 C 339.48 85.33 340.10 76.60 340.01 67.90 Z" />
        <path fill="#a5bced" opacity="1.00"
            d=" M 142.43 214.46 C 146.50 213.71 150.73 213.84 154.83 214.30 C 159.19 214.86 159.30 222.48 154.88 223.07 C 150.19 223.59 145.20 223.90 140.67 222.35 C 139.56 219.77 139.08 215.53 142.43 214.46 Z" />
        <path fill="#a5bced" opacity="1.00"
            d=" M 180.30 214.36 C 184.35 213.79 188.54 213.73 192.58 214.44 C 195.88 215.50 195.90 219.79 194.30 222.29 C 189.83 224.03 184.79 223.53 180.12 223.06 C 175.70 222.45 175.89 214.84 180.30 214.36 Z" />
        <path fill="#a5bced" opacity="1.00"
            d=" M 317.68 382.69 C 322.19 381.08 327.18 381.42 331.86 381.99 C 336.18 382.65 336.10 390.07 331.85 390.73 C 327.72 391.23 323.47 391.35 319.35 390.65 C 316.08 389.47 316.20 385.24 317.68 382.69 Z" />
        <path fill="#a5bced" opacity="1.00"
            d=" M 356.29 382.19 C 360.41 381.30 364.73 381.40 368.90 381.97 C 373.03 382.55 373.42 389.26 369.61 390.63 C 365.52 391.34 361.28 391.25 357.18 390.73 C 353.08 390.26 352.67 383.62 356.29 382.19 Z" />
    </g>
    <g id="#feffffff">
        <path fill="#feffff" opacity="1.00"
            d=" M 95.34 33.16 C 98.55 31.47 103.02 34.16 102.23 37.94 C 102.22 41.68 96.83 43.27 94.54 40.47 C 92.16 38.59 92.85 34.62 95.34 33.16 Z" />
        <path fill="#feffff" opacity="1.00"
            d=" M 114.31 33.09 C 117.20 31.67 120.99 33.73 120.97 37.05 C 121.32 40.40 117.43 42.88 114.44 41.61 C 111.12 40.16 110.87 34.57 114.31 33.09 Z" />
        <path fill="#feffff" opacity="1.00"
            d=" M 235.30 33.11 C 238.20 31.66 242.03 33.76 241.96 37.09 C 242.68 41.08 236.90 43.46 234.24 40.78 C 232.15 38.68 232.34 34.36 235.30 33.11 Z" />
        <path fill="#feffff" opacity="1.00"
            d=" M 272.34 33.13 C 275.53 31.48 280.05 34.16 279.06 37.94 C 279.03 41.45 274.57 43.05 271.95 41.06 C 268.99 39.44 269.61 34.69 272.34 33.13 Z" />
        <path fill="#feffff" opacity="1.00"
            d=" M 393.34 33.14 C 396.53 31.47 401.04 34.16 400.06 37.94 C 400.05 41.74 394.81 43.25 392.42 40.56 C 390.11 38.57 390.83 34.62 393.34 33.14 Z" />
        <path fill="#feffff" opacity="1.00"
            d=" M 412.30 33.10 C 414.86 31.90 418.36 33.27 418.81 36.23 C 419.83 39.98 415.04 43.42 411.81 41.26 C 408.76 39.59 409.10 34.43 412.30 33.10 Z" />
    </g>
    <g id="#ffffffff">
        <path fill="#ffffff" opacity="1.00"
            d=" M 132.40 33.35 C 134.82 32.02 138.55 32.79 139.32 35.72 C 141.31 39.70 135.30 43.95 132.14 40.84 C 129.46 39.10 129.92 35.01 132.40 33.35 Z" />
        <path fill="#ffffff" opacity="1.00"
            d=" M 253.41 33.36 C 256.09 31.79 260.09 33.14 260.57 36.41 C 261.66 40.25 256.06 43.77 253.17 40.81 C 250.46 39.10 250.92 35.02 253.41 33.36 Z" />
        <path fill="#ffffff" opacity="1.00"
            d=" M 374.42 33.36 C 376.83 32.01 380.54 32.81 381.37 35.71 C 383.28 39.71 377.31 44.00 374.17 40.81 C 371.45 39.10 371.93 35.03 374.42 33.36 Z" />
        <path fill="#ffffff" opacity="1.00"
            d=" M 128.43 195.61 C 129.07 195.54 130.34 195.40 130.97 195.33 C 211.98 195.35 292.99 195.37 374.00 195.32 C 378.69 195.45 384.29 194.30 387.94 198.06 C 390.66 200.17 391.06 203.76 391.02 206.95 C 390.91 271.32 391.08 335.69 390.94 400.05 C 391.22 405.44 386.33 409.97 381.03 409.67 C 300.02 409.66 219.01 409.64 138.01 409.68 C 133.30 409.54 127.70 410.70 123.98 407.01 C 121.31 404.85 120.97 401.22 120.98 398.04 C 121.06 334.01 120.99 269.97 121.01 205.94 C 120.53 201.21 123.89 196.74 128.43 195.61 M 142.43 214.46 C 139.08 215.53 139.56 219.77 140.67 222.35 C 145.20 223.90 150.19 223.59 154.88 223.07 C 159.30 222.48 159.19 214.86 154.83 214.30 C 150.73 213.84 146.50 213.71 142.43 214.46 M 180.30 214.36 C 175.89 214.84 175.70 222.45 180.12 223.06 C 184.79 223.53 189.83 224.03 194.30 222.29 C 195.90 219.79 195.88 215.50 192.58 214.44 C 188.54 213.73 184.35 213.79 180.30 214.36 M 244.41 233.39 C 239.38 236.75 244.24 244.40 240.51 248.53 C 237.27 250.64 233.56 251.96 229.88 253.10 C 226.47 254.43 224.23 250.91 222.08 248.93 C 220.21 247.02 217.64 244.18 214.71 245.73 C 210.40 248.65 207.26 252.95 203.39 256.39 C 201.49 258.53 198.34 260.63 198.90 263.89 C 200.37 268.09 205.40 269.96 206.76 274.20 C 206.36 278.50 204.18 282.49 202.30 286.33 C 198.81 291.61 190.34 285.72 186.88 290.95 C 185.51 295.81 186.51 301.01 186.19 306.01 C 186.43 309.40 185.27 314.06 188.79 316.16 C 192.83 317.52 197.55 315.57 201.42 317.52 C 204.08 320.89 205.46 325.15 206.75 329.20 C 207.64 332.70 203.95 334.75 201.95 336.95 C 199.86 338.70 197.57 341.72 199.59 344.38 C 202.76 348.51 206.88 351.78 210.38 355.63 C 212.37 357.46 214.53 360.40 217.62 359.59 C 221.74 357.92 223.62 352.84 228.02 351.74 C 232.18 352.43 236.08 354.32 239.81 356.23 C 242.66 357.69 241.76 361.40 242.02 364.01 C 242.08 366.82 241.57 371.14 245.16 371.99 C 250.73 372.78 256.40 372.18 262.02 372.38 C 264.47 372.22 267.72 372.70 269.24 370.26 C 271.03 366.12 268.74 360.98 271.12 357.07 C 274.73 354.70 278.88 353.09 283.06 352.02 C 288.84 351.61 290.66 360.55 296.62 359.59 C 300.47 357.68 302.94 353.92 306.09 351.10 C 308.51 348.47 311.75 346.31 313.08 342.89 C 313.64 337.15 305.57 335.40 305.23 330.01 C 306.36 325.65 307.98 321.22 310.60 317.54 C 313.72 315.89 317.54 316.99 320.95 316.60 C 323.57 316.84 325.72 314.38 325.67 311.86 C 325.97 306.90 325.70 301.93 325.81 296.97 C 325.68 294.34 326.17 290.97 323.64 289.28 C 319.49 287.60 314.34 290.07 310.59 287.41 C 308.05 283.70 306.36 279.34 305.28 274.99 C 305.77 269.92 312.62 268.10 313.16 263.00 C 312.74 259.46 309.29 257.39 307.09 254.90 C 303.56 251.81 300.84 247.62 296.61 245.44 C 290.57 244.46 288.83 253.59 283.02 253.24 C 278.87 252.01 274.62 250.51 271.07 247.98 C 268.75 244.02 271.07 238.88 269.19 234.78 C 267.04 231.99 263.06 232.87 260.00 232.64 C 254.82 232.92 249.46 231.98 244.41 233.39 M 317.68 382.69 C 316.20 385.24 316.08 389.47 319.35 390.65 C 323.47 391.35 327.72 391.23 331.85 390.73 C 336.10 390.07 336.18 382.65 331.86 381.99 C 327.18 381.42 322.19 381.08 317.68 382.69 M 356.29 382.19 C 352.67 383.62 353.08 390.26 357.18 390.73 C 361.28 391.25 365.52 391.34 369.61 390.63 C 373.42 389.26 373.03 382.55 368.90 381.97 C 364.73 381.40 360.41 381.30 356.29 382.19 Z" />
        <path fill="#ffffff" opacity="1.00"
            d=" M 249.35 275.43 C 261.62 272.18 275.44 278.63 280.94 290.04 C 286.34 300.52 284.14 314.39 275.47 322.46 C 267.52 330.55 254.44 332.71 244.25 327.85 C 234.11 323.21 227.33 312.16 228.17 300.98 C 228.57 288.99 237.72 278.15 249.35 275.43 Z" />
    </g>
    <g id="#7f96d1ff">
        <path fill="#7f96d1" opacity="1.00"
            d=" M 163.24 49.27 C 167.26 46.88 170.25 43.10 172.12 38.85 C 172.26 44.99 172.22 51.13 172.49 57.26 C 172.33 60.80 172.14 64.35 171.99 67.89 C 167.45 76.73 157.88 81.09 148.80 83.76 C 137.17 87.30 124.95 87.87 112.91 88.70 C 100.15 88.44 87.25 86.47 75.39 81.61 C 69.78 79.35 64.81 75.63 61.11 70.85 C 60.33 66.62 60.65 62.28 60.56 58.00 C 60.69 52.60 60.25 47.18 60.86 41.81 L 61.70 42.21 C 65.13 45.49 68.43 49.04 72.71 51.22 C 83.24 56.82 95.23 58.15 106.80 60.08 C 113.20 61.35 119.84 61.56 126.23 60.13 C 138.86 57.85 152.23 56.47 163.24 49.27 Z" />
        <path fill="#7f96d1" opacity="1.00"
            d=" M 339.99 39.83 C 342.33 43.74 345.33 47.36 349.31 49.68 C 360.55 56.64 373.95 58.08 386.73 60.12 C 392.83 61.29 399.14 61.55 405.23 60.13 C 417.01 58.05 429.27 56.74 439.93 50.86 C 444.69 48.39 448.32 44.29 451.28 39.90 C 451.49 49.87 451.59 59.86 451.27 69.83 C 444.31 79.97 431.91 83.99 420.46 86.57 C 411.10 88.23 401.48 89.62 391.99 88.20 C 378.00 87.33 363.62 85.50 351.06 78.87 C 346.35 76.45 342.59 72.49 340.01 67.90 C 339.84 64.34 339.66 60.79 339.50 57.23 C 339.79 51.44 339.66 45.63 339.99 39.83 Z" />
        <path fill="#7f96d1" opacity="1.00"
            d=" M 200.80 42.84 L 201.79 42.98 C 205.00 46.52 208.08 50.48 212.62 52.39 C 226.81 58.83 242.60 60.43 258.02 60.84 C 272.10 60.28 286.48 58.45 299.32 52.29 C 303.72 50.20 306.91 46.44 310.23 43.01 L 311.19 42.88 C 311.65 44.88 311.86 46.94 311.90 48.99 C 311.90 54.62 312.02 60.26 311.86 65.89 C 310.47 71.73 305.93 76.12 300.69 78.69 C 289.15 84.88 275.98 87.10 263.05 87.89 C 245.26 88.53 226.59 86.96 210.68 78.33 C 205.67 75.78 201.51 71.44 200.14 65.89 C 199.96 60.29 200.12 54.69 200.15 49.09 C 200.18 46.99 200.36 44.89 200.80 42.84 Z" />
    </g>
    <g id="#e7efffff">
        <path fill="#e7efff" opacity="1.00"
            d=" M 172.49 57.26 C 181.62 54.32 190.60 50.39 200.15 49.09 C 200.12 54.69 199.96 60.29 200.14 65.89 C 200.38 74.93 199.72 83.98 200.17 93.02 C 200.36 99.48 205.87 103.97 211.06 106.90 C 223.31 113.51 237.42 115.62 251.16 116.27 C 251.19 124.02 251.97 131.86 250.84 139.56 C 211.55 139.85 172.24 139.52 132.94 139.72 C 128.01 139.90 122.66 138.56 119.54 134.46 C 115.19 129.44 116.53 122.39 116.15 116.29 C 129.27 116.24 142.58 114.72 154.88 109.92 C 160.70 107.62 166.48 104.40 170.19 99.21 C 171.92 96.86 172.06 93.84 172.15 91.04 C 172.28 83.32 171.98 75.61 171.99 67.89 C 172.14 64.35 172.33 60.80 172.49 57.26 Z" />
        <path fill="#e7efff" opacity="1.00"
            d=" M 311.90 48.99 C 321.38 50.59 330.45 54.08 339.50 57.23 C 339.66 60.79 339.84 64.34 340.01 67.90 C 340.10 76.60 339.48 85.33 340.04 94.02 C 340.47 100.21 346.17 104.07 351.00 107.00 C 364.68 114.30 380.55 116.16 395.85 116.29 C 395.47 122.39 396.81 129.44 392.45 134.46 C 389.33 138.56 383.98 139.90 379.06 139.72 C 339.76 139.53 300.45 139.85 261.16 139.56 C 260.01 131.86 260.82 124.02 260.83 116.27 C 272.65 115.75 284.56 114.00 295.57 109.53 C 300.85 107.26 306.16 104.32 309.61 99.59 C 311.67 96.87 311.93 93.34 311.98 90.05 C 312.05 82.00 311.72 73.95 311.86 65.89 C 312.02 60.26 311.90 54.62 311.90 48.99 Z" />
        <path fill="#e7efff" opacity="1.00"
            d=" M 26.40 236.61 C 33.99 190.57 55.67 146.73 88.42 113.43 C 94.55 114.62 100.74 115.54 106.97 116.10 C 107.12 122.64 106.34 129.60 109.32 135.67 C 113.12 143.85 121.93 149.19 130.93 148.95 C 169.63 148.97 208.33 149.00 247.03 148.92 C 248.35 148.94 249.68 149.03 251.00 149.19 C 251.81 156.80 251.25 164.49 251.16 172.13 C 210.42 172.06 169.69 172.15 128.96 172.09 C 122.62 172.02 116.03 173.02 110.66 176.60 C 103.92 180.86 99.11 188.13 98.13 196.07 C 97.40 202.02 97.72 208.02 97.67 214.00 C 97.67 276.33 97.69 338.66 97.66 400.99 C 97.65 407.27 98.22 413.89 101.70 419.32 C 105.72 426.19 112.83 430.49 120.21 432.94 C 108.79 432.91 97.36 432.83 85.94 433.09 C 83.32 431.05 81.37 428.31 79.18 425.85 C 61.31 404.99 47.15 380.96 37.64 355.19 C 23.75 317.52 19.75 276.22 26.40 236.61 Z" />
        <path fill="#e7efff" opacity="1.00"
            d=" M 405.03 116.09 C 411.26 115.54 417.45 114.62 423.59 113.41 C 452.50 142.88 472.87 180.58 482.38 220.73 C 491.53 259.16 490.79 299.93 479.93 337.92 C 470.18 372.69 452.07 405.03 427.70 431.66 C 427.29 432.03 426.47 432.76 426.06 433.12 C 414.30 432.95 402.54 432.96 390.79 432.95 C 398.17 431.02 405.25 427.04 409.51 420.53 C 413.52 414.87 414.42 407.76 414.34 400.99 C 414.29 334.67 414.37 268.34 414.31 202.02 C 414.55 193.74 411.57 185.26 405.31 179.67 C 399.68 174.24 391.74 171.97 384.05 172.11 C 342.99 172.12 301.92 172.08 260.85 172.13 C 260.75 164.49 260.18 156.80 261.00 149.20 C 262.32 149.03 263.64 148.94 264.97 148.93 C 300.32 149.02 335.66 148.93 371.00 148.98 C 375.89 148.95 380.81 149.25 385.66 148.54 C 395.11 147.12 403.11 139.10 404.54 129.65 C 405.20 125.16 404.98 120.61 405.03 116.09 Z" />
        <path fill="#e7efff" opacity="1.00"
            d=" M 145.88 479.47 C 170.91 479.20 195.96 479.42 221.00 479.35 C 269.37 479.44 317.75 479.16 366.13 479.49 C 330.56 499.07 289.56 508.43 249.02 507.23 C 213.16 506.02 177.35 496.84 145.88 479.47 Z" />
    </g>
    <g id="#6c7fadd0">
        <path fill="#6c7fad" opacity="0.82"
            d=" M 106.80 60.08 C 113.28 59.95 119.75 59.91 126.23 60.13 C 119.84 61.56 113.20 61.35 106.80 60.08 Z" />
    </g>
    <g id="#6c7eaccf">
        <path fill="#6c7eac" opacity="0.81"
            d=" M 386.73 60.12 C 392.89 59.93 399.06 59.92 405.23 60.13 C 399.14 61.55 392.83 61.29 386.73 60.12 Z" />
    </g>
    <g id="#ff4d69ff">
        <path fill="#ff4d69" opacity="1.00"
            d=" M 15.40 65.55 C 22.98 63.56 31.46 69.15 32.32 77.00 C 33.83 84.93 27.10 93.11 19.00 93.00 C 11.38 93.48 4.37 86.62 4.70 79.00 C 4.56 72.72 9.37 66.97 15.40 65.55 Z" />
    </g>
    <g id="#ffa100ff">
        <path fill="#ffa100" opacity="1.00"
            d=" M 106.97 116.10 C 110.03 116.20 113.09 116.26 116.15 116.29 C 116.53 122.39 115.19 129.44 119.54 134.46 C 122.66 138.56 128.01 139.90 132.94 139.72 C 172.24 139.52 211.55 139.85 250.84 139.56 C 251.97 131.86 251.19 124.02 251.16 116.27 C 254.39 116.31 257.61 116.31 260.83 116.27 C 260.82 124.02 260.01 131.86 261.16 139.56 C 300.45 139.85 339.76 139.53 379.06 139.72 C 383.98 139.90 389.33 138.56 392.45 134.46 C 396.81 129.44 395.47 122.39 395.85 116.29 C 398.91 116.25 401.97 116.20 405.03 116.09 C 404.98 120.61 405.20 125.16 404.54 129.65 C 403.11 139.10 395.11 147.12 385.66 148.54 C 380.81 149.25 375.89 148.95 371.00 148.98 C 335.66 148.93 300.32 149.02 264.97 148.93 C 263.64 148.94 262.32 149.03 261.00 149.20 C 260.18 156.80 260.75 164.49 260.85 172.13 C 257.62 172.21 254.38 172.21 251.16 172.13 C 251.25 164.49 251.81 156.80 251.00 149.19 C 249.68 149.03 248.35 148.94 247.03 148.92 C 208.33 149.00 169.63 148.97 130.93 148.95 C 121.93 149.19 113.12 143.85 109.32 135.67 C 106.34 129.60 107.12 122.64 106.97 116.10 Z" />
        <path fill="#ffa100" opacity="1.00"
            d=" M 490.40 442.54 C 497.93 440.64 506.19 446.32 507.12 454.02 C 508.65 461.88 501.99 469.97 494.00 470.01 C 486.31 470.61 479.18 463.70 479.51 456.00 C 479.38 449.65 484.21 443.80 490.40 442.54 Z" />
    </g>
    <g id="#8fa2ffff">
        <path fill="#8fa2ff" opacity="1.00"
            d=" M 110.66 176.60 C 116.03 173.02 122.62 172.02 128.96 172.09 C 169.69 172.15 210.42 172.06 251.16 172.13 C 254.38 172.21 257.62 172.21 260.85 172.13 C 301.92 172.08 342.99 172.12 384.05 172.11 C 391.74 171.97 399.68 174.24 405.31 179.67 C 411.57 185.26 414.55 193.74 414.31 202.02 C 414.37 268.34 414.29 334.67 414.34 400.99 C 414.42 407.76 413.52 414.87 409.51 420.53 C 405.25 427.04 398.17 431.02 390.79 432.95 C 359.86 433.24 328.93 433.01 298.01 433.06 C 270.00 432.92 242.00 432.89 214.00 433.05 C 182.73 432.99 151.47 433.24 120.21 432.94 C 112.83 430.49 105.72 426.19 101.70 419.32 C 98.22 413.89 97.65 407.27 97.66 400.99 C 97.69 338.66 97.67 276.33 97.67 214.00 C 97.72 208.02 97.40 202.02 98.13 196.07 C 99.11 188.13 103.92 180.86 110.66 176.60 M 128.43 195.61 C 123.89 196.74 120.53 201.21 121.01 205.94 C 120.99 269.97 121.06 334.01 120.98 398.04 C 120.97 401.22 121.31 404.85 123.98 407.01 C 127.70 410.70 133.30 409.54 138.01 409.68 C 219.01 409.64 300.02 409.66 381.03 409.67 C 386.33 409.97 391.22 405.44 390.94 400.05 C 391.08 335.69 390.91 271.32 391.02 206.95 C 391.06 203.76 390.66 200.17 387.94 198.06 C 384.29 194.30 378.69 195.45 374.00 195.32 C 292.99 195.37 211.98 195.35 130.97 195.33 C 130.34 195.40 129.07 195.54 128.43 195.61 Z" />
    </g>
    <g id="#4e6affff">
        <path fill="#4e6aff" opacity="1.00"
            d=" M 244.41 233.39 C 249.46 231.98 254.82 232.92 260.00 232.64 C 263.06 232.87 267.04 231.99 269.19 234.78 C 271.07 238.88 268.75 244.02 271.07 247.98 C 274.62 250.51 278.87 252.01 283.02 253.24 C 288.83 253.59 290.57 244.46 296.61 245.44 C 300.84 247.62 303.56 251.81 307.09 254.90 C 309.29 257.39 312.74 259.46 313.16 263.00 C 312.62 268.10 305.77 269.92 305.28 274.99 C 306.36 279.34 308.05 283.70 310.59 287.41 C 314.34 290.07 319.49 287.60 323.64 289.28 C 326.17 290.97 325.68 294.34 325.81 296.97 C 325.70 301.93 325.97 306.90 325.67 311.86 C 325.72 314.38 323.57 316.84 320.95 316.60 C 317.54 316.99 313.72 315.89 310.60 317.54 C 307.98 321.22 306.36 325.65 305.23 330.01 C 305.57 335.40 313.64 337.15 313.08 342.89 C 311.75 346.31 308.51 348.47 306.09 351.10 C 302.94 353.92 300.47 357.68 296.62 359.59 C 290.66 360.55 288.84 351.61 283.06 352.02 C 278.88 353.09 274.73 354.70 271.12 357.07 C 268.74 360.98 271.03 366.12 269.24 370.26 C 267.72 372.70 264.47 372.22 262.02 372.38 C 256.40 372.18 250.73 372.78 245.16 371.99 C 241.57 371.14 242.08 366.82 242.02 364.01 C 241.76 361.40 242.66 357.69 239.81 356.23 C 236.08 354.32 232.18 352.43 228.02 351.74 C 223.62 352.84 221.74 357.92 217.62 359.59 C 214.53 360.40 212.37 357.46 210.38 355.63 C 206.88 351.78 202.76 348.51 199.59 344.38 C 197.57 341.72 199.86 338.70 201.95 336.95 C 203.95 334.75 207.64 332.70 206.75 329.20 C 205.46 325.15 204.08 320.89 201.42 317.52 C 197.55 315.57 192.83 317.52 188.79 316.16 C 185.27 314.06 186.43 309.40 186.19 306.01 C 186.51 301.01 185.51 295.81 186.88 290.95 C 190.34 285.72 198.81 291.61 202.30 286.33 C 204.18 282.49 206.36 278.50 206.76 274.20 C 205.40 269.96 200.37 268.09 198.90 263.89 C 198.34 260.63 201.49 258.53 203.39 256.39 C 207.26 252.95 210.40 248.65 214.71 245.73 C 217.64 244.18 220.21 247.02 222.08 248.93 C 224.23 250.91 226.47 254.43 229.88 253.10 C 233.56 251.96 237.27 250.64 240.51 248.53 C 244.24 244.40 239.38 236.75 244.41 233.39 M 249.35 275.43 C 237.72 278.15 228.57 288.99 228.17 300.98 C 227.33 312.16 234.11 323.21 244.25 327.85 C 254.44 332.71 267.52 330.55 275.47 322.46 C 284.14 314.39 286.34 300.52 280.94 290.04 C 275.44 278.63 261.62 272.18 249.35 275.43 Z" />
        <path fill="#4e6aff" opacity="1.00"
            d=" M 85.94 433.09 C 97.36 432.83 108.79 432.91 120.21 432.94 C 151.47 433.24 182.73 432.99 214.00 433.05 C 214.21 438.34 212.77 444.82 217.09 448.88 C 219.61 451.62 223.63 451.24 227.01 451.39 C 247.35 451.23 267.69 451.44 288.03 451.30 C 292.30 451.62 296.45 448.77 297.50 444.60 C 298.30 440.81 298.00 436.90 298.01 433.06 C 328.93 433.01 359.86 433.24 390.79 432.95 C 402.54 432.96 414.30 432.95 426.06 433.12 C 420.40 440.35 413.28 446.31 406.43 452.38 C 394.90 462.19 382.36 470.79 369.18 478.23 C 368.20 478.72 367.22 479.28 366.13 479.49 C 317.75 479.16 269.37 479.44 221.00 479.35 C 195.96 479.42 170.91 479.20 145.88 479.47 C 145.02 479.28 144.21 478.97 143.45 478.54 C 123.04 467.17 104.24 452.84 88.11 435.91 C 87.32 435.01 86.60 434.06 85.94 433.09 Z" />
    </g>
    <g id="#323fd4ff">
        <path fill="#323fd4" opacity="1.00"
            d=" M 214.00 433.05 C 242.00 432.89 270.00 432.92 298.01 433.06 C 298.00 436.90 298.30 440.81 297.50 444.60 C 296.45 448.77 292.30 451.62 288.03 451.30 C 267.69 451.44 247.35 451.23 227.01 451.39 C 223.63 451.24 219.61 451.62 217.09 448.88 C 212.77 444.82 214.21 438.34 214.00 433.05 Z" />
    </g>
</svg>
