<?xml version="1.0" encoding="UTF-8" ?><!DOCTYPE svg PUBLIC "-//W3C//DTD SVG 1.1//EN"
    "http://www.w3.org/Graphics/SVG/1.1/DTD/svg11.dtd">
<svg width="512pt" height="512pt" viewBox="0 0 512 512" version="1.1"
    xmlns="http://www.w3.org/2000/svg">
    <g id="#00c99fff">
        <path fill="#00c99f" opacity="1.00"
            d=" M 446.37 5.66 C 453.45 2.65 462.35 6.76 464.66 14.08 C 467.27 21.11 463.05 29.65 455.88 31.83 C 448.85 34.38 440.41 30.10 438.26 22.96 C 435.85 16.22 439.68 8.14 446.37 5.66 Z" />
        <path fill="#00c99f" opacity="1.00"
            d=" M 55.31 480.45 C 62.47 477.35 71.56 481.60 73.76 489.09 C 76.33 496.34 71.61 505.06 64.12 506.82 C 57.00 508.95 48.83 504.22 47.07 497.02 C 45.11 490.43 48.92 482.91 55.31 480.45 Z" />
    </g>
    <g id="#323fd4ff">
        <path fill="#323fd4" opacity="1.00"
            d=" M 297.97 31.93 C 298.11 27.30 302.34 23.32 306.95 23.32 C 322.31 23.21 337.68 23.29 353.04 23.28 C 357.61 22.95 362.15 26.28 362.85 30.88 C 363.39 36.92 362.79 43.00 363.14 49.05 C 363.36 52.83 366.26 56.07 369.84 57.12 C 376.93 59.37 383.80 62.27 390.40 65.68 C 393.65 67.48 397.96 67.26 400.82 64.82 C 405.22 60.89 409.08 56.40 413.46 52.45 C 416.97 49.34 422.78 49.71 425.99 53.10 C 436.85 63.89 447.66 74.73 458.48 85.56 C 462.09 88.78 462.64 94.84 459.34 98.48 C 455.44 102.81 451.03 106.68 447.09 110.97 C 444.51 113.90 444.36 118.39 446.30 121.70 C 449.70 128.25 452.47 135.11 454.74 142.13 C 455.77 145.76 459.09 148.68 462.91 148.86 C 468.63 149.12 474.37 148.73 480.09 149.02 C 484.69 149.19 488.64 153.34 488.67 157.93 C 488.79 173.30 488.70 188.67 488.72 204.04 C 489.11 209.04 485.05 213.92 479.97 214.05 C 474.03 214.32 468.08 213.96 462.14 214.19 C 458.80 214.95 455.86 217.33 454.88 220.68 C 452.54 227.77 449.74 234.70 446.31 241.34 C 444.48 244.61 444.62 248.97 447.16 251.83 C 451.05 256.25 455.61 260.03 459.49 264.46 C 462.09 267.39 462.43 272.06 460.25 275.32 C 458.63 277.64 456.45 279.49 454.48 281.51 C 446.31 289.67 438.13 297.83 429.98 306.01 C 428.15 307.82 426.44 309.78 424.30 311.23 C 421.04 313.34 416.44 312.98 413.55 310.40 C 409.13 306.52 405.37 301.94 400.93 298.09 C 398.02 295.55 393.62 295.48 390.34 297.33 C 383.93 300.60 377.30 303.45 370.43 305.59 C 366.85 306.56 363.66 309.44 363.22 313.26 C 362.66 319.50 363.47 325.78 362.85 332.02 C 362.27 336.68 357.66 340.06 353.07 339.78 C 338.01 339.82 322.95 339.81 307.89 339.78 C 303.61 340.02 299.29 337.18 298.26 332.94 C 297.11 325.96 298.75 318.77 297.38 311.83 C 295.67 306.12 289.11 305.40 284.39 303.47 C 278.93 301.59 273.90 298.72 268.58 296.53 C 264.11 294.90 259.86 297.84 257.08 301.11 C 253.89 304.26 250.86 307.59 247.50 310.56 C 244.01 313.70 238.23 313.35 235.01 309.99 C 224.13 299.22 213.36 288.34 202.52 277.54 C 199.11 274.48 198.26 268.85 201.16 265.18 C 205.07 260.47 209.91 256.62 213.90 251.99 C 216.44 249.07 216.50 244.66 214.66 241.37 C 211.39 234.99 208.61 228.38 206.43 221.55 C 205.47 217.96 202.60 214.73 198.77 214.29 C 192.53 213.74 186.25 214.56 180.02 213.92 C 175.33 213.35 171.90 208.71 172.23 204.08 C 172.21 189.05 172.21 174.01 172.22 158.98 C 171.91 154.37 175.29 149.72 179.97 149.14 C 186.18 148.51 192.45 149.33 198.67 148.77 C 202.50 148.34 205.39 145.14 206.37 141.56 C 208.56 134.70 211.37 128.08 214.65 121.68 C 216.44 118.44 216.30 114.12 213.83 111.27 C 209.94 106.79 205.32 102.99 201.42 98.52 C 198.28 95.04 198.65 89.26 202.02 86.06 C 212.63 75.36 223.34 64.74 233.96 54.04 C 237.03 50.36 242.88 49.13 246.80 52.20 C 251.51 56.10 255.37 60.92 259.98 64.93 C 262.90 67.50 267.32 67.55 270.62 65.71 C 277.21 62.29 284.12 59.54 291.17 57.22 C 294.60 56.24 297.06 53.26 297.82 49.83 C 298.06 43.87 297.71 37.89 297.97 31.93 M 316.41 89.49 C 289.61 93.44 265.05 109.84 251.03 132.99 C 240.43 150.17 235.81 170.86 237.86 190.92 C 240.11 214.44 251.88 236.82 269.85 252.13 C 284.64 264.89 303.52 272.83 323.00 274.29 C 344.12 276.05 365.80 270.32 383.21 258.23 C 399.37 247.13 411.89 230.82 418.33 212.30 C 425.55 191.79 425.24 168.73 417.48 148.41 C 408.94 125.78 391.19 106.79 369.14 96.83 C 352.78 89.29 334.20 86.84 316.41 89.49 Z" />
    </g>
    <g id="#e7efffff">
        <path fill="#e7efff" opacity="1.00"
            d=" M 162.10 54.42 C 205.55 39.44 253.45 37.92 297.82 49.83 C 297.06 53.26 294.60 56.24 291.17 57.22 C 284.12 59.54 277.21 62.29 270.62 65.71 C 267.32 67.55 262.90 67.50 259.98 64.93 C 255.37 60.92 251.51 56.10 246.80 52.20 C 242.88 49.13 237.03 50.36 233.96 54.04 C 223.34 64.74 212.63 75.36 202.02 86.06 C 198.65 89.26 198.28 95.04 201.42 98.52 C 205.32 102.99 209.94 106.79 213.83 111.27 C 216.30 114.12 216.44 118.44 214.65 121.68 C 211.37 128.08 208.56 134.70 206.37 141.56 C 205.39 145.14 202.50 148.34 198.67 148.77 C 192.45 149.33 186.18 148.51 179.97 149.14 C 175.29 149.72 171.91 154.37 172.22 158.98 C 172.21 174.01 172.21 189.05 172.23 204.08 C 171.90 208.71 175.33 213.35 180.02 213.92 C 186.25 214.56 192.53 213.74 198.77 214.29 C 202.60 214.73 205.47 217.96 206.43 221.55 C 208.61 228.38 211.39 234.99 214.66 241.37 C 216.50 244.66 216.44 249.07 213.90 251.99 C 209.91 256.62 205.07 260.47 201.16 265.18 C 198.26 268.85 199.11 274.48 202.52 277.54 C 213.36 288.34 224.13 299.22 235.01 309.99 C 238.23 313.35 244.01 313.70 247.50 310.56 C 250.86 307.59 253.89 304.26 257.08 301.11 C 259.86 297.84 264.11 294.90 268.58 296.53 C 273.90 298.72 278.93 301.59 284.39 303.47 C 289.11 305.40 295.67 306.12 297.38 311.83 C 298.75 318.77 297.11 325.96 298.26 332.94 C 299.29 337.18 303.61 340.02 307.89 339.78 C 322.95 339.81 338.01 339.82 353.07 339.78 C 357.66 340.06 362.27 336.68 362.85 332.02 C 363.47 325.78 362.66 319.50 363.22 313.26 C 363.66 309.44 366.85 306.56 370.43 305.59 C 377.30 303.45 383.93 300.60 390.34 297.33 C 393.62 295.48 398.02 295.55 400.93 298.09 C 405.37 301.94 409.13 306.52 413.55 310.40 C 416.44 312.98 421.04 313.34 424.30 311.23 C 426.44 309.78 428.15 307.82 429.98 306.01 C 438.13 297.83 446.31 289.67 454.48 281.51 C 456.45 279.49 458.63 277.64 460.25 275.32 C 462.43 272.06 462.09 267.39 459.49 264.46 C 455.61 260.03 451.05 256.25 447.16 251.83 C 444.62 248.97 444.48 244.61 446.31 241.34 C 449.74 234.70 452.54 227.77 454.88 220.68 C 455.86 217.33 458.80 214.95 462.14 214.19 C 474.89 261.49 472.24 312.81 454.47 358.47 C 440.75 394.13 417.98 426.23 389.01 451.11 C 360.44 475.88 325.67 493.07 288.94 501.76 C 289.62 501.53 290.99 501.07 291.68 500.84 C 288.99 497.72 285.77 495.10 283.11 491.95 C 280.75 489.02 280.87 484.79 282.65 481.60 C 284.97 477.02 286.86 472.25 288.54 467.41 C 289.50 464.41 291.92 461.85 295.04 461.14 C 299.85 460.25 304.79 461.36 309.59 460.44 C 313.77 459.44 316.71 455.25 316.49 450.98 C 316.53 441.99 316.53 433.00 316.49 424.01 C 316.67 419.98 314.08 416.03 310.22 414.78 C 304.78 413.34 298.91 415.36 293.57 413.40 C 288.35 411.13 287.95 404.80 285.75 400.26 C 284.08 395.54 279.89 391.00 281.65 385.70 C 283.90 379.99 290.38 377.41 292.97 371.91 C 294.49 368.33 293.33 364.08 290.54 361.47 C 284.24 355.08 277.85 348.79 271.50 342.46 C 268.57 339.28 263.39 338.35 259.74 340.84 C 256.10 343.41 253.54 347.18 250.02 349.90 C 247.52 351.86 243.94 352.29 241.04 351.00 C 237.06 349.30 233.27 347.15 229.14 345.82 C 225.70 344.62 221.63 343.57 219.89 340.01 C 217.31 334.40 220.04 327.89 217.99 322.15 C 216.53 318.63 212.81 316.36 209.02 316.54 C 200.01 316.51 190.99 316.51 181.98 316.54 C 177.97 316.33 174.04 318.90 172.76 322.72 C 171.28 328.18 173.32 334.07 171.38 339.43 C 169.10 344.61 162.84 345.08 158.31 347.24 C 153.56 348.88 149.01 353.07 143.69 351.32 C 138.28 349.11 135.57 343.28 130.62 340.39 C 126.95 338.39 122.22 339.45 119.45 342.48 C 113.08 348.81 106.74 355.18 100.40 361.54 C 97.43 364.30 96.43 369.00 98.41 372.62 C 101.30 377.55 107.13 380.25 109.28 385.67 C 110.99 390.94 106.87 395.47 105.22 400.16 C 103.08 404.55 102.78 410.51 98.03 413.09 C 92.61 415.63 86.36 413.23 80.71 414.79 C 77.28 415.97 74.65 419.32 74.56 422.99 C 74.33 428.99 74.50 435.00 74.54 441.00 C 47.54 414.13 26.63 380.94 15.42 344.45 C 24.25 344.42 33.09 344.60 41.92 344.40 C 45.61 344.41 49.15 342.06 50.49 338.62 C 52.35 333.01 49.91 326.79 52.15 321.28 C 54.46 316.32 60.50 315.90 64.91 313.82 C 69.72 312.15 74.26 307.84 79.67 309.55 C 85.35 311.73 87.96 318.07 93.29 320.79 C 96.78 322.41 101.06 321.41 103.71 318.70 C 110.10 312.42 116.39 306.04 122.74 299.72 C 125.76 296.99 127.01 292.39 125.18 288.65 C 122.46 283.65 116.78 280.97 114.32 275.80 C 112.13 270.29 116.61 265.44 118.31 260.49 C 120.38 256.10 120.77 250.10 125.63 247.71 C 131.14 245.38 137.35 247.76 142.98 246.04 C 146.64 244.73 149.03 240.93 148.91 237.09 C 148.99 228.04 148.96 218.98 148.92 209.92 C 149.12 205.79 146.38 201.71 142.36 200.58 C 136.96 199.27 131.14 201.23 125.87 199.23 C 120.72 196.85 120.36 190.54 118.12 186.00 C 116.39 181.26 112.18 176.58 114.19 171.26 C 116.58 165.96 122.43 163.33 125.20 158.28 C 126.89 154.81 126.05 150.43 123.31 147.74 C 117.76 141.96 111.92 136.45 106.35 130.69 C 104.01 128.35 101.53 125.60 98.00 125.36 C 88.03 124.38 85.34 139.62 75.07 137.44 C 68.46 134.86 62.14 131.50 55.27 129.57 C 82.97 95.23 120.23 68.53 162.10 54.42 Z" />
    </g>
    <g id="#ff4d69ff">
        <path fill="#ff4d69" opacity="1.00"
            d=" M 14.38 56.55 C 21.57 54.03 30.13 58.63 32.01 65.99 C 34.27 73.20 29.52 81.54 22.18 83.28 C 14.91 85.42 6.64 80.44 5.08 73.04 C 3.26 66.20 7.61 58.55 14.38 56.55 Z" />
    </g>
    <g id="#4e6affff">
        <path fill="#4e6aff" opacity="1.00"
            d=" M 316.41 89.49 C 334.20 86.84 352.78 89.29 369.14 96.83 C 391.19 106.79 408.94 125.78 417.48 148.41 C 425.24 168.73 425.55 191.79 418.33 212.30 C 411.89 230.82 399.37 247.13 383.21 258.23 C 365.80 270.32 344.12 276.05 323.00 274.29 C 303.52 272.83 284.64 264.89 269.85 252.13 C 251.88 236.82 240.11 214.44 237.86 190.92 C 235.81 170.86 240.43 150.17 251.03 132.99 C 265.05 109.84 289.61 93.44 316.41 89.49 M 337.29 135.41 C 333.78 136.32 331.21 139.42 330.54 142.93 C 324.44 167.35 318.30 191.76 312.24 216.18 C 310.72 221.09 314.01 226.72 319.03 227.79 C 323.83 229.10 329.18 225.79 330.23 220.94 C 336.45 196.24 342.62 171.52 348.77 146.79 C 350.85 140.17 343.88 133.27 337.29 135.41 M 281.42 152.30 C 273.89 159.81 266.36 167.32 258.88 174.87 C 255.16 178.31 255.14 184.71 258.86 188.16 C 265.97 195.38 273.21 202.48 280.33 209.70 C 282.15 211.55 284.18 213.49 286.86 213.91 C 291.56 214.96 296.59 211.62 297.58 206.94 C 298.39 203.75 297.27 200.29 294.92 198.03 C 289.47 192.52 284.01 187.02 278.49 181.57 C 283.89 175.96 289.54 170.59 294.93 164.98 C 298.43 161.38 298.05 154.98 294.20 151.78 C 290.67 148.53 284.66 148.76 281.42 152.30 M 366.24 152.26 C 362.60 155.75 362.75 162.16 366.51 165.52 C 371.82 170.79 377.02 176.18 382.43 181.35 C 377.03 187.29 371.10 192.74 365.56 198.55 C 361.82 202.31 362.50 209.17 366.80 212.22 C 370.42 215.11 376.03 214.51 379.13 211.13 C 386.67 203.67 394.15 196.14 401.66 188.64 C 404.00 186.44 405.38 183.15 404.74 179.93 C 404.34 176.99 402.14 174.85 400.14 172.87 C 393.07 165.90 386.13 158.79 379.03 151.85 C 375.56 148.51 369.50 148.76 366.24 152.26 Z" />
        <path fill="#4e6aff" opacity="1.00"
            d=" M 172.76 322.72 C 174.04 318.90 177.97 316.33 181.98 316.54 C 190.99 316.51 200.01 316.51 209.02 316.54 C 212.81 316.36 216.53 318.63 217.99 322.15 C 220.04 327.89 217.31 334.40 219.89 340.01 C 221.63 343.57 225.70 344.62 229.14 345.82 C 233.27 347.15 237.06 349.30 241.04 351.00 C 243.94 352.29 247.52 351.86 250.02 349.90 C 253.54 347.18 256.10 343.41 259.74 340.84 C 263.39 338.35 268.57 339.28 271.50 342.46 C 277.85 348.79 284.24 355.08 290.54 361.47 C 293.33 364.08 294.49 368.33 292.97 371.91 C 290.38 377.41 283.90 379.99 281.65 385.70 C 279.89 391.00 284.08 395.54 285.75 400.26 C 287.95 404.80 288.35 411.13 293.57 413.40 C 298.91 415.36 304.78 413.34 310.22 414.78 C 314.08 416.03 316.67 419.98 316.49 424.01 C 316.53 433.00 316.53 441.99 316.49 450.98 C 316.71 455.25 313.77 459.44 309.59 460.44 C 304.79 461.36 299.85 460.25 295.04 461.14 C 291.92 461.85 289.50 464.41 288.54 467.41 C 286.86 472.25 284.97 477.02 282.65 481.60 C 280.87 484.79 280.75 489.02 283.11 491.95 C 285.77 495.10 288.99 497.72 291.68 500.84 C 290.99 501.07 289.62 501.53 288.94 501.76 C 261.17 508.07 232.23 509.27 204.06 505.08 C 155.54 498.25 109.42 475.43 74.54 441.00 C 74.50 435.00 74.33 428.99 74.56 422.99 C 74.65 419.32 77.28 415.97 80.71 414.79 C 86.36 413.23 92.61 415.63 98.03 413.09 C 102.78 410.51 103.08 404.55 105.22 400.16 C 106.87 395.47 110.99 390.94 109.28 385.67 C 107.13 380.25 101.30 377.55 98.41 372.62 C 96.43 369.00 97.43 364.30 100.40 361.54 C 106.74 355.18 113.08 348.81 119.45 342.48 C 122.22 339.45 126.95 338.39 130.62 340.39 C 135.57 343.28 138.28 349.11 143.69 351.32 C 149.01 353.07 153.56 348.88 158.31 347.24 C 162.84 345.08 169.10 344.61 171.38 339.43 C 173.32 334.07 171.28 328.18 172.76 322.72 M 185.30 387.36 C 175.06 389.46 165.50 394.75 158.33 402.36 C 149.27 411.84 144.11 424.92 144.34 438.04 C 144.37 452.24 150.75 466.26 161.39 475.65 C 171.27 484.56 184.74 489.35 198.03 488.62 C 212.72 487.99 226.94 480.60 235.88 468.93 C 244.40 458.09 248.17 443.70 246.10 430.07 C 243.91 414.26 233.75 399.86 219.66 392.40 C 209.26 386.77 196.88 385.05 185.30 387.36 Z" />
    </g>
    <g id="#7f96d1ff">
        <path fill="#7f96d1" opacity="1.00"
            d=" M 75.07 137.44 C 85.34 139.62 88.03 124.38 98.00 125.36 C 101.53 125.60 104.01 128.35 106.35 130.69 C 111.92 136.45 117.76 141.96 123.31 147.74 C 126.05 150.43 126.89 154.81 125.20 158.28 C 122.43 163.33 116.58 165.96 114.19 171.26 C 112.18 176.58 116.39 181.26 118.12 186.00 C 120.36 190.54 120.72 196.85 125.87 199.23 C 131.14 201.23 136.96 199.27 142.36 200.58 C 146.38 201.71 149.12 205.79 148.92 209.92 C 148.96 218.98 148.99 228.04 148.91 237.09 C 149.03 240.93 146.64 244.73 142.98 246.04 C 137.35 247.76 131.14 245.38 125.63 247.71 C 120.77 250.10 120.38 256.10 118.31 260.49 C 116.61 265.44 112.13 270.29 114.32 275.80 C 116.78 280.97 122.46 283.65 125.18 288.65 C 127.01 292.39 125.76 296.99 122.74 299.72 C 116.39 306.04 110.10 312.42 103.71 318.70 C 101.06 321.41 96.78 322.41 93.29 320.79 C 87.96 318.07 85.35 311.73 79.67 309.55 C 74.26 307.84 69.72 312.15 64.91 313.82 C 60.50 315.90 54.46 316.32 52.15 321.28 C 49.91 326.79 52.35 333.01 50.49 338.62 C 49.15 342.06 45.61 344.41 41.92 344.40 C 33.09 344.60 24.25 344.42 15.42 344.45 L 15.05 344.45 C 8.85 323.94 5.09 302.67 4.56 281.24 C 4.74 277.27 4.99 273.30 5.06 269.32 C 13.98 273.61 24.06 275.52 33.92 274.29 C 50.66 272.49 66.05 261.70 73.56 246.65 C 79.59 234.87 80.74 220.76 76.77 208.15 C 72.26 193.44 60.72 181.13 46.35 175.66 C 40.65 173.27 34.43 172.85 28.42 171.67 C 35.86 156.74 44.73 142.49 55.27 129.57 C 62.14 131.50 68.46 134.86 75.07 137.44 Z" />
    </g>
    <g id="#ffffffff">
        <path fill="#ffffff" opacity="1.00"
            d=" M 337.29 135.41 C 343.88 133.27 350.85 140.17 348.77 146.79 C 342.62 171.52 336.45 196.24 330.23 220.94 C 329.18 225.79 323.83 229.10 319.03 227.79 C 314.01 226.72 310.72 221.09 312.24 216.18 C 318.30 191.76 324.44 167.35 330.54 142.93 C 331.21 139.42 333.78 136.32 337.29 135.41 Z" />
        <path fill="#ffffff" opacity="1.00"
            d=" M 281.42 152.30 C 284.66 148.76 290.67 148.53 294.20 151.78 C 298.05 154.98 298.43 161.38 294.93 164.98 C 289.54 170.59 283.89 175.96 278.49 181.57 C 284.01 187.02 289.47 192.52 294.92 198.03 C 297.27 200.29 298.39 203.75 297.58 206.94 C 296.59 211.62 291.56 214.96 286.86 213.91 C 284.18 213.49 282.15 211.55 280.33 209.70 C 273.21 202.48 265.97 195.38 258.86 188.16 C 255.14 184.71 255.16 178.31 258.88 174.87 C 266.36 167.32 273.89 159.81 281.42 152.30 Z" />
        <path fill="#ffffff" opacity="1.00"
            d=" M 366.24 152.26 C 369.50 148.76 375.56 148.51 379.03 151.85 C 386.13 158.79 393.07 165.90 400.14 172.87 C 402.14 174.85 404.34 176.99 404.74 179.93 C 405.38 183.15 404.00 186.44 401.66 188.64 C 394.15 196.14 386.67 203.67 379.13 211.13 C 376.03 214.51 370.42 215.11 366.80 212.22 C 362.50 209.17 361.82 202.31 365.56 198.55 C 371.10 192.74 377.03 187.29 382.43 181.35 C 377.02 176.18 371.82 170.79 366.51 165.52 C 362.75 162.16 362.60 155.75 366.24 152.26 Z" />
    </g>
    <g id="#a5bcedff">
        <path fill="#a5bced" opacity="1.00"
            d=" M 4.56 281.24 C 3.32 243.51 11.61 205.48 28.42 171.67 C 34.43 172.85 40.65 173.27 46.35 175.66 C 60.72 181.13 72.26 193.44 76.77 208.15 C 80.74 220.76 79.59 234.87 73.56 246.65 C 66.05 261.70 50.66 272.49 33.92 274.29 C 24.06 275.52 13.98 273.61 5.06 269.32 C 4.99 273.30 4.74 277.27 4.56 281.24 Z" />
    </g>
    <g id="#8fa2ffff">
        <path fill="#8fa2ff" opacity="1.00"
            d=" M 185.30 387.36 C 196.88 385.05 209.26 386.77 219.66 392.40 C 233.75 399.86 243.91 414.26 246.10 430.07 C 248.17 443.70 244.40 458.09 235.88 468.93 C 226.94 480.60 212.72 487.99 198.03 488.62 C 184.74 489.35 171.27 484.56 161.39 475.65 C 150.75 466.26 144.37 452.24 144.34 438.04 C 144.11 424.92 149.27 411.84 158.33 402.36 C 165.50 394.75 175.06 389.46 185.30 387.36 Z" />
    </g>
    <g id="#ffa100ff">
        <path fill="#ffa100" opacity="1.00"
            d=" M 490.49 414.59 C 497.96 412.79 506.08 418.33 507.11 425.95 C 508.59 433.49 502.64 441.38 494.99 442.04 C 487.65 443.10 480.25 437.27 479.56 429.88 C 478.54 422.95 483.63 415.90 490.49 414.59 Z" />
    </g>
</svg>
