<?xml version="1.0" encoding="UTF-8" ?><!DOCTYPE svg PUBLIC "-//W3C//DTD SVG 1.1//EN"
    "http://www.w3.org/Graphics/SVG/1.1/DTD/svg11.dtd">
<svg width="512pt" height="512pt" viewBox="0 0 512 512" version="1.1"
    xmlns="http://www.w3.org/2000/svg">
    <g id="#00c99fff">
        <path fill="#00c99f" opacity="1.00"
            d=" M 60.39 5.54 C 67.74 2.61 76.79 7.32 78.61 15.01 C 80.84 22.46 75.56 30.95 67.91 32.27 C 60.48 33.98 52.48 28.43 51.43 20.90 C 50.22 14.47 54.24 7.69 60.39 5.54 Z" />
        <path fill="#00c99f" opacity="1.00"
            d=" M 488.36 452.46 C 495.43 449.52 504.29 453.66 506.56 460.96 C 509.25 468.20 504.63 477.02 497.12 478.86 C 489.92 481.10 481.63 476.27 479.91 468.97 C 478.01 462.34 481.91 454.82 488.36 452.46 Z" />
    </g>
    <g id="#e7efffff">
        <path fill="#e7efff" opacity="1.00"
            d=" M 202.17 29.62 C 254.78 16.94 311.78 23.45 360.10 47.84 C 374.72 55.17 388.63 64.00 401.33 74.32 C 320.55 74.68 239.77 74.36 158.99 74.48 C 155.57 74.51 152.15 74.24 148.74 74.36 C 136.13 74.48 123.51 74.70 110.92 74.24 C 137.40 52.68 168.98 37.48 202.17 29.62 Z" />
        <path fill="#e7efff" opacity="1.00"
            d=" M 456.16 151.07 C 456.22 146.73 455.87 142.36 456.58 138.05 C 481.09 179.29 492.02 228.32 487.85 276.08 C 486.49 292.64 482.97 308.93 478.50 324.90 C 472.91 315.71 467.28 306.55 461.68 297.36 C 460.26 294.94 458.34 292.84 456.06 291.20 C 456.29 244.49 456.08 197.78 456.16 151.07 Z" />
        <path fill="#e7efff" opacity="1.00"
            d=" M 24.01 237.40 C 34.63 237.40 45.25 237.40 55.86 237.40 C 55.81 281.61 55.86 325.82 55.84 370.03 C 55.75 371.34 55.59 372.65 55.34 373.95 C 31.23 333.06 20.15 284.71 24.01 237.40 Z" />
        <path fill="#e7efff" opacity="1.00"
            d=" M 111.18 438.02 C 116.43 437.09 121.78 437.70 127.08 437.55 C 216.71 437.55 306.34 437.56 395.96 437.54 C 397.55 437.63 399.14 437.80 400.73 438.05 C 367.25 465.16 325.78 482.25 283.00 487.11 C 222.24 494.48 158.81 476.50 111.18 438.02 Z" />
    </g>
    <g id="#ffa100ff">
        <path fill="#ffa100" opacity="1.00"
            d=" M 489.36 28.56 C 496.83 26.04 505.55 31.22 506.99 38.95 C 508.88 46.62 502.96 54.96 495.11 55.70 C 487.87 56.81 480.51 51.20 479.61 43.95 C 478.46 37.32 482.91 30.37 489.36 28.56 Z" />
    </g>
    <g id="#8fa2ffff">
        <path fill="#8fa2ff" opacity="1.00"
            d=" M 55.91 92.01 C 56.20 82.96 64.06 74.99 73.10 74.54 C 85.70 74.22 98.33 74.81 110.92 74.24 C 123.51 74.70 136.13 74.48 148.74 74.36 C 162.00 74.23 174.49 84.49 176.45 97.69 C 177.32 105.42 176.66 113.24 176.87 121.00 C 136.53 120.99 96.20 121.01 55.86 121.00 C 55.89 111.34 55.79 101.67 55.91 92.01 M 152.21 93.30 C 149.06 94.14 147.84 98.52 150.15 100.85 C 152.35 103.60 157.26 102.43 158.06 99.02 C 159.26 95.66 155.53 92.07 152.21 93.30 Z" />
    </g>
    <g id="#4e6affff">
        <path fill="#4e6aff" opacity="1.00"
            d=" M 148.74 74.36 C 152.15 74.24 155.57 74.51 158.99 74.48 C 239.77 74.36 320.55 74.68 401.33 74.32 C 413.84 74.70 426.37 74.28 438.88 74.54 C 447.93 74.98 455.77 82.95 456.09 91.99 C 456.22 101.66 456.10 111.33 456.14 121.00 C 363.05 121.00 269.96 120.99 176.87 121.00 C 176.66 113.24 177.32 105.42 176.45 97.69 C 174.49 84.49 162.00 74.23 148.74 74.36 M 375.36 93.40 C 372.21 94.45 371.29 99.04 373.88 101.17 C 376.23 103.56 380.75 102.22 381.49 98.98 C 382.67 95.50 378.70 91.91 375.36 93.40 M 403.29 93.39 C 399.82 94.53 399.24 99.76 402.38 101.62 C 405.16 103.68 409.53 101.45 409.60 98.02 C 409.91 94.78 406.27 92.11 403.29 93.39 M 431.34 93.35 C 428.09 94.32 427.14 98.99 429.73 101.17 C 432.09 103.57 436.61 102.21 437.35 98.97 C 438.49 95.55 434.67 92.00 431.34 93.35 Z" />
        <path fill="#4e6aff" opacity="1.00"
            d=" M 237.49 157.37 C 237.79 153.48 243.48 152.35 245.71 155.27 C 246.87 156.57 246.60 158.43 246.70 160.04 C 246.71 167.23 246.64 174.42 246.75 181.61 C 246.66 183.77 246.95 186.04 246.21 188.11 C 245.10 191.09 240.55 191.82 238.63 189.29 C 237.01 187.42 237.43 184.74 237.27 182.47 C 237.60 174.10 237.16 165.73 237.49 157.37 Z" />
        <path fill="#4e6aff" opacity="1.00"
            d=" M 265.46 157.03 C 266.19 152.39 274.12 152.60 274.51 157.35 C 274.83 165.72 274.42 174.10 274.72 182.47 C 274.58 184.77 275.02 187.48 273.31 189.33 C 271.37 191.79 266.85 191.08 265.79 188.10 C 265.07 186.02 265.33 183.76 265.26 181.60 C 265.46 173.41 265.07 165.21 265.46 157.03 Z" />
        <path fill="#4e6aff" opacity="1.00"
            d=" M 198.60 231.46 C 204.03 219.93 215.30 211.15 228.10 209.78 C 235.79 209.36 243.52 209.44 251.23 209.71 C 251.51 226.81 251.25 243.91 251.36 261.02 C 251.26 296.45 251.50 331.88 251.23 367.31 C 227.78 366.15 206.31 349.14 198.84 326.99 C 197.83 324.00 197.00 320.95 196.40 317.85 C 195.15 310.92 195.56 303.86 195.47 296.86 C 195.48 293.37 195.37 289.88 195.38 286.40 C 195.09 281.59 196.58 276.24 194.59 271.80 L 194.59 271.78 C 195.77 268.63 195.46 265.24 195.49 261.95 C 195.59 254.75 195.16 247.53 195.92 240.36 C 196.65 237.35 197.53 234.36 198.60 231.46 Z" />
        <path fill="#4e6aff" opacity="1.00"
            d=" M 260.82 209.70 C 268.51 209.43 276.22 209.36 283.90 209.78 C 296.70 211.16 307.98 219.91 313.38 231.46 C 314.47 234.39 315.33 237.39 316.04 240.43 C 316.88 247.61 316.39 254.85 316.51 262.06 C 316.56 265.31 316.20 268.67 317.38 271.79 L 317.39 271.85 C 315.42 276.25 316.92 281.54 316.60 286.30 C 316.61 289.78 316.54 293.27 316.54 296.76 C 316.43 303.79 316.85 310.89 315.59 317.85 C 314.99 320.94 314.19 324.00 313.16 326.99 C 305.67 349.13 284.24 366.23 260.74 367.30 C 260.56 342.53 260.69 317.76 260.66 293.00 C 260.75 265.23 260.44 237.46 260.82 209.70 Z" />
    </g>
    <g id="#ffffffff">
        <path fill="#ffffff" opacity="1.00"
            d=" M 152.21 93.30 C 155.53 92.07 159.26 95.66 158.06 99.02 C 157.26 102.43 152.35 103.60 150.15 100.85 C 147.84 98.52 149.06 94.14 152.21 93.30 Z" />
        <path fill="#ffffff" opacity="1.00"
            d=" M 375.36 93.40 C 378.70 91.91 382.67 95.50 381.49 98.98 C 380.75 102.22 376.23 103.56 373.88 101.17 C 371.29 99.04 372.21 94.45 375.36 93.40 Z" />
        <path fill="#ffffff" opacity="1.00"
            d=" M 403.29 93.39 C 406.27 92.11 409.91 94.78 409.60 98.02 C 409.53 101.45 405.16 103.68 402.38 101.62 C 399.24 99.76 399.82 94.53 403.29 93.39 Z" />
        <path fill="#ffffff" opacity="1.00"
            d=" M 431.34 93.35 C 434.67 92.00 438.49 95.55 437.35 98.97 C 436.61 102.21 432.09 103.57 429.73 101.17 C 427.14 98.99 428.09 94.32 431.34 93.35 Z" />
        <path fill="#ffffff" opacity="1.00"
            d=" M 62.35 163.42 C 67.69 161.17 74.14 166.17 73.17 171.91 C 72.21 178.58 71.41 185.29 70.20 191.92 C 68.96 196.54 61.45 196.61 60.15 192.00 C 58.93 185.40 58.13 178.72 57.17 172.07 C 56.57 168.44 58.88 164.62 62.35 163.42 Z" />
        <path fill="#ffffff" opacity="1.00"
            d=" M 62.16 205.31 C 68.61 202.78 76.01 209.30 74.25 216.02 C 73.13 222.78 63.91 225.83 59.00 221.05 C 53.69 216.75 55.59 207.22 62.16 205.31 Z" />
        <path fill="#ffffff" opacity="1.00"
            d=" M 443.26 317.34 C 448.45 314.49 455.47 319.07 454.89 324.96 C 454.05 331.66 453.06 338.34 452.00 345.00 C 451.24 350.10 442.94 350.44 441.77 345.41 C 440.62 338.97 439.82 332.47 438.88 326.00 C 438.20 322.54 440.09 318.85 443.26 317.34 Z" />
        <path fill="#ffffff" opacity="1.00"
            d=" M 443.13 359.18 C 449.04 356.30 456.62 361.46 456.11 368.00 C 456.20 374.71 447.94 379.38 442.25 375.78 C 435.69 372.47 436.24 361.79 443.13 359.18 Z" />
    </g>
    <g id="#a5bcedff">
        <path fill="#a5bced" opacity="1.00"
            d=" M 55.86 121.00 C 96.20 121.01 136.53 120.99 176.87 121.00 C 269.96 120.99 363.05 121.00 456.14 121.00 C 456.41 126.67 455.57 132.47 456.58 138.05 C 455.87 142.36 456.22 146.73 456.16 151.07 C 456.08 197.78 456.29 244.49 456.06 291.20 C 448.67 286.39 437.81 288.56 433.16 296.14 C 418.27 320.26 403.48 344.45 388.64 368.61 C 385.03 374.11 385.85 381.93 390.51 386.56 C 393.22 389.37 397.08 390.97 400.98 390.97 C 415.87 391.06 430.76 390.95 445.65 391.02 C 433.89 407.78 419.72 422.84 403.91 435.84 C 402.83 436.48 401.98 437.93 400.73 438.05 C 399.14 437.80 397.55 437.63 395.96 437.54 C 306.34 437.56 216.71 437.55 127.08 437.55 C 121.78 437.70 116.43 437.09 111.18 438.02 L 110.89 438.07 C 88.65 420.37 69.52 398.59 55.34 373.95 C 55.59 372.65 55.75 371.34 55.84 370.03 C 55.86 325.82 55.81 281.61 55.86 237.40 C 74.22 237.38 92.58 237.43 110.94 237.38 C 116.72 237.52 122.37 233.93 124.60 228.58 C 126.60 224.12 126.02 218.76 123.37 214.70 C 108.69 190.70 94.06 166.68 79.33 142.71 C 74.51 134.59 62.75 132.66 55.29 138.25 C 56.59 132.66 55.50 126.73 55.86 121.00 M 237.49 157.37 C 237.16 165.73 237.60 174.10 237.27 182.47 C 232.04 184.17 228.28 189.42 228.14 194.89 C 227.99 199.85 228.08 204.82 228.10 209.78 C 215.30 211.15 204.03 219.93 198.60 231.46 C 194.49 229.22 190.18 227.36 186.13 225.01 C 186.26 209.34 186.14 193.66 186.19 177.99 C 186.52 173.69 182.24 171.22 179.62 168.48 C 176.60 165.63 171.38 169.14 172.17 172.97 C 172.79 175.54 175.32 176.93 176.89 178.88 C 176.87 195.25 176.83 211.62 176.91 227.99 C 176.75 230.18 178.45 231.88 180.33 232.66 C 185.55 235.18 190.64 237.96 195.92 240.36 C 195.16 247.53 195.59 254.75 195.49 261.95 C 184.92 255.54 173.78 250.04 162.99 243.99 C 162.78 229.29 163.03 214.58 162.87 199.87 C 162.77 197.63 160.76 196.17 159.39 194.62 C 157.74 193.16 156.36 191.03 154.01 190.74 C 151.18 190.50 148.57 193.18 148.85 196.00 C 149.26 198.83 152.29 200.03 153.57 202.34 C 153.65 216.88 153.56 231.42 153.60 245.96 C 153.44 247.89 154.31 249.95 156.15 250.79 C 168.93 257.84 181.77 264.80 194.59 271.78 L 194.59 271.80 C 196.58 276.24 195.09 281.59 195.38 286.40 C 182.52 293.19 169.84 300.33 157.02 307.22 C 155.14 308.06 153.44 309.76 153.63 311.99 C 153.49 326.87 153.74 341.76 153.51 356.65 C 151.51 358.69 148.23 360.72 149.03 364.06 C 149.70 367.66 154.78 368.96 157.11 366.15 C 159.13 363.91 162.12 362.05 162.85 358.98 C 163.15 344.12 162.58 329.22 163.13 314.38 C 173.97 308.66 184.78 302.85 195.47 296.86 C 195.56 303.86 195.15 310.92 196.40 317.85 C 190.73 320.70 185.06 323.53 179.40 326.40 C 177.65 327.20 176.75 329.16 176.88 331.04 C 176.83 347.29 176.92 363.54 176.85 379.79 C 174.98 381.87 171.79 383.70 172.23 386.93 C 172.56 390.42 177.27 392.32 179.84 389.87 C 182.54 387.09 186.84 384.49 186.20 380.03 C 186.19 364.46 186.12 348.88 186.23 333.31 C 190.46 331.26 194.66 329.13 198.84 326.99 C 206.31 349.14 227.78 366.15 251.23 367.31 L 251.22 367.79 C 254.39 367.96 257.57 367.95 260.75 367.81 L 260.74 367.30 C 284.24 366.23 305.67 349.13 313.16 326.99 C 317.32 329.17 321.57 331.19 325.78 333.30 C 325.91 349.54 325.72 365.78 325.87 382.03 C 325.93 384.40 328.13 385.81 329.57 387.42 C 331.35 389.04 333.23 391.55 335.98 390.89 C 339.04 390.48 340.87 386.53 339.12 383.97 C 337.98 382.41 336.51 381.14 335.16 379.79 C 335.08 363.54 335.17 347.29 335.12 331.04 C 335.25 329.17 334.34 327.25 332.63 326.41 C 327.01 323.43 321.26 320.71 315.59 317.85 C 316.85 310.89 316.43 303.79 316.54 296.76 C 327.18 302.74 337.98 308.47 348.66 314.37 C 348.77 315.03 348.99 316.34 349.10 317.00 C 349.06 330.33 349.10 343.66 349.08 357.00 C 348.45 361.37 352.76 363.79 355.38 366.49 C 357.76 368.97 362.38 367.36 362.95 364.06 C 363.75 360.69 360.43 358.65 358.45 356.56 C 358.31 341.70 358.48 326.84 358.38 311.98 C 358.57 309.71 356.88 307.97 354.98 307.09 C 342.17 300.19 329.51 293.01 316.60 286.30 C 316.92 281.54 315.42 276.25 317.39 271.85 L 317.38 271.79 C 329.85 265.19 342.17 258.29 354.59 251.57 C 356.39 250.64 358.44 249.25 358.35 246.95 C 358.50 232.09 358.32 217.23 358.43 202.38 C 359.68 200.08 362.65 198.87 363.12 196.12 C 363.77 192.31 358.64 188.97 355.65 191.75 C 353.35 193.98 350.60 196.03 349.21 198.99 C 348.90 213.98 349.20 228.99 349.06 243.98 C 338.26 250.08 327.05 255.55 316.51 262.06 C 316.39 254.85 316.88 247.61 316.04 240.43 C 321.54 237.87 326.95 235.08 332.35 232.30 C 334.39 231.42 335.34 229.18 335.13 227.05 C 335.11 211.00 335.17 194.95 335.09 178.90 C 336.49 177.33 338.19 176.01 339.37 174.26 C 341.27 170.98 337.64 166.60 334.07 167.57 C 332.09 168.23 330.81 170.01 329.32 171.36 C 327.84 173.01 325.64 174.59 325.83 177.07 C 325.82 193.06 325.78 209.06 325.86 225.05 C 321.82 227.42 317.48 229.21 313.38 231.46 C 307.98 219.91 296.70 211.16 283.90 209.78 C 283.91 204.83 284.01 199.88 283.86 194.94 C 283.73 189.45 279.98 184.16 274.72 182.47 C 274.42 174.10 274.83 165.72 274.51 157.35 C 274.12 152.60 266.19 152.39 265.46 157.03 C 265.07 165.21 265.46 173.41 265.26 181.60 C 259.09 181.48 252.91 181.45 246.75 181.61 C 246.64 174.42 246.71 167.23 246.70 160.04 C 246.60 158.43 246.87 156.57 245.71 155.27 C 243.48 152.35 237.79 153.48 237.49 157.37 Z" />
    </g>
    <g id="#ff4d69ff">
        <path fill="#ff4d69" opacity="1.00"
            d=" M 55.29 138.25 C 62.75 132.66 74.51 134.59 79.33 142.71 C 94.06 166.68 108.69 190.70 123.37 214.70 C 126.02 218.76 126.60 224.12 124.60 228.58 C 122.37 233.93 116.72 237.52 110.94 237.38 C 92.58 237.43 74.22 237.38 55.86 237.40 C 45.25 237.40 34.63 237.40 24.01 237.40 C 19.87 237.46 15.41 237.63 11.78 235.29 C 4.88 231.38 2.55 221.56 6.99 214.99 C 21.55 191.21 36.16 167.48 50.72 143.71 C 51.97 141.69 53.45 139.77 55.29 138.25 M 62.35 163.42 C 58.88 164.62 56.57 168.44 57.17 172.07 C 58.13 178.72 58.93 185.40 60.15 192.00 C 61.45 196.61 68.96 196.54 70.20 191.92 C 71.41 185.29 72.21 178.58 73.17 171.91 C 74.14 166.17 67.69 161.17 62.35 163.42 M 62.16 205.31 C 55.59 207.22 53.69 216.75 59.00 221.05 C 63.91 225.83 73.13 222.78 74.25 216.02 C 76.01 209.30 68.61 202.78 62.16 205.31 Z" />
        <path fill="#ff4d69" opacity="1.00"
            d=" M 433.16 296.14 C 437.81 288.56 448.67 286.39 456.06 291.20 C 458.34 292.84 460.26 294.94 461.68 297.36 C 467.28 306.55 472.91 315.71 478.50 324.90 C 487.43 339.48 496.35 354.05 505.24 368.65 C 507.77 372.66 508.20 377.91 506.25 382.26 C 504.04 387.43 498.62 390.99 492.99 390.97 C 477.21 391.05 461.43 390.96 445.65 391.02 C 430.76 390.95 415.87 391.06 400.98 390.97 C 397.08 390.97 393.22 389.37 390.51 386.56 C 385.85 381.93 385.03 374.11 388.64 368.61 C 403.48 344.45 418.27 320.26 433.16 296.14 M 443.26 317.34 C 440.09 318.85 438.20 322.54 438.88 326.00 C 439.82 332.47 440.62 338.97 441.77 345.41 C 442.94 350.44 451.24 350.10 452.00 345.00 C 453.06 338.34 454.05 331.66 454.89 324.96 C 455.47 319.07 448.45 314.49 443.26 317.34 M 443.13 359.18 C 436.24 361.79 435.69 372.47 442.25 375.78 C 447.94 379.38 456.20 374.71 456.11 368.00 C 456.62 361.46 449.04 356.30 443.13 359.18 Z" />
        <path fill="#ff4d69" opacity="1.00"
            d=" M 51.12 480.28 C 58.47 477.39 67.50 482.11 69.30 489.79 C 71.59 497.43 65.94 506.13 58.02 507.12 C 50.91 508.45 43.47 503.24 42.20 496.14 C 40.73 489.58 44.79 482.44 51.12 480.28 Z" />
    </g>
    <g id="#323fd4ff">
        <path fill="#323fd4" opacity="1.00"
            d=" M 172.17 172.97 C 171.38 169.14 176.60 165.63 179.62 168.48 C 182.24 171.22 186.52 173.69 186.19 177.99 C 186.14 193.66 186.26 209.34 186.13 225.01 C 190.18 227.36 194.49 229.22 198.60 231.46 C 197.53 234.36 196.65 237.35 195.92 240.36 C 190.64 237.96 185.55 235.18 180.33 232.66 C 178.45 231.88 176.75 230.18 176.91 227.99 C 176.83 211.62 176.87 195.25 176.89 178.88 C 175.32 176.93 172.79 175.54 172.17 172.97 Z" />
        <path fill="#323fd4" opacity="1.00"
            d=" M 329.32 171.36 C 330.81 170.01 332.09 168.23 334.07 167.57 C 337.64 166.60 341.27 170.98 339.37 174.26 C 338.19 176.01 336.49 177.33 335.09 178.90 C 335.17 194.95 335.11 211.00 335.13 227.05 C 335.34 229.18 334.39 231.42 332.35 232.30 C 326.95 235.08 321.54 237.87 316.04 240.43 C 315.33 237.39 314.47 234.39 313.38 231.46 C 317.48 229.21 321.82 227.42 325.86 225.05 C 325.78 209.06 325.82 193.06 325.83 177.07 C 325.64 174.59 327.84 173.01 329.32 171.36 Z" />
        <path fill="#323fd4" opacity="1.00"
            d=" M 246.75 181.61 C 252.91 181.45 259.09 181.48 265.26 181.60 C 265.33 183.76 265.07 186.02 265.79 188.10 C 266.85 191.08 271.37 191.79 273.31 189.33 C 275.02 187.48 274.58 184.77 274.72 182.47 C 279.98 184.16 283.73 189.45 283.86 194.94 C 284.01 199.88 283.91 204.83 283.90 209.78 C 276.22 209.36 268.51 209.43 260.82 209.70 C 260.44 237.46 260.75 265.23 260.66 293.00 C 260.69 317.76 260.56 342.53 260.74 367.30 L 260.75 367.81 C 257.57 367.95 254.39 367.96 251.22 367.79 L 251.23 367.31 C 251.50 331.88 251.26 296.45 251.36 261.02 C 251.25 243.91 251.51 226.81 251.23 209.71 C 243.52 209.44 235.79 209.36 228.10 209.78 C 228.08 204.82 227.99 199.85 228.14 194.89 C 228.28 189.42 232.04 184.17 237.27 182.47 C 237.43 184.74 237.01 187.42 238.63 189.29 C 240.55 191.82 245.10 191.09 246.21 188.11 C 246.95 186.04 246.66 183.77 246.75 181.61 Z" />
        <path fill="#323fd4" opacity="1.00"
            d=" M 148.85 196.00 C 148.57 193.18 151.18 190.50 154.01 190.74 C 156.36 191.03 157.74 193.16 159.39 194.62 C 160.76 196.17 162.77 197.63 162.87 199.87 C 163.03 214.58 162.78 229.29 162.99 243.99 C 173.78 250.04 184.92 255.54 195.49 261.95 C 195.46 265.24 195.77 268.63 194.59 271.78 C 181.77 264.80 168.93 257.84 156.15 250.79 C 154.31 249.95 153.44 247.89 153.60 245.96 C 153.56 231.42 153.65 216.88 153.57 202.34 C 152.29 200.03 149.26 198.83 148.85 196.00 Z" />
        <path fill="#323fd4" opacity="1.00"
            d=" M 355.65 191.75 C 358.64 188.97 363.77 192.31 363.12 196.12 C 362.65 198.87 359.68 200.08 358.43 202.38 C 358.32 217.23 358.50 232.09 358.35 246.95 C 358.44 249.25 356.39 250.64 354.59 251.57 C 342.17 258.29 329.85 265.19 317.38 271.79 C 316.20 268.67 316.56 265.31 316.51 262.06 C 327.05 255.55 338.26 250.08 349.06 243.98 C 349.20 228.99 348.90 213.98 349.21 198.99 C 350.60 196.03 353.35 193.98 355.65 191.75 Z" />
        <path fill="#323fd4" opacity="1.00"
            d=" M 157.02 307.22 C 169.84 300.33 182.52 293.19 195.38 286.40 C 195.37 289.88 195.48 293.37 195.47 296.86 C 184.78 302.85 173.97 308.66 163.13 314.38 C 162.58 329.22 163.15 344.12 162.85 358.98 C 162.12 362.05 159.13 363.91 157.11 366.15 C 154.78 368.96 149.70 367.66 149.03 364.06 C 148.23 360.72 151.51 358.69 153.51 356.65 C 153.74 341.76 153.49 326.87 153.63 311.99 C 153.44 309.76 155.14 308.06 157.02 307.22 Z" />
        <path fill="#323fd4" opacity="1.00"
            d=" M 316.60 286.30 C 329.51 293.01 342.17 300.19 354.98 307.09 C 356.88 307.97 358.57 309.71 358.38 311.98 C 358.48 326.84 358.31 341.70 358.45 356.56 C 360.43 358.65 363.75 360.69 362.95 364.06 C 362.38 367.36 357.76 368.97 355.38 366.49 C 352.76 363.79 348.45 361.37 349.08 357.00 C 349.10 343.66 349.06 330.33 349.10 317.00 C 348.99 316.34 348.77 315.03 348.66 314.37 C 337.98 308.47 327.18 302.74 316.54 296.76 C 316.54 293.27 316.61 289.78 316.60 286.30 Z" />
        <path fill="#323fd4" opacity="1.00"
            d=" M 179.40 326.40 C 185.06 323.53 190.73 320.70 196.40 317.85 C 197.00 320.95 197.83 324.00 198.84 326.99 C 194.66 329.13 190.46 331.26 186.23 333.31 C 186.12 348.88 186.19 364.46 186.20 380.03 C 186.84 384.49 182.54 387.09 179.84 389.87 C 177.27 392.32 172.56 390.42 172.23 386.93 C 171.79 383.70 174.98 381.87 176.85 379.79 C 176.92 363.54 176.83 347.29 176.88 331.04 C 176.75 329.16 177.65 327.20 179.40 326.40 Z" />
        <path fill="#323fd4" opacity="1.00"
            d=" M 313.16 326.99 C 314.19 324.00 314.99 320.94 315.59 317.85 C 321.26 320.71 327.01 323.43 332.63 326.41 C 334.34 327.25 335.25 329.17 335.12 331.04 C 335.17 347.29 335.08 363.54 335.16 379.79 C 336.51 381.14 337.98 382.41 339.12 383.97 C 340.87 386.53 339.04 390.48 335.98 390.89 C 333.23 391.55 331.35 389.04 329.57 387.42 C 328.13 385.81 325.93 384.40 325.87 382.03 C 325.72 365.78 325.91 349.54 325.78 333.30 C 321.57 331.19 317.32 329.17 313.16 326.99 Z" />
    </g>
</svg>
