<?xml version="1.0" encoding="UTF-8" ?><!DOCTYPE svg PUBLIC "-//W3C//DTD SVG 1.1//EN"
    "http://www.w3.org/Graphics/SVG/1.1/DTD/svg11.dtd">
<svg width="512pt" height="512pt" viewBox="0 0 512 512" version="1.1"
    xmlns="http://www.w3.org/2000/svg">
    <g id="#00c99fff">
        <path fill="#00c99f" opacity="1.00"
            d=" M 139.40 5.58 C 146.61 2.65 155.54 7.05 157.61 14.54 C 160.16 22.10 154.84 30.97 146.98 32.28 C 139.56 33.96 131.60 28.40 130.55 20.89 C 129.35 14.50 133.31 7.76 139.40 5.58 Z" />
        <path fill="#00c99f" opacity="1.00"
            d=" M 234.01 64.92 C 234.17 60.73 237.68 56.94 241.85 56.46 C 295.79 52.28 350.92 71.54 390.78 108.07 C 384.01 114.87 377.20 121.64 370.46 128.47 C 366.66 132.04 366.95 138.75 370.99 142.02 C 374.46 145.18 380.26 144.93 383.51 141.57 C 390.36 134.84 397.11 128.00 403.94 121.24 C 440.37 161.05 459.68 216.04 455.55 269.89 C 454.95 274.02 451.15 277.44 446.97 277.53 C 444.97 277.56 442.99 277.30 441.01 277.11 C 408.33 273.35 375.61 269.86 342.96 265.82 C 341.74 265.64 340.52 265.53 339.30 265.49 C 340.98 249.36 338.20 232.72 330.79 218.25 C 321.80 200.34 306.15 185.87 287.56 178.38 C 274.58 173.01 260.24 171.27 246.31 172.73 C 242.42 139.53 238.64 106.30 234.68 73.11 C 234.40 70.38 233.97 67.67 234.01 64.92 Z" />
        <path fill="#00c99f" opacity="1.00"
            d=" M 357.43 480.63 C 364.29 477.41 373.23 481.00 375.93 488.07 C 379.18 495.33 374.73 504.66 367.06 506.71 C 360.20 508.95 352.14 504.83 349.92 497.99 C 347.40 491.37 350.93 483.35 357.43 480.63 Z" />
    </g>
    <g id="#e7efffff">
        <path fill="#e7efff" opacity="1.00"
            d=" M 112.68 72.71 C 160.45 34.94 223.55 17.39 283.96 25.00 C 332.18 30.55 378.28 52.06 413.86 85.02 C 406.11 92.65 398.49 100.40 390.78 108.07 C 350.92 71.54 295.79 52.28 241.85 56.46 C 237.68 56.94 234.17 60.73 234.01 64.92 C 233.97 67.67 234.40 70.38 234.68 73.11 C 234.54 72.61 234.25 71.62 234.10 71.13 C 198.58 75.30 164.36 89.98 136.91 112.92 C 109.05 135.97 88.24 167.38 77.82 202.00 C 66.40 239.29 67.24 280.15 80.07 316.96 C 89.16 343.49 104.57 367.66 124.18 387.65 C 133.46 397.47 144.33 405.66 155.55 413.12 C 144.49 424.21 133.40 435.28 122.28 446.32 C 81.56 418.01 50.49 376.13 35.02 329.01 C 18.15 278.35 19.52 221.85 38.92 172.09 C 53.91 133.10 79.75 98.39 112.68 72.71 Z" />
        <path fill="#e7efff" opacity="1.00"
            d=" M 403.94 121.24 C 411.63 113.55 419.30 105.84 427.03 98.19 C 463.44 137.48 485.63 189.64 488.33 243.17 C 482.87 245.34 479.00 251.04 479.48 256.98 C 479.69 262.33 483.36 267.19 488.29 269.18 C 486.45 303.55 476.74 337.47 460.19 367.65 C 456.31 367.31 452.55 365.87 449.55 363.37 C 440.29 355.88 431.15 348.24 421.87 340.78 C 422.07 340.34 422.48 339.46 422.69 339.02 C 432.35 319.66 438.56 298.60 441.01 277.11 C 442.99 277.30 444.97 277.56 446.97 277.53 C 451.15 277.44 454.95 274.02 455.55 269.89 C 459.68 216.04 440.37 161.05 403.94 121.24 Z" />
        <path fill="#e7efff" opacity="1.00"
            d=" M 412.37 357.05 C 420.95 364.00 429.46 371.04 438.04 378.00 C 441.54 380.71 445.39 383.18 449.78 384.15 C 449.01 386.13 447.84 387.89 446.54 389.56 C 424.45 421.07 394.45 447.01 360.02 464.19 C 319.84 484.41 273.66 492.43 229.01 487.12 C 197.09 483.42 165.96 473.04 138.28 456.72 C 149.58 445.36 160.94 434.06 172.25 422.71 C 177.36 424.95 182.36 427.42 187.58 429.41 C 218.30 441.70 252.30 445.09 284.94 440.15 C 323.60 434.11 360.36 415.62 387.80 387.66 C 396.89 378.23 405.36 368.14 412.37 357.05 Z" />
    </g>
    <g id="#323fd4ff">
        <path fill="#323fd4" opacity="1.00"
            d=" M 430.41 37.62 C 435.53 35.94 441.49 39.66 442.20 45.00 C 443.19 50.05 439.21 55.31 434.10 55.76 C 429.34 56.47 424.53 52.79 423.87 48.04 C 423.01 43.55 426.05 38.84 430.41 37.62 Z" />
        <path fill="#323fd4" opacity="1.00"
            d=" M 468.38 37.43 C 478.24 37.07 488.14 37.35 498.03 37.29 C 503.14 37.10 507.69 41.86 507.31 46.96 C 507.21 51.75 502.89 55.88 498.11 55.82 C 488.71 55.89 479.30 55.91 469.90 55.82 C 465.55 55.81 461.54 52.33 460.95 48.02 C 460.02 43.23 463.57 38.20 468.38 37.43 Z" />
        <path fill="#323fd4" opacity="1.00"
            d=" M 413.86 85.02 C 420.74 78.25 430.34 74.43 439.98 74.48 C 459.00 74.45 478.02 74.47 497.04 74.47 C 500.89 74.20 504.88 76.27 506.46 79.87 C 508.49 84.01 506.81 89.48 502.79 91.74 C 500.19 93.43 496.96 93.02 494.02 93.08 C 476.02 93.06 458.03 93.05 440.03 93.08 C 435.25 93.04 430.47 94.86 427.03 98.19 C 419.30 105.84 411.63 113.55 403.94 121.24 C 397.11 128.00 390.36 134.84 383.51 141.57 C 380.26 144.93 374.46 145.18 370.99 142.02 C 366.95 138.75 366.66 132.04 370.46 128.47 C 377.20 121.64 384.01 114.87 390.78 108.07 C 398.49 100.40 406.11 92.65 413.86 85.02 Z" />
        <path fill="#323fd4" opacity="1.00"
            d=" M 394.18 328.13 C 397.40 325.15 402.76 325.09 406.12 327.89 C 411.31 332.03 416.46 336.25 421.53 340.56 C 421.82 340.17 422.40 339.40 422.69 339.02 C 422.48 339.46 422.07 340.34 421.87 340.78 C 431.15 348.24 440.29 355.88 449.55 363.37 C 452.55 365.87 456.31 367.31 460.19 367.65 C 472.80 367.86 485.43 367.64 498.05 367.75 C 503.02 367.59 507.48 372.09 507.32 377.06 C 507.42 382.04 502.92 386.46 497.94 386.31 C 486.29 386.38 474.64 386.31 462.99 386.34 C 458.50 386.37 453.93 385.95 449.78 384.15 C 445.39 383.18 441.54 380.71 438.04 378.00 C 429.46 371.04 420.95 364.00 412.37 357.05 C 406.30 351.96 400.03 347.10 394.01 341.95 C 389.94 338.47 390.03 331.51 394.18 328.13 Z" />
        <path fill="#323fd4" opacity="1.00"
            d=" M 165.40 403.34 C 168.68 400.05 174.43 400.00 177.84 403.12 C 181.30 406.03 182.07 411.66 179.35 415.32 C 177.26 418.03 174.62 420.25 172.25 422.71 C 160.94 434.06 149.58 445.36 138.28 456.72 C 131.12 464.74 120.82 470.06 109.95 470.09 C 90.64 470.18 71.33 470.12 52.01 470.12 C 47.25 470.47 42.55 466.90 42.01 462.09 C 41.08 456.82 45.57 451.53 50.89 451.52 C 68.92 451.39 86.94 451.50 104.97 451.47 C 111.11 451.92 117.79 450.91 122.28 446.32 C 133.40 435.28 144.49 424.21 155.55 413.12 C 158.88 409.90 162.04 406.52 165.40 403.34 Z" />
        <path fill="#323fd4" opacity="1.00"
            d=" M 462.34 405.50 C 464.15 404.85 466.10 404.95 468.00 404.92 C 478.01 404.98 488.03 404.87 498.05 404.97 C 502.90 404.85 507.28 409.11 507.32 413.96 C 507.60 419.01 503.10 423.68 498.03 423.52 C 487.35 423.55 476.67 423.53 465.99 423.53 C 461.54 423.84 457.20 420.56 456.37 416.17 C 455.31 411.76 458.07 406.93 462.34 405.50 Z" />
        <path fill="#323fd4" opacity="1.00"
            d=" M 48.14 489.26 C 58.32 488.08 68.73 489.03 79.00 488.75 C 84.75 488.47 89.61 494.39 88.21 499.97 C 87.39 504.20 83.30 507.45 78.99 507.31 C 69.67 507.34 60.36 507.37 51.05 507.30 C 46.50 507.35 42.37 503.56 41.97 499.05 C 41.42 494.86 44.14 490.58 48.14 489.26 Z" />
        <path fill="#323fd4" opacity="1.00"
            d=" M 113.20 489.28 C 119.66 486.60 127.19 493.14 125.45 499.90 C 124.36 506.76 114.97 509.81 110.07 504.90 C 104.90 500.58 106.77 491.26 113.20 489.28 Z" />
    </g>
    <g id="#4e6affff">
        <path fill="#4e6aff" opacity="1.00"
            d=" M 136.91 112.92 C 164.36 89.98 198.58 75.30 234.10 71.13 C 234.25 71.62 234.54 72.61 234.68 73.11 C 238.64 106.30 242.42 139.53 246.31 172.73 C 229.14 174.82 212.61 182.17 199.83 193.86 C 185.73 206.52 176.15 224.11 173.25 242.84 C 168.96 268.86 177.89 296.62 196.70 315.13 C 181.80 330.74 166.19 345.69 151.07 361.09 C 142.03 369.86 133.50 379.18 124.18 387.65 C 104.57 367.66 89.16 343.49 80.07 316.96 C 67.24 280.15 66.40 239.29 77.82 202.00 C 88.24 167.38 109.05 135.97 136.91 112.92 M 151.29 326.44 C 148.21 328.04 148.23 332.91 151.30 334.50 C 154.38 336.50 158.79 333.55 158.22 329.96 C 157.99 326.75 154.02 324.71 151.29 326.44 M 137.34 340.38 C 132.89 344.21 128.99 348.67 124.73 352.71 C 123.06 354.50 120.48 356.30 121.06 359.11 C 121.43 362.63 126.27 364.39 128.76 361.84 C 132.90 357.93 136.81 353.79 140.89 349.84 C 142.46 348.21 144.61 346.52 144.29 343.98 C 144.09 340.76 140.10 338.61 137.34 340.38 Z" />
    </g>
    <g id="#ff4d69ff">
        <path fill="#ff4d69" opacity="1.00"
            d=" M 13.42 161.66 C 20.49 158.62 29.43 162.66 31.77 170.00 C 34.60 177.42 29.69 186.46 21.93 188.12 C 14.82 190.05 6.84 185.28 5.16 178.13 C 3.25 171.55 7.07 164.12 13.42 161.66 Z" />
        <path fill="#ff4d69" opacity="1.00"
            d=" M 339.20 265.80 C 340.45 265.81 341.70 265.82 342.96 265.82 C 375.61 269.86 408.33 273.35 441.01 277.11 C 438.56 298.60 432.35 319.66 422.69 339.02 C 422.40 339.40 421.82 340.17 421.53 340.56 C 416.46 336.25 411.31 332.03 406.12 327.89 C 402.76 325.09 397.40 325.15 394.18 328.13 C 390.03 331.51 389.94 338.47 394.01 341.95 C 400.03 347.10 406.30 351.96 412.37 357.05 C 405.36 368.14 396.89 378.23 387.80 387.66 C 363.49 363.65 339.50 339.31 315.23 315.26 C 328.44 302.06 337.07 284.37 339.20 265.80 Z" />
    </g>
    <g id="#ffffffff">
        <path fill="#ffffff" opacity="1.00"
            d=" M 246.31 172.73 C 260.24 171.27 274.58 173.01 287.56 178.38 C 306.15 185.87 321.80 200.34 330.79 218.25 C 338.20 232.72 340.98 249.36 339.30 265.49 C 340.52 265.53 341.74 265.64 342.96 265.82 C 341.70 265.82 340.45 265.81 339.20 265.80 C 337.07 284.37 328.44 302.06 315.23 315.26 C 301.56 328.91 283.11 337.70 263.85 339.40 C 239.32 341.85 213.98 332.71 196.70 315.13 C 177.89 296.62 168.96 268.86 173.25 242.84 C 176.15 224.11 185.73 206.52 199.83 193.86 C 212.61 182.17 229.14 174.82 246.31 172.73 M 245.34 196.44 C 233.02 198.66 221.42 204.81 212.71 213.80 C 201.79 224.89 195.41 240.35 195.51 255.93 C 195.39 271.32 201.57 286.60 212.23 297.69 C 223.43 309.54 239.61 316.59 255.95 316.48 C 279.69 316.84 302.58 301.61 311.63 279.70 C 317.99 265.02 318.12 247.76 311.93 233.00 C 306.30 219.16 295.30 207.61 281.77 201.28 C 270.53 195.90 257.59 194.26 245.34 196.44 Z" />
        <path fill="#ffffff" opacity="1.00"
            d=" M 151.29 326.44 C 154.02 324.71 157.99 326.75 158.22 329.96 C 158.79 333.55 154.38 336.50 151.30 334.50 C 148.23 332.91 148.21 328.04 151.29 326.44 Z" />
        <path fill="#ffffff" opacity="1.00"
            d=" M 137.34 340.38 C 140.10 338.61 144.09 340.76 144.29 343.98 C 144.61 346.52 142.46 348.21 140.89 349.84 C 136.81 353.79 132.90 357.93 128.76 361.84 C 126.27 364.39 121.43 362.63 121.06 359.11 C 120.48 356.30 123.06 354.50 124.73 352.71 C 128.99 348.67 132.89 344.21 137.34 340.38 Z" />
    </g>
    <g id="#a5bcedff">
        <path fill="#a5bced" opacity="1.00"
            d=" M 245.34 196.44 C 257.59 194.26 270.53 195.90 281.77 201.28 C 295.30 207.61 306.30 219.16 311.93 233.00 C 318.12 247.76 317.99 265.02 311.63 279.70 C 302.58 301.61 279.69 316.84 255.95 316.48 C 239.61 316.59 223.43 309.54 212.23 297.69 C 201.57 286.60 195.39 271.32 195.51 255.93 C 195.41 240.35 201.79 224.89 212.71 213.80 C 221.42 204.81 233.02 198.66 245.34 196.44 M 220.21 247.33 C 213.46 249.34 211.96 259.37 217.75 263.31 C 223.06 267.87 232.36 263.96 232.66 256.93 C 233.64 250.42 226.27 244.71 220.21 247.33 M 252.36 247.45 C 245.75 249.79 244.80 259.62 250.52 263.45 C 255.82 267.88 264.91 263.81 265.21 256.93 C 266.21 250.23 258.49 244.51 252.36 247.45 M 285.24 247.34 C 278.36 249.53 277.18 260.01 283.37 263.69 C 289.05 267.89 298.29 263.15 297.82 256.01 C 298.26 249.71 290.92 244.92 285.24 247.34 Z" />
    </g>
    <g id="#ffa100ff">
        <path fill="#ffa100" opacity="1.00"
            d=" M 488.33 243.17 C 496.95 239.50 507.57 246.65 507.30 256.04 C 507.77 265.55 497.03 272.96 488.29 269.18 C 483.36 267.19 479.69 262.33 479.48 256.98 C 479.00 251.04 482.87 245.34 488.33 243.17 Z" />
    </g>
    <g id="#7f96d1ff">
        <path fill="#7f96d1" opacity="1.00"
            d=" M 220.21 247.33 C 226.27 244.71 233.64 250.42 232.66 256.93 C 232.36 263.96 223.06 267.87 217.75 263.31 C 211.96 259.37 213.46 249.34 220.21 247.33 Z" />
        <path fill="#7f96d1" opacity="1.00"
            d=" M 252.36 247.45 C 258.49 244.51 266.21 250.23 265.21 256.93 C 264.91 263.81 255.82 267.88 250.52 263.45 C 244.80 259.62 245.75 249.79 252.36 247.45 Z" />
        <path fill="#7f96d1" opacity="1.00"
            d=" M 285.24 247.34 C 290.92 244.92 298.26 249.71 297.82 256.01 C 298.29 263.15 289.05 267.89 283.37 263.69 C 277.18 260.01 278.36 249.53 285.24 247.34 Z" />
    </g>
    <g id="#8fa2ffff">
        <path fill="#8fa2ff" opacity="1.00"
            d=" M 196.70 315.13 C 213.98 332.71 239.32 341.85 263.85 339.40 C 283.11 337.70 301.56 328.91 315.23 315.26 C 339.50 339.31 363.49 363.65 387.80 387.66 C 360.36 415.62 323.60 434.11 284.94 440.15 C 252.30 445.09 218.30 441.70 187.58 429.41 C 182.36 427.42 177.36 424.95 172.25 422.71 C 174.62 420.25 177.26 418.03 179.35 415.32 C 182.07 411.66 181.30 406.03 177.84 403.12 C 174.43 400.00 168.68 400.05 165.40 403.34 C 162.04 406.52 158.88 409.90 155.55 413.12 C 144.33 405.66 133.46 397.47 124.18 387.65 C 133.50 379.18 142.03 369.86 151.07 361.09 C 166.19 345.69 181.80 330.74 196.70 315.13 Z" />
    </g>
</svg>
