<?xml version="1.0" encoding="UTF-8" ?><!DOCTYPE svg PUBLIC "-//W3C//DTD SVG 1.1//EN"
    "http://www.w3.org/Graphics/SVG/1.1/DTD/svg11.dtd">
<svg width="512pt" height="512pt" viewBox="0 0 512 512" version="1.1"
    xmlns="http://www.w3.org/2000/svg">
    <g id="#00c99fff">
        <path fill="#00c99f" opacity="1.00"
            d=" M 457.25 5.15 C 465.07 2.82 473.88 8.80 474.61 16.92 C 475.76 24.49 469.57 32.09 461.92 32.50 C 454.63 33.28 447.52 27.35 446.95 20.05 C 446.10 13.42 450.78 6.74 457.25 5.15 Z" />
        <path fill="#00c99f" opacity="1.00"
            d=" M 381.68 303.03 C 381.33 300.08 384.07 297.54 386.97 297.88 C 395.99 297.86 405.02 297.82 414.05 297.90 C 416.76 297.71 419.14 300.21 418.89 302.91 C 418.94 316.76 418.89 330.61 418.91 344.46 C 423.82 344.55 428.73 344.30 433.63 344.56 C 437.21 344.90 438.73 349.74 436.30 352.29 C 425.60 367.59 414.93 382.90 404.17 398.15 C 402.42 401.10 397.75 400.85 396.18 397.85 C 385.47 382.55 374.73 367.26 364.06 351.93 C 361.82 349.34 363.64 344.72 367.09 344.54 C 371.94 344.33 376.80 344.53 381.65 344.48 C 381.70 330.66 381.63 316.84 381.68 303.03 Z" />
        <path fill="#00c99f" opacity="1.00"
            d=" M 101.42 480.63 C 108.52 477.27 117.80 481.29 120.19 488.77 C 122.96 495.99 118.38 504.85 110.89 506.76 C 104.07 508.90 96.12 504.77 93.91 497.99 C 91.42 491.37 94.93 483.36 101.42 480.63 Z" />
    </g>
    <g id="#4e6affff">
        <path fill="#4e6aff" opacity="1.00"
            d=" M 203.88 29.17 C 220.01 19.14 239.01 13.71 258.03 14.19 C 275.69 14.48 293.15 19.82 308.13 29.14 C 320.08 36.82 330.47 46.95 338.13 58.93 C 340.59 62.56 342.39 66.57 344.69 70.30 C 359.07 68.73 373.98 74.57 383.59 85.36 C 391.37 93.85 395.57 105.29 395.68 116.77 C 410.66 122.52 423.91 132.79 432.94 146.08 C 443.89 161.94 448.66 181.88 446.17 200.98 C 444.34 215.59 438.25 229.62 428.89 240.98 C 418.05 254.28 402.76 263.88 386.05 267.81 C 372.43 271.18 358.31 269.55 344.44 269.94 C 344.44 265.25 344.44 260.56 344.43 255.88 C 332.17 243.38 319.81 230.96 307.27 218.74 C 266.85 218.75 226.42 218.68 186.00 218.78 C 176.63 218.64 168.01 226.64 167.66 236.05 C 167.41 247.34 167.65 258.64 167.56 269.94 C 153.41 269.54 138.98 271.25 125.11 267.61 C 106.18 262.90 89.15 250.92 78.39 234.63 C 69.36 221.29 64.76 205.08 65.13 188.99 C 65.54 169.46 73.57 150.21 87.12 136.13 C 95.22 127.56 105.32 120.98 116.32 116.76 C 116.39 104.59 121.19 92.48 129.83 83.86 C 139.48 74.09 153.59 68.76 167.29 70.31 C 175.63 53.70 188.06 39.07 203.88 29.17 Z" />
    </g>
    <g id="#e8f0ffff">
        <path fill="#e8f0ff" opacity="1.00"
            d=" M 94.50 88.53 C 124.65 59.26 162.94 38.56 203.88 29.17 C 188.06 39.07 175.63 53.70 167.29 70.31 C 153.59 68.76 139.48 74.09 129.83 83.86 C 121.19 92.48 116.39 104.59 116.32 116.76 C 105.32 120.98 95.22 127.56 87.12 136.13 C 73.57 150.21 65.54 169.46 65.13 188.99 C 64.76 205.08 69.36 221.29 78.39 234.63 C 89.15 250.92 106.18 262.90 125.11 267.61 C 138.98 271.25 153.41 269.54 167.56 269.94 C 167.58 321.29 167.50 372.64 167.59 423.98 C 167.51 433.74 176.29 442.32 186.02 442.17 C 230.69 442.28 275.36 442.16 320.02 442.23 C 324.31 442.20 328.79 442.50 332.84 440.81 C 338.91 438.38 343.49 432.54 344.23 426.02 C 344.63 422.36 344.42 418.68 344.45 415.01 C 344.44 366.65 344.46 318.29 344.44 269.94 C 358.31 269.55 372.43 271.18 386.05 267.81 C 402.76 263.88 418.05 254.28 428.89 240.98 C 438.25 229.62 444.34 215.59 446.17 200.98 C 448.66 181.88 443.89 161.94 432.94 146.08 C 423.91 132.79 410.66 122.52 395.68 116.77 C 395.57 105.29 391.37 93.85 383.59 85.36 C 373.98 74.57 359.07 68.73 344.69 70.30 C 342.39 66.57 340.59 62.56 338.13 58.93 C 330.47 46.95 320.08 36.82 308.13 29.14 C 341.69 36.85 373.51 52.10 400.44 73.57 C 441.32 105.80 470.89 152.13 482.56 202.89 C 493.51 249.17 489.73 298.80 471.89 342.89 C 457.00 379.99 432.29 413.07 401.01 437.96 C 368.93 463.68 329.86 480.62 289.14 486.34 C 246.28 492.57 201.72 486.46 162.12 468.93 C 120.15 450.48 83.92 419.27 59.43 380.52 C 26.31 328.91 15.25 263.87 29.13 204.17 C 38.99 160.33 62.08 119.61 94.50 88.53 M 107.96 299.86 C 97.06 315.32 86.21 330.83 75.41 346.36 C 73.12 349.08 75.35 353.75 78.89 353.67 C 83.62 353.85 88.35 353.67 93.09 353.74 C 93.11 367.50 93.07 381.26 93.10 395.01 C 92.74 397.79 95.14 400.51 97.99 400.25 C 107.00 400.29 116.02 400.27 125.03 400.26 C 127.55 400.58 130.23 398.64 130.26 396.01 C 130.56 381.89 130.04 367.74 130.51 353.63 C 135.31 353.75 140.12 353.85 144.92 353.64 C 148.38 353.40 150.15 348.80 147.92 346.21 C 137.26 330.87 126.52 315.58 115.79 300.28 C 114.25 297.41 109.75 297.05 107.96 299.86 M 381.68 303.03 C 381.63 316.84 381.70 330.66 381.65 344.48 C 376.80 344.53 371.94 344.33 367.09 344.54 C 363.64 344.72 361.82 349.34 364.06 351.93 C 374.73 367.26 385.47 382.55 396.18 397.85 C 397.75 400.85 402.42 401.10 404.17 398.15 C 414.93 382.90 425.60 367.59 436.30 352.29 C 438.73 349.74 437.21 344.90 433.63 344.56 C 428.73 344.30 423.82 344.55 418.91 344.46 C 418.89 330.61 418.94 316.76 418.89 302.91 C 419.14 300.21 416.76 297.71 414.05 297.90 C 405.02 297.82 395.99 297.86 386.97 297.88 C 384.07 297.54 381.33 300.08 381.68 303.03 Z" />
        <path fill="#e8f0ff" opacity="1.00"
            d=" M 263.15 279.24 C 266.70 277.50 271.15 281.13 269.78 284.92 C 263.61 306.62 257.43 328.32 251.18 350.00 C 250.57 353.06 246.62 355.12 243.98 353.10 C 241.46 351.77 241.58 348.59 242.33 346.24 C 248.37 325.26 254.36 304.25 260.34 283.25 C 260.74 281.62 261.60 280.03 263.15 279.24 Z" />
        <path fill="#e8f0ff" opacity="1.00"
            d=" M 225.41 289.27 C 228.64 286.62 233.61 290.13 232.98 293.99 C 231.99 296.73 229.44 298.46 227.53 300.53 C 222.40 305.77 217.00 310.77 212.04 316.16 L 212.03 316.88 C 218.33 323.60 225.15 329.84 231.49 336.53 C 234.28 338.93 232.60 344.04 228.97 344.41 C 226.95 344.96 225.04 343.66 223.71 342.28 C 216.56 335.08 209.38 327.90 202.20 320.74 C 200.71 319.33 199.39 317.33 200.11 315.19 C 201.10 312.97 203.09 311.43 204.73 309.72 C 211.70 302.97 218.30 295.84 225.41 289.27 Z" />
        <path fill="#e8f0ff" opacity="1.00"
            d=" M 280.07 295.95 C 277.54 293.41 279.84 288.92 283.08 288.46 C 285.10 287.89 286.93 289.39 288.28 290.72 C 295.42 297.90 302.62 305.04 309.78 312.22 C 311.25 313.66 312.62 315.66 311.88 317.82 C 310.78 320.23 308.59 321.89 306.81 323.77 C 300.42 330.08 294.13 336.49 287.74 342.79 C 285.54 345.43 280.64 344.97 279.48 341.57 C 278.34 339.57 279.55 337.35 281.04 335.95 C 287.42 329.55 293.83 323.18 300.23 316.79 C 294.15 309.30 286.53 303.13 280.07 295.95 Z" />
        <path fill="#e8f0ff" opacity="1.00"
            d=" M 198.39 372.54 C 202.21 371.70 206.17 372.27 210.04 372.13 C 213.54 372.24 217.12 371.73 220.55 372.55 C 224.77 373.77 224.34 381.08 219.91 381.66 C 212.99 382.04 206.00 382.00 199.08 381.68 C 194.57 381.16 194.09 373.74 198.39 372.54 Z" />
        <path fill="#e8f0ff" opacity="1.00"
            d=" M 245.29 372.44 C 247.16 371.99 249.10 372.13 251.01 372.10 C 271.36 372.23 291.72 371.96 312.07 372.23 C 315.37 372.15 317.56 375.88 316.29 378.82 C 315.56 381.53 312.38 382.00 310.00 381.89 C 288.69 381.77 267.37 382.05 246.06 381.75 C 241.09 381.49 240.44 373.51 245.29 372.44 Z" />
        <path fill="#e8f0ff" opacity="1.00"
            d=" M 198.36 400.47 C 205.19 399.56 212.20 400.14 219.09 400.15 C 224.47 400.03 225.07 409.05 219.73 409.60 C 212.88 409.92 205.95 409.93 199.10 409.59 C 194.57 409.15 194.10 401.71 198.36 400.47 Z" />
        <path fill="#e8f0ff" opacity="1.00"
            d=" M 245.29 400.35 C 267.16 399.65 289.14 400.21 311.05 400.06 C 314.29 399.67 317.42 402.65 316.50 405.95 C 316.25 408.64 313.47 409.94 311.05 409.77 C 290.37 409.83 269.69 409.74 249.01 409.81 C 246.90 409.77 244.31 409.88 242.94 407.95 C 240.84 405.50 242.08 401.11 245.29 400.35 Z" />
    </g>
    <g id="#ffa100ff">
        <path fill="#ffa100" opacity="1.00"
            d=" M 14.22 61.25 C 21.59 58.57 30.42 63.43 32.13 71.08 C 34.13 78.26 29.25 86.37 21.98 87.98 C 14.91 89.95 6.93 85.23 5.19 78.12 C 3.12 71.24 7.39 63.37 14.22 61.25 Z" />
    </g>
    <g id="#a5bcedff">
        <path fill="#a5bced" opacity="1.00"
            d=" M 167.66 236.05 C 168.01 226.64 176.63 218.64 186.00 218.78 C 226.42 218.68 266.85 218.75 307.27 218.74 C 307.15 227.50 307.21 236.25 307.19 245.01 C 307.09 248.14 307.83 251.53 310.33 253.64 C 312.91 256.09 316.67 256.02 319.99 256.04 C 328.14 255.93 336.29 256.12 344.43 255.88 C 344.44 260.56 344.44 265.25 344.44 269.94 C 344.46 318.29 344.44 366.65 344.45 415.01 C 344.42 418.68 344.63 422.36 344.23 426.02 C 343.49 432.54 338.91 438.38 332.84 440.81 C 328.79 442.50 324.31 442.20 320.02 442.23 C 275.36 442.16 230.69 442.28 186.02 442.17 C 176.29 442.32 167.51 433.74 167.59 423.98 C 167.50 372.64 167.58 321.29 167.56 269.94 C 167.65 258.64 167.41 247.34 167.66 236.05 M 263.15 279.24 C 261.60 280.03 260.74 281.62 260.34 283.25 C 254.36 304.25 248.37 325.26 242.33 346.24 C 241.58 348.59 241.46 351.77 243.98 353.10 C 246.62 355.12 250.57 353.06 251.18 350.00 C 257.43 328.32 263.61 306.62 269.78 284.92 C 271.15 281.13 266.70 277.50 263.15 279.24 M 225.41 289.27 C 218.30 295.84 211.70 302.97 204.73 309.72 C 203.09 311.43 201.10 312.97 200.11 315.19 C 199.39 317.33 200.71 319.33 202.20 320.74 C 209.38 327.90 216.56 335.08 223.71 342.28 C 225.04 343.66 226.95 344.96 228.97 344.41 C 232.60 344.04 234.28 338.93 231.49 336.53 C 225.15 329.84 218.33 323.60 212.03 316.88 L 212.04 316.16 C 217.00 310.77 222.40 305.77 227.53 300.53 C 229.44 298.46 231.99 296.73 232.98 293.99 C 233.61 290.13 228.64 286.62 225.41 289.27 M 280.07 295.95 C 286.53 303.13 294.15 309.30 300.23 316.79 C 293.83 323.18 287.42 329.55 281.04 335.95 C 279.55 337.35 278.34 339.57 279.48 341.57 C 280.64 344.97 285.54 345.43 287.74 342.79 C 294.13 336.49 300.42 330.08 306.81 323.77 C 308.59 321.89 310.78 320.23 311.88 317.82 C 312.62 315.66 311.25 313.66 309.78 312.22 C 302.62 305.04 295.42 297.90 288.28 290.72 C 286.93 289.39 285.10 287.89 283.08 288.46 C 279.84 288.92 277.54 293.41 280.07 295.95 M 198.39 372.54 C 194.09 373.74 194.57 381.16 199.08 381.68 C 206.00 382.00 212.99 382.04 219.91 381.66 C 224.34 381.08 224.77 373.77 220.55 372.55 C 217.12 371.73 213.54 372.24 210.04 372.13 C 206.17 372.27 202.21 371.70 198.39 372.54 M 245.29 372.44 C 240.44 373.51 241.09 381.49 246.06 381.75 C 267.37 382.05 288.69 381.77 310.00 381.89 C 312.38 382.00 315.56 381.53 316.29 378.82 C 317.56 375.88 315.37 372.15 312.07 372.23 C 291.72 371.96 271.36 372.23 251.01 372.10 C 249.10 372.13 247.16 371.99 245.29 372.44 M 198.36 400.47 C 194.10 401.71 194.57 409.15 199.10 409.59 C 205.95 409.93 212.88 409.92 219.73 409.60 C 225.07 409.05 224.47 400.03 219.09 400.15 C 212.20 400.14 205.19 399.56 198.36 400.47 M 245.29 400.35 C 242.08 401.11 240.84 405.50 242.94 407.95 C 244.31 409.88 246.90 409.77 249.01 409.81 C 269.69 409.74 290.37 409.83 311.05 409.77 C 313.47 409.94 316.25 408.64 316.50 405.95 C 317.42 402.65 314.29 399.67 311.05 400.06 C 289.14 400.21 267.16 399.65 245.29 400.35 Z" />
    </g>
    <g id="#7f96d1ff">
        <path fill="#7f96d1" opacity="1.00"
            d=" M 307.27 218.74 C 319.81 230.96 332.17 243.38 344.43 255.88 C 336.29 256.12 328.14 255.93 319.99 256.04 C 316.67 256.02 312.91 256.09 310.33 253.64 C 307.83 251.53 307.09 248.14 307.19 245.01 C 307.21 236.25 307.15 227.50 307.27 218.74 Z" />
    </g>
    <g id="#ff4d69ff">
        <path fill="#ff4d69" opacity="1.00"
            d=" M 107.96 299.86 C 109.75 297.05 114.25 297.41 115.79 300.28 C 126.52 315.58 137.26 330.87 147.92 346.21 C 150.15 348.80 148.38 353.40 144.92 353.64 C 140.12 353.85 135.31 353.75 130.51 353.63 C 130.04 367.74 130.56 381.89 130.26 396.01 C 130.23 398.64 127.55 400.58 125.03 400.26 C 116.02 400.27 107.00 400.29 97.99 400.25 C 95.14 400.51 92.74 397.79 93.10 395.01 C 93.07 381.26 93.11 367.50 93.09 353.74 C 88.35 353.67 83.62 353.85 78.89 353.67 C 75.35 353.75 73.12 349.08 75.41 346.36 C 86.21 330.83 97.06 315.32 107.96 299.86 Z" />
        <path fill="#ff4d69" opacity="1.00"
            d=" M 488.36 424.53 C 495.73 421.43 504.99 426.13 506.82 433.91 C 508.96 441.05 504.22 449.23 496.98 450.97 C 489.79 453.12 481.59 448.28 479.90 441.00 C 478.02 434.38 481.93 426.89 488.36 424.53 Z" />
    </g>
</svg>
