<?xml version="1.0" encoding="UTF-8" ?><!DOCTYPE svg PUBLIC "-//W3C//DTD SVG 1.1//EN"
    "http://www.w3.org/Graphics/SVG/1.1/DTD/svg11.dtd">
<svg width="512pt" height="512pt" viewBox="0 0 512 512" version="1.1"
    xmlns="http://www.w3.org/2000/svg">
    <g id="#ffa100ff">
        <path fill="#ffa100" opacity="1.00"
            d=" M 457.07 5.21 C 464.62 2.84 473.27 8.28 474.49 16.07 C 475.86 22.70 471.61 29.88 465.14 31.84 C 458.47 34.23 450.50 30.50 447.92 23.94 C 444.63 16.56 449.22 7.13 457.07 5.21 Z" />
    </g>
    <g id="#e7efffff">
        <path fill="#e7efff" opacity="1.00"
            d=" M 188.18 47.16 C 230.27 38.00 274.88 40.87 315.46 55.33 C 329.62 60.28 343.11 66.94 356.16 74.29 C 351.44 76.24 346.57 77.84 341.91 79.91 C 338.04 83.04 340.46 88.79 339.78 93.07 C 268.39 93.02 197.00 93.14 125.61 93.01 C 114.43 93.02 103.25 93.17 92.07 92.97 C 119.90 70.42 153.19 54.71 188.18 47.16 Z" />
        <path fill="#e7efff" opacity="1.00"
            d=" M 32.18 164.48 C 32.46 165.97 32.62 167.47 32.62 168.99 C 32.52 222.74 32.70 276.49 32.53 330.24 C 32.22 348.42 32.54 366.61 32.37 384.79 L 32.36 385.41 C 27.25 374.39 21.68 363.49 17.85 351.91 C 4.37 313.68 1.12 271.89 8.60 232.05 C 12.80 208.45 21.18 185.73 32.18 164.48 Z" />
        <path fill="#e7efff" opacity="1.00"
            d=" M 442.04 180.93 C 444.01 178.91 445.80 176.71 447.67 174.60 C 466.37 214.50 473.95 259.66 468.26 303.43 C 464.89 331.79 455.88 359.36 442.57 384.60 C 441.71 375.75 442.45 366.82 442.19 357.94 C 442.09 298.93 442.40 239.93 442.04 180.93 Z" />
        <path fill="#e7efff" opacity="1.00"
            d=" M 91.78 456.25 C 113.89 456.14 135.99 456.30 158.09 456.17 C 218.05 456.10 278.01 456.17 337.97 456.14 C 352.87 456.32 367.79 455.80 382.68 456.41 C 352.33 480.65 315.89 497.28 277.58 503.82 C 241.94 510.15 204.84 507.86 170.20 497.41 C 141.70 488.96 115.10 474.62 91.78 456.25 Z" />
    </g>
    <g id="#00c99fff">
        <path fill="#00c99f" opacity="1.00"
            d=" M 14.40 56.55 C 22.33 53.71 31.71 59.74 32.43 68.11 C 33.42 74.79 28.77 81.66 22.22 83.26 C 15.24 85.34 7.23 80.85 5.30 73.84 C 2.95 66.84 7.33 58.60 14.40 56.55 Z" />
        <path fill="#00c99f" opacity="1.00"
            d=" M 401.78 56.80 C 403.38 56.33 405.13 55.29 406.78 56.24 C 426.79 63.91 446.80 71.57 466.78 79.33 C 469.16 80.03 470.43 82.58 470.11 84.95 C 469.83 98.62 470.87 112.37 469.03 125.97 C 466.47 143.72 458.97 160.68 447.67 174.60 C 445.80 176.71 444.01 178.91 442.04 180.93 C 431.64 191.39 419.09 200.20 405.02 204.80 C 375.54 194.77 352.18 169.06 343.69 139.19 C 339.08 124.25 339.77 108.50 339.78 93.07 C 340.46 88.79 338.04 83.04 341.91 79.91 C 346.57 77.84 351.44 76.24 356.16 74.29 C 371.39 68.52 386.52 62.51 401.78 56.80 M 426.55 109.63 C 419.27 116.63 412.33 124.02 404.98 130.94 C 400.77 127.26 396.99 122.99 392.89 119.15 C 389.28 115.84 383.07 116.24 379.91 119.99 C 376.64 123.46 376.80 129.43 380.25 132.72 C 386.43 138.86 392.54 145.09 398.78 151.18 C 402.53 154.74 408.92 154.07 412.19 150.19 C 421.20 141.18 430.22 132.18 439.20 123.15 C 442.60 119.63 442.40 113.45 438.79 110.16 C 435.59 106.96 430.01 106.71 426.55 109.63 Z" />
        <path fill="#00c99f" opacity="1.00"
            d=" M 256.02 376.91 C 255.93 372.09 260.19 367.72 265.03 367.75 C 283.68 367.71 302.33 367.74 320.98 367.74 C 325.67 367.53 330.07 371.40 330.39 376.09 C 330.54 379.74 330.52 383.40 330.41 387.05 C 327.82 386.66 324.62 385.27 322.48 387.52 C 320.09 389.66 321.45 392.96 321.90 395.61 C 303.24 395.73 284.58 395.65 265.92 395.65 C 261.42 395.89 257.00 392.65 256.20 388.16 C 255.80 384.43 256.06 380.65 256.02 376.91 Z" />
        <path fill="#00c99f" opacity="1.00"
            d=" M 488.35 452.46 C 494.77 449.82 502.83 452.90 505.81 459.19 C 508.65 464.58 507.31 471.74 502.74 475.77 C 498.50 479.75 491.59 480.56 486.59 477.56 C 481.79 475.02 478.88 469.39 479.54 464.01 C 479.96 458.89 483.58 454.29 488.35 452.46 Z" />
    </g>
    <g id="#8fa2ffff">
        <path fill="#8fa2ff" opacity="1.00"
            d=" M 91.43 93.03 L 92.07 92.97 C 103.25 93.17 114.43 93.02 125.61 93.01 C 133.17 95.24 140.64 99.25 144.71 106.29 C 151.09 116.13 148.38 128.31 148.89 139.33 C 137.91 139.48 126.92 139.62 115.96 139.05 C 96.97 139.05 77.98 139.04 58.99 139.07 C 55.51 138.99 51.89 139.62 48.54 138.36 C 60.66 121.38 75.31 106.25 91.43 93.03 M 123.32 112.34 C 120.45 113.89 120.25 118.41 123.00 120.17 C 125.65 122.23 129.91 120.34 130.29 117.04 C 131.00 113.36 126.47 110.28 123.32 112.34 Z" />
        <path fill="#8fa2ff" opacity="1.00"
            d=" M 136.81 312.94 C 140.27 305.41 149.12 300.96 157.23 302.72 C 166.10 304.29 172.87 313.04 172.15 322.02 C 172.05 326.14 170.10 329.87 167.81 333.19 C 174.08 336.19 179.95 340.34 183.93 346.15 C 185.13 347.62 185.72 349.65 187.46 350.62 C 179.83 362.10 165.64 368.58 152.01 368.05 C 139.64 367.67 127.80 361.33 120.13 351.65 L 120.26 351.25 C 124.11 343.02 131.47 337.17 139.26 333.03 C 134.90 327.40 133.57 319.43 136.81 312.94 Z" />
        <path fill="#8fa2ff" opacity="1.00"
            d=" M 32.53 330.24 C 37.86 331.03 43.28 330.62 48.61 331.47 C 59.06 332.76 69.20 335.71 79.12 339.15 C 79.16 350.10 79.15 361.04 79.13 371.99 C 79.14 375.89 78.86 379.94 80.33 383.63 C 82.95 390.80 90.33 395.88 97.98 395.66 C 112.95 395.67 127.93 395.64 142.91 395.68 C 152.74 414.21 158.50 435.11 158.09 456.17 C 135.99 456.30 113.89 456.14 91.78 456.25 C 68.87 438.34 49.84 415.52 35.25 390.59 C 34.64 388.50 32.70 386.95 32.37 384.79 C 32.54 366.61 32.22 348.42 32.53 330.24 Z" />
    </g>
    <g id="#4e6affff">
        <path fill="#4e6aff" opacity="1.00"
            d=" M 125.61 93.01 C 197.00 93.14 268.39 93.02 339.78 93.07 C 339.77 108.50 339.08 124.25 343.69 139.19 C 278.76 139.44 213.82 139.18 148.89 139.33 C 148.38 128.31 151.09 116.13 144.71 106.29 C 140.64 99.25 133.17 95.24 125.61 93.01 Z" />
        <path fill="#4e6aff" opacity="1.00"
            d=" M 259.18 200.34 C 263.10 199.95 267.08 200.08 271.02 200.26 C 274.94 200.78 275.89 206.69 272.63 208.71 C 270.31 209.99 267.51 209.30 264.99 209.48 C 262.73 209.33 260.26 209.90 258.18 208.82 C 254.93 207.01 255.47 201.25 259.18 200.34 Z" />
        <path fill="#4e6aff" opacity="1.00"
            d=" M 287.16 200.34 C 291.09 199.96 295.09 200.07 299.04 200.27 C 303.65 201.02 303.63 208.62 299.00 209.34 C 295.03 209.54 291.00 209.66 287.04 209.25 C 282.93 208.15 282.95 201.26 287.16 200.34 Z" />
        <path fill="#4e6aff" opacity="1.00"
            d=" M 314.37 200.56 C 318.20 199.71 322.23 200.25 326.14 200.18 C 329.05 200.09 331.11 203.29 330.33 205.98 C 329.93 207.98 327.99 209.50 325.95 209.44 C 322.34 209.45 318.71 209.67 315.12 209.28 C 311.17 208.38 310.77 202.19 314.37 200.56 Z" />
        <path fill="#4e6aff" opacity="1.00"
            d=" M 342.41 200.52 C 346.52 199.79 350.84 200.12 355.01 200.30 C 359.48 201.12 359.46 208.51 354.97 209.32 C 351.02 209.58 347.04 209.60 343.10 209.30 C 339.06 208.43 338.68 202.07 342.41 200.52 Z" />
        <path fill="#4e6aff" opacity="1.00"
            d=" M 90.37 257.50 C 95.63 255.20 101.51 256.24 107.07 255.99 C 114.78 256.02 122.49 256.01 130.21 255.97 C 145.78 256.03 161.36 256.00 176.93 255.98 C 184.65 256.00 192.36 256.02 200.08 255.98 C 206.04 256.25 212.47 255.06 217.95 258.04 C 224.22 261.17 228.29 268.05 228.06 275.04 C 228.07 309.02 228.08 343.00 228.06 376.98 C 228.32 386.69 219.85 395.52 210.13 395.60 C 187.73 395.76 165.31 395.60 142.91 395.68 C 127.93 395.64 112.95 395.67 97.98 395.66 C 90.33 395.88 82.95 390.80 80.33 383.63 C 78.86 379.94 79.14 375.89 79.13 371.99 C 79.15 361.04 79.16 350.10 79.12 339.15 C 79.13 317.75 79.11 296.34 79.13 274.94 C 78.93 267.55 83.54 260.34 90.37 257.50 M 132.00 289.98 C 121.34 296.28 113.83 307.59 112.16 319.86 C 110.50 330.88 113.61 342.36 120.26 351.25 L 120.13 351.65 C 127.80 361.33 139.64 367.67 152.01 368.05 C 165.64 368.58 179.83 362.10 187.46 350.62 C 195.32 339.59 197.75 324.82 193.12 312.01 C 188.78 299.33 177.97 289.06 165.01 285.53 C 154.02 282.39 141.74 283.98 132.00 289.98 Z" />
        <path fill="#4e6aff" opacity="1.00"
            d=" M 258.38 284.43 C 262.45 283.43 266.82 284.03 270.99 284.05 C 275.72 284.60 275.76 292.47 271.05 293.12 C 267.38 293.40 263.68 293.30 260.01 293.18 C 255.61 293.01 254.59 286.26 258.38 284.43 Z" />
        <path fill="#4e6aff" opacity="1.00"
            d=" M 286.33 284.42 C 290.46 283.47 294.87 283.99 299.09 284.08 C 303.65 284.81 303.63 292.44 299.03 293.09 C 295.35 293.43 291.64 293.28 287.96 293.18 C 283.54 293.04 282.51 286.22 286.33 284.42 Z" />
        <path fill="#4e6aff" opacity="1.00"
            d=" M 314.30 284.40 C 318.42 283.49 322.82 283.97 327.04 284.08 C 331.57 284.87 331.53 292.38 326.97 293.11 C 323.01 293.35 318.98 293.44 315.04 293.04 C 311.20 292.07 310.79 286.06 314.30 284.40 Z" />
        <path fill="#4e6aff" opacity="1.00"
            d=" M 342.31 284.36 C 346.44 283.51 350.81 283.96 355.02 284.08 C 359.47 284.92 359.46 292.26 355.00 293.07 C 351.02 293.38 346.97 293.42 343.00 293.04 C 339.09 292.14 338.71 285.93 342.31 284.36 Z" />
        <path fill="#4e6aff" opacity="1.00"
            d=" M 322.48 387.52 C 324.62 385.27 327.82 386.66 330.41 387.05 C 336.93 388.39 343.47 389.62 349.98 390.99 C 353.10 391.40 354.93 395.38 353.13 397.98 C 351.19 400.52 348.55 402.43 346.56 404.93 C 348.63 407.63 351.62 409.55 353.42 412.46 C 355.10 416.05 350.94 420.26 347.34 418.55 C 344.46 416.85 342.63 413.86 340.01 411.83 C 337.02 413.35 335.34 416.78 332.37 418.46 C 329.81 419.68 326.38 418.00 325.85 415.19 C 324.47 408.68 323.26 402.13 321.90 395.61 C 321.45 392.96 320.09 389.66 322.48 387.52 Z" />
    </g>
    <g id="#ffffffff">
        <path fill="#ffffff" opacity="1.00"
            d=" M 426.55 109.63 C 430.01 106.71 435.59 106.96 438.79 110.16 C 442.40 113.45 442.60 119.63 439.20 123.15 C 430.22 132.18 421.20 141.18 412.19 150.19 C 408.92 154.07 402.53 154.74 398.78 151.18 C 392.54 145.09 386.43 138.86 380.25 132.72 C 376.80 129.43 376.64 123.46 379.91 119.99 C 383.07 116.24 389.28 115.84 392.89 119.15 C 396.99 122.99 400.77 127.26 404.98 130.94 C 412.33 124.02 419.27 116.63 426.55 109.63 Z" />
        <path fill="#ffffff" opacity="1.00"
            d=" M 123.32 112.34 C 126.47 110.28 131.00 113.36 130.29 117.04 C 129.91 120.34 125.65 122.23 123.00 120.17 C 120.25 118.41 120.45 113.89 123.32 112.34 Z" />
        <path fill="#ffffff" opacity="1.00"
            d=" M 263.26 228.33 C 264.83 228.01 266.45 228.07 268.05 228.05 C 304.41 228.10 340.76 228.01 377.12 228.10 C 381.91 228.03 386.25 232.23 386.29 237.04 C 386.37 243.34 386.34 249.66 386.31 255.96 C 386.44 260.97 381.94 265.45 376.94 265.30 C 340.64 265.38 304.33 265.29 268.03 265.34 C 262.26 266.35 255.81 262.21 256.02 255.99 C 256.00 249.63 255.95 243.26 256.05 236.90 C 256.14 232.84 259.27 229.11 263.26 228.33 M 273.19 242.26 C 269.76 243.17 268.82 248.19 271.68 250.29 C 274.07 252.45 278.32 251.07 279.09 247.97 C 280.25 244.59 276.54 240.98 273.19 242.26 M 296.15 242.36 C 293.01 243.49 292.23 248.08 294.82 250.18 C 297.46 252.78 302.47 250.69 302.55 247.00 C 302.89 243.72 299.16 241.00 296.15 242.36 M 319.36 242.40 C 316.34 243.53 315.50 247.91 317.95 250.05 C 320.26 252.50 324.83 251.24 325.61 247.99 C 326.90 244.45 322.73 240.74 319.36 242.40 M 342.33 242.55 C 339.36 243.88 338.89 248.42 341.55 250.33 C 343.95 252.42 348.07 251.07 348.88 248.04 C 350.24 244.36 345.74 240.53 342.33 242.55 M 366.16 242.30 C 363.10 243.23 362.02 247.50 364.24 249.78 C 366.43 252.52 371.31 251.39 372.16 248.03 C 373.40 244.58 369.53 240.90 366.16 242.30 Z" />
        <path fill="#ffffff" opacity="1.00"
            d=" M 132.00 289.98 C 141.74 283.98 154.02 282.39 165.01 285.53 C 177.97 289.06 188.78 299.33 193.12 312.01 C 197.75 324.82 195.32 339.59 187.46 350.62 C 185.72 349.65 185.13 347.62 183.93 346.15 C 179.95 340.34 174.08 336.19 167.81 333.19 C 170.10 329.87 172.05 326.14 172.15 322.02 C 172.87 313.04 166.10 304.29 157.23 302.72 C 149.12 300.96 140.27 305.41 136.81 312.94 C 133.57 319.43 134.90 327.40 139.26 333.03 C 131.47 337.17 124.11 343.02 120.26 351.25 C 113.61 342.36 110.50 330.88 112.16 319.86 C 113.83 307.59 121.34 296.28 132.00 289.98 Z" />
        <path fill="#ffffff" opacity="1.00"
            d=" M 262.29 312.37 C 263.79 311.83 265.40 311.87 266.98 311.86 C 303.66 311.89 340.34 311.83 377.02 311.89 C 381.94 311.76 386.40 316.12 386.30 321.07 C 386.35 327.36 386.36 333.66 386.30 339.95 C 386.37 344.85 381.93 349.15 377.06 349.05 C 340.04 349.09 303.01 349.05 265.99 349.06 C 260.91 349.52 256.02 345.19 256.04 340.06 C 255.97 333.69 255.98 327.31 256.03 320.94 C 256.06 317.15 258.66 313.53 262.29 312.37 M 272.32 326.42 C 269.20 328.02 269.23 333.01 272.39 334.55 C 275.47 336.47 279.78 333.53 279.26 329.98 C 279.01 326.78 275.07 324.69 272.32 326.42 M 296.14 326.16 C 292.64 327.37 292.25 332.78 295.54 334.49 C 298.59 336.51 303.10 333.61 302.52 330.00 C 302.34 327.01 298.85 324.91 296.14 326.16 M 319.18 326.25 C 316.25 327.50 315.55 331.84 318.03 333.90 C 320.45 336.37 325.11 334.85 325.72 331.47 C 326.65 327.91 322.47 324.48 319.18 326.25 M 342.26 326.37 C 338.99 327.89 339.02 333.03 342.25 334.58 C 345.33 336.45 349.60 333.50 349.08 329.98 C 348.82 326.85 345.00 324.71 342.26 326.37 M 365.32 326.47 C 362.33 328.08 362.34 332.89 365.35 334.48 C 368.38 336.53 372.84 333.64 372.34 330.06 C 372.18 326.78 368.09 324.64 365.32 326.47 Z" />
    </g>
    <g id="#a5bcedff">
        <path fill="#a5bced" opacity="1.00"
            d=" M 32.18 164.48 C 37.00 155.41 42.50 146.68 48.54 138.36 C 51.89 139.62 55.51 138.99 58.99 139.07 C 77.98 139.04 96.97 139.05 115.96 139.05 C 126.92 139.62 137.91 139.48 148.89 139.33 C 213.82 139.18 278.76 139.44 343.69 139.19 C 352.18 169.06 375.54 194.77 405.02 204.80 C 419.09 200.20 431.64 191.39 442.04 180.93 C 442.40 239.93 442.09 298.93 442.19 357.94 C 442.45 366.82 441.71 375.75 442.57 384.60 C 442.47 384.92 442.27 385.57 442.17 385.89 C 442.20 404.58 442.19 423.27 442.18 441.96 C 442.37 449.19 436.25 455.87 428.98 456.08 C 414.68 456.21 400.37 456.09 386.06 456.14 C 384.91 456.16 383.75 455.92 382.68 456.41 C 367.79 455.80 352.87 456.32 337.97 456.14 C 278.01 456.17 218.05 456.10 158.09 456.17 C 158.50 435.11 152.74 414.21 142.91 395.68 C 165.31 395.60 187.73 395.76 210.13 395.60 C 219.85 395.52 228.32 386.69 228.06 376.98 C 228.08 343.00 228.07 309.02 228.06 275.04 C 228.29 268.05 224.22 261.17 217.95 258.04 C 212.47 255.06 206.04 256.25 200.08 255.98 C 199.95 245.56 200.75 235.06 199.42 224.71 C 197.08 211.52 188.90 199.44 177.30 192.67 C 167.18 186.69 154.77 184.70 143.32 187.37 C 126.80 190.93 112.85 204.28 108.66 220.67 C 105.80 232.21 107.50 244.23 107.07 255.99 C 101.51 256.24 95.63 255.20 90.37 257.50 C 83.54 260.34 78.93 267.55 79.13 274.94 C 79.11 296.34 79.13 317.75 79.12 339.15 C 69.20 335.71 59.06 332.76 48.61 331.47 C 43.28 330.62 37.86 331.03 32.53 330.24 C 32.70 276.49 32.52 222.74 32.62 168.99 C 32.62 167.47 32.46 165.97 32.18 164.48 M 259.18 200.34 C 255.47 201.25 254.93 207.01 258.18 208.82 C 260.26 209.90 262.73 209.33 264.99 209.48 C 267.51 209.30 270.31 209.99 272.63 208.71 C 275.89 206.69 274.94 200.78 271.02 200.26 C 267.08 200.08 263.10 199.95 259.18 200.34 M 287.16 200.34 C 282.95 201.26 282.93 208.15 287.04 209.25 C 291.00 209.66 295.03 209.54 299.00 209.34 C 303.63 208.62 303.65 201.02 299.04 200.27 C 295.09 200.07 291.09 199.96 287.16 200.34 M 314.37 200.56 C 310.77 202.19 311.17 208.38 315.12 209.28 C 318.71 209.67 322.34 209.45 325.95 209.44 C 327.99 209.50 329.93 207.98 330.33 205.98 C 331.11 203.29 329.05 200.09 326.14 200.18 C 322.23 200.25 318.20 199.71 314.37 200.56 M 342.41 200.52 C 338.68 202.07 339.06 208.43 343.10 209.30 C 347.04 209.60 351.02 209.58 354.97 209.32 C 359.46 208.51 359.48 201.12 355.01 200.30 C 350.84 200.12 346.52 199.79 342.41 200.52 M 263.26 228.33 C 259.27 229.11 256.14 232.84 256.05 236.90 C 255.95 243.26 256.00 249.63 256.02 255.99 C 255.81 262.21 262.26 266.35 268.03 265.34 C 304.33 265.29 340.64 265.38 376.94 265.30 C 381.94 265.45 386.44 260.97 386.31 255.96 C 386.34 249.66 386.37 243.34 386.29 237.04 C 386.25 232.23 381.91 228.03 377.12 228.10 C 340.76 228.01 304.41 228.10 268.05 228.05 C 266.45 228.07 264.83 228.01 263.26 228.33 M 258.38 284.43 C 254.59 286.26 255.61 293.01 260.01 293.18 C 263.68 293.30 267.38 293.40 271.05 293.12 C 275.76 292.47 275.72 284.60 270.99 284.05 C 266.82 284.03 262.45 283.43 258.38 284.43 M 286.33 284.42 C 282.51 286.22 283.54 293.04 287.96 293.18 C 291.64 293.28 295.35 293.43 299.03 293.09 C 303.63 292.44 303.65 284.81 299.09 284.08 C 294.87 283.99 290.46 283.47 286.33 284.42 M 314.30 284.40 C 310.79 286.06 311.20 292.07 315.04 293.04 C 318.98 293.44 323.01 293.35 326.97 293.11 C 331.53 292.38 331.57 284.87 327.04 284.08 C 322.82 283.97 318.42 283.49 314.30 284.40 M 342.31 284.36 C 338.71 285.93 339.09 292.14 343.00 293.04 C 346.97 293.42 351.02 293.38 355.00 293.07 C 359.46 292.26 359.47 284.92 355.02 284.08 C 350.81 283.96 346.44 283.51 342.31 284.36 M 262.29 312.37 C 258.66 313.53 256.06 317.15 256.03 320.94 C 255.98 327.31 255.97 333.69 256.04 340.06 C 256.02 345.19 260.91 349.52 265.99 349.06 C 303.01 349.05 340.04 349.09 377.06 349.05 C 381.93 349.15 386.37 344.85 386.30 339.95 C 386.36 333.66 386.35 327.36 386.30 321.07 C 386.40 316.12 381.94 311.76 377.02 311.89 C 340.34 311.83 303.66 311.89 266.98 311.86 C 265.40 311.87 263.79 311.83 262.29 312.37 M 256.02 376.91 C 256.06 380.65 255.80 384.43 256.20 388.16 C 257.00 392.65 261.42 395.89 265.92 395.65 C 284.58 395.65 303.24 395.73 321.90 395.61 C 323.26 402.13 324.47 408.68 325.85 415.19 C 326.38 418.00 329.81 419.68 332.37 418.46 C 335.34 416.78 337.02 413.35 340.01 411.83 C 342.63 413.86 344.46 416.85 347.34 418.55 C 350.94 420.26 355.10 416.05 353.42 412.46 C 351.62 409.55 348.63 407.63 346.56 404.93 C 348.55 402.43 351.19 400.52 353.13 397.98 C 354.93 395.38 353.10 391.40 349.98 390.99 C 343.47 389.62 336.93 388.39 330.41 387.05 C 330.52 383.40 330.54 379.74 330.39 376.09 C 330.07 371.40 325.67 367.53 320.98 367.74 C 302.33 367.74 283.68 367.71 265.03 367.75 C 260.19 367.72 255.93 372.09 256.02 376.91 Z" />
        <path fill="#a5bced" opacity="1.00"
            d=" M 141.16 213.08 C 148.49 208.26 158.53 208.40 165.94 212.99 C 172.36 217.03 176.64 224.34 176.82 231.96 C 176.96 239.96 176.71 247.98 176.93 255.98 C 161.36 256.00 145.78 256.03 130.21 255.97 C 130.49 248.32 130.21 240.66 130.29 233.00 C 130.14 225.08 134.42 217.25 141.16 213.08 Z" />
    </g>
    <g id="#7f96d1ff">
        <path fill="#7f96d1" opacity="1.00"
            d=" M 143.32 187.37 C 154.77 184.70 167.18 186.69 177.30 192.67 C 188.90 199.44 197.08 211.52 199.42 224.71 C 200.75 235.06 199.95 245.56 200.08 255.98 C 192.36 256.02 184.65 256.00 176.93 255.98 C 176.71 247.98 176.96 239.96 176.82 231.96 C 176.64 224.34 172.36 217.03 165.94 212.99 C 158.53 208.40 148.49 208.26 141.16 213.08 C 134.42 217.25 130.14 225.08 130.29 233.00 C 130.21 240.66 130.49 248.32 130.21 255.97 C 122.49 256.01 114.78 256.02 107.07 255.99 C 107.50 244.23 105.80 232.21 108.66 220.67 C 112.85 204.28 126.80 190.93 143.32 187.37 Z" />
        <path fill="#7f96d1" opacity="1.00"
            d=" M 273.19 242.26 C 276.54 240.98 280.25 244.59 279.09 247.97 C 278.32 251.07 274.07 252.45 271.68 250.29 C 268.82 248.19 269.76 243.17 273.19 242.26 Z" />
        <path fill="#7f96d1" opacity="1.00"
            d=" M 296.15 242.36 C 299.16 241.00 302.89 243.72 302.55 247.00 C 302.47 250.69 297.46 252.78 294.82 250.18 C 292.23 248.08 293.01 243.49 296.15 242.36 Z" />
        <path fill="#7f96d1" opacity="1.00"
            d=" M 319.36 242.40 C 322.73 240.74 326.90 244.45 325.61 247.99 C 324.83 251.24 320.26 252.50 317.95 250.05 C 315.50 247.91 316.34 243.53 319.36 242.40 Z" />
        <path fill="#7f96d1" opacity="1.00"
            d=" M 342.33 242.55 C 345.74 240.53 350.24 244.36 348.88 248.04 C 348.07 251.07 343.95 252.42 341.55 250.33 C 338.89 248.42 339.36 243.88 342.33 242.55 Z" />
        <path fill="#7f96d1" opacity="1.00"
            d=" M 366.16 242.30 C 369.53 240.90 373.40 244.58 372.16 248.03 C 371.31 251.39 366.43 252.52 364.24 249.78 C 362.02 247.50 363.10 243.23 366.16 242.30 Z" />
        <path fill="#7f96d1" opacity="1.00"
            d=" M 272.32 326.42 C 275.07 324.69 279.01 326.78 279.26 329.98 C 279.78 333.53 275.47 336.47 272.39 334.55 C 269.23 333.01 269.20 328.02 272.32 326.42 Z" />
        <path fill="#7f96d1" opacity="1.00"
            d=" M 296.14 326.16 C 298.85 324.91 302.34 327.01 302.52 330.00 C 303.10 333.61 298.59 336.51 295.54 334.49 C 292.25 332.78 292.64 327.37 296.14 326.16 Z" />
        <path fill="#7f96d1" opacity="1.00"
            d=" M 319.18 326.25 C 322.47 324.48 326.65 327.91 325.72 331.47 C 325.11 334.85 320.45 336.37 318.03 333.90 C 315.55 331.84 316.25 327.50 319.18 326.25 Z" />
        <path fill="#7f96d1" opacity="1.00"
            d=" M 342.26 326.37 C 345.00 324.71 348.82 326.85 349.08 329.98 C 349.60 333.50 345.33 336.45 342.25 334.58 C 339.02 333.03 338.99 327.89 342.26 326.37 Z" />
        <path fill="#7f96d1" opacity="1.00"
            d=" M 365.32 326.47 C 368.09 324.64 372.18 326.78 372.34 330.06 C 372.84 333.64 368.38 336.53 365.35 334.48 C 362.34 332.89 362.33 328.08 365.32 326.47 Z" />
    </g>
    <g id="#ff4d69ff">
        <path fill="#ff4d69" opacity="1.00"
            d=" M 31.49 480.68 C 38.86 477.08 48.63 481.58 50.61 489.56 C 53.16 497.40 47.15 506.46 38.95 507.18 C 31.62 508.32 24.17 502.52 23.44 495.16 C 22.53 489.23 26.04 483.10 31.49 480.68 Z" />
    </g>
</svg>
